<svg width="161" height="216" viewBox="0 0 161 216" fill="none" xmlns="http://www.w3.org/2000/svg">
<path d="M160.299 139.411L130.418 117.653C130.418 117.653 113.301 88.6418 110.4 70.0748C107.499 51.5078 94.4441 18.4352 94.4441 18.4352V1.02864C94.4441 1.02864 79.3584 -4.77355 78.198 11.1825C77.0375 27.1385 81.3892 47.7363 81.3892 47.7363C81.3892 47.7363 85.7408 73.8462 75.8771 80.5187L39.9035 139.411C39.9035 139.411 74.4266 171.033 101.407 175.095L160.299 216V139.411Z" fill="#FFB8B8"/>
<path d="M11.5311 29.661H10.5461C1.67137 29.661 -3.31725 40.1385 2.51424 46.8284C4.39115 48.9816 7.24395 50.4724 11.5311 50.5489V29.661Z" fill="#FFB8B8"/>
<path d="M11.5311 50.5489H10.5461C1.67137 50.5489 -3.31725 61.0264 2.51424 67.7163C4.39115 69.8695 7.24395 71.3603 11.5311 71.4368V50.5489Z" fill="#FFB8B8"/>
<path d="M11.5311 71.4368H10.5461C1.67137 71.4368 -3.31725 81.9143 2.51424 88.6042C4.39115 90.7574 7.24395 92.2482 11.5311 92.3247V71.4368Z" fill="#FFB8B8"/>
<path d="M11.5311 92.3247H10.5461C1.67137 92.3247 -3.31725 102.802 2.51424 109.492C4.39115 111.645 7.24395 113.136 11.5311 113.213V92.3247Z" fill="#FFB8B8"/>
<path d="M81.9694 51.0171H81.106V27.3649C81.106 25.5672 80.752 23.7871 80.064 22.1262C79.3761 20.4654 78.3677 18.9563 77.0965 17.6851C75.8254 16.4139 74.3163 15.4056 72.6554 14.7176C70.9946 14.0297 69.2145 13.6756 67.4168 13.6756H17.3064C15.5087 13.6756 13.7286 14.0297 12.0677 14.7176C10.4068 15.4056 8.89774 16.4139 7.62657 17.6851C6.3554 18.9563 5.34706 20.4654 4.6591 22.1262C3.97115 23.7871 3.61707 25.5672 3.61707 27.3649V157.123C3.61707 158.92 3.97115 160.701 4.6591 162.361C5.34706 164.022 6.3554 165.531 7.62657 166.803C8.89774 168.074 10.4068 169.082 12.0677 169.77C13.7286 170.458 15.5087 170.812 17.3064 170.812H67.4168C69.2145 170.812 70.9946 170.458 72.6554 169.77C74.3163 169.082 75.8254 168.074 77.0965 166.803C78.3677 165.531 79.3761 164.022 80.064 162.361C80.752 160.701 81.106 158.92 81.106 157.123V67.8532H81.9694V51.0171Z" fill="#3F3D56"/>
<path d="M78.1922 27.4605V157.026C78.19 158.542 77.8522 160.038 77.2031 161.407C76.5541 162.777 75.6098 163.985 74.4382 164.947C74.1791 165.159 73.9089 165.357 73.6288 165.541C71.9528 166.658 69.983 167.253 67.9688 167.25H17.6173C16.8011 167.251 15.9877 167.154 15.1949 166.96C12.9698 166.417 10.9914 165.143 9.57687 163.342C8.16231 161.541 7.39354 159.317 7.39383 157.026V27.4605C7.39408 24.7492 8.47127 22.149 10.3885 20.2317C12.3057 18.3145 14.9059 17.2373 17.6173 17.2371H23.727C23.4262 17.9745 23.3113 18.7745 23.3926 19.5668C23.4739 20.359 23.7488 21.1191 24.193 21.7801C24.6373 22.441 25.2373 22.9826 25.9402 23.357C26.6431 23.7314 27.4273 23.9271 28.2237 23.927H56.9301C57.7262 23.9262 58.5099 23.7298 59.2124 23.3552C59.9149 22.9806 60.5146 22.4392 60.9589 21.7786C61.4032 21.118 61.6785 20.3584 61.7606 19.5666C61.8427 18.7747 61.7291 17.9748 61.4297 17.2371H67.9688C70.6801 17.2373 73.2803 18.3145 75.1976 20.2317C77.1148 22.149 78.192 24.7492 78.1922 27.4605Z" fill="#CAAD16"/>
<path d="M57.6222 104.345C58.2792 104.345 58.8119 103.28 58.8119 101.966C58.8119 100.652 58.2792 99.5868 57.6222 99.5868C56.9652 99.5868 56.4326 100.652 56.4326 101.966C56.4326 103.28 56.9652 104.345 57.6222 104.345Z" fill="#FFB8B8"/>
<path d="M96.3298 164.07C108.427 164.07 118.233 142.12 118.233 115.042C118.233 87.9641 108.427 66.0132 96.3298 66.0132C84.2329 66.0132 74.4265 87.9641 74.4265 115.042C74.4265 142.12 84.2329 164.07 96.3298 164.07Z" fill="#FFB8B8"/>
<path opacity="0.2" d="M17.5537 53.8286C16.4061 53.8286 15.2843 53.4883 14.3302 52.8508C13.376 52.2132 12.6323 51.3071 12.1932 50.2468C11.754 49.1866 11.6391 48.02 11.863 46.8945C12.0869 45.769 12.6395 44.7351 13.4509 43.9237C14.2624 43.1122 15.2962 42.5596 16.4217 42.3357C17.5473 42.1119 18.7139 42.2268 19.7741 42.6659C20.8343 43.1051 21.7405 43.8487 22.378 44.8029C23.0156 45.7571 23.3559 46.8789 23.3559 48.0264C23.3541 49.5647 22.7423 51.0395 21.6545 52.1273C20.5668 53.215 19.092 53.8269 17.5537 53.8286ZM17.5537 42.8045C16.5209 42.8045 15.5113 43.1107 14.6525 43.6845C13.7938 44.2583 13.1245 45.0739 12.7292 46.0281C12.334 46.9823 12.2306 48.0322 12.4321 49.0452C12.6336 50.0582 13.1309 50.9886 13.8612 51.7189C14.5915 52.4492 15.522 52.9466 16.5349 53.1481C17.5479 53.3496 18.5979 53.2462 19.5521 52.8509C20.5063 52.4557 21.3218 51.7864 21.8956 50.9276C22.4694 50.0689 22.7757 49.0593 22.7757 48.0264C22.7741 46.642 22.2234 45.3146 21.2445 44.3357C20.2655 43.3567 18.9382 42.806 17.5537 42.8045Z" fill="black"/>
<path opacity="0.2" d="M15.2328 47.4462C15.7135 47.4462 16.1031 47.0566 16.1031 46.5759C16.1031 46.0952 15.7135 45.7056 15.2328 45.7056C14.7521 45.7056 14.3625 46.0952 14.3625 46.5759C14.3625 47.0566 14.7521 47.4462 15.2328 47.4462Z" fill="black"/>
<path opacity="0.2" d="M19.5845 47.4462C20.0651 47.4462 20.4548 47.0566 20.4548 46.5759C20.4548 46.0952 20.0651 45.7056 19.5845 45.7056C19.1038 45.7056 18.7141 46.0952 18.7141 46.5759C18.7141 47.0566 19.1038 47.4462 19.5845 47.4462Z" fill="black"/>
<path opacity="0.2" d="M19.5844 50.0572H15.2328C15.1559 50.0572 15.0821 50.0266 15.0277 49.9722C14.9732 49.9178 14.9427 49.844 14.9427 49.7671C14.9427 49.6902 14.9732 49.6164 15.0277 49.562C15.0821 49.5076 15.1559 49.477 15.2328 49.477H19.5844C19.6614 49.477 19.7352 49.5076 19.7896 49.562C19.844 49.6164 19.8746 49.6902 19.8746 49.7671C19.8746 49.844 19.844 49.9178 19.7896 49.9722C19.7352 50.0266 19.6614 50.0572 19.5844 50.0572Z" fill="black"/>
<path opacity="0.2" d="M68.0328 53.8286C66.8852 53.8286 65.7634 53.4883 64.8093 52.8508C63.8551 52.2132 63.1114 51.3071 62.6723 50.2468C62.2331 49.1866 62.1182 48.02 62.3421 46.8945C62.566 45.769 63.1186 44.7351 63.93 43.9237C64.7415 43.1122 65.7753 42.5596 66.9008 42.3357C68.0264 42.1119 69.193 42.2268 70.2532 42.6659C71.3134 43.1051 72.2196 43.8487 72.8571 44.8029C73.4947 45.7571 73.835 46.8789 73.835 48.0264C73.8332 49.5648 73.2214 51.0396 72.1336 52.1273C71.0459 53.215 69.5711 53.8269 68.0328 53.8286ZM68.0328 42.8045C67 42.8045 65.9904 43.1107 65.1316 43.6845C64.2729 44.2583 63.6035 45.0739 63.2083 46.0281C62.8131 46.9823 62.7097 48.0322 62.9112 49.0452C63.1126 50.0582 63.61 50.9886 64.3403 51.7189C65.0706 52.4492 66.0011 52.9466 67.014 53.1481C68.027 53.3496 69.077 53.2462 70.0311 52.8509C70.9853 52.4557 71.8009 51.7864 72.3747 50.9276C72.9485 50.0689 73.2548 49.0593 73.2548 48.0264C73.2532 46.642 72.7025 45.3147 71.7235 44.3357C70.7446 43.3567 69.4173 42.8061 68.0328 42.8045Z" fill="black"/>
<path opacity="0.2" d="M65.7119 47.4462C66.1926 47.4462 66.5823 47.0566 66.5823 46.5759C66.5823 46.0952 66.1926 45.7056 65.7119 45.7056C65.2313 45.7056 64.8416 46.0952 64.8416 46.5759C64.8416 47.0566 65.2313 47.4462 65.7119 47.4462Z" fill="black"/>
<path opacity="0.2" d="M70.0636 47.4462C70.5442 47.4462 70.9339 47.0566 70.9339 46.5759C70.9339 46.0952 70.5442 45.7056 70.0636 45.7056C69.5829 45.7056 69.1932 46.0952 69.1932 46.5759C69.1932 47.0566 69.5829 47.4462 70.0636 47.4462Z" fill="black"/>
<path opacity="0.2" d="M70.0633 50.6374C70.0125 50.6374 69.9627 50.6241 69.9188 50.5987C69.3114 50.2136 68.607 50.0091 67.8877 50.0091C67.1685 50.0091 66.4641 50.2136 65.8567 50.5987C65.8236 50.6179 65.7872 50.6303 65.7493 50.6353C65.7115 50.6403 65.6731 50.6377 65.6362 50.6279C65.5994 50.618 65.5648 50.6009 65.5346 50.5777C65.5043 50.5544 65.4789 50.5255 65.4599 50.4924C65.4409 50.4593 65.4285 50.4228 65.4236 50.385C65.4187 50.3472 65.4213 50.3087 65.4313 50.2719C65.4412 50.2351 65.4584 50.2006 65.4817 50.1704C65.505 50.1401 65.534 50.1148 65.5671 50.0959C66.2633 49.6616 67.0673 49.4314 67.8877 49.4314C68.7082 49.4314 69.5122 49.6616 70.2083 50.0959C70.2637 50.1278 70.307 50.1771 70.3316 50.2361C70.3561 50.2951 70.3604 50.3606 70.3439 50.4224C70.3273 50.4841 70.2908 50.5387 70.2401 50.5776C70.1894 50.6165 70.1272 50.6375 70.0633 50.6374Z" fill="black"/>
<path d="M43.0834 59.8066C40.7534 59.8066 38.4759 59.1157 36.5386 57.8213C34.6014 56.5269 33.0915 54.6871 32.1998 52.5345C31.3082 50.382 31.0749 48.0134 31.5295 45.7282C31.984 43.4431 33.106 41.344 34.7535 39.6966C36.401 38.0491 38.5 36.9271 40.7851 36.4726C43.0703 36.018 45.4389 36.2513 47.5914 37.1429C49.744 38.0345 51.5838 39.5444 52.8782 41.4817C54.1727 43.4189 54.8636 45.6965 54.8636 48.0264C54.86 51.1496 53.6177 54.1439 51.4093 56.3524C49.2008 58.5608 46.2066 59.8031 43.0834 59.8066ZM43.0834 37.4242C40.9864 37.4242 38.9366 38.046 37.1931 39.211C35.4496 40.376 34.0907 42.0318 33.2882 43.9691C32.4857 45.9064 32.2758 48.0382 32.6849 50.0948C33.094 52.1514 34.1037 54.0406 35.5865 55.5233C37.0692 57.0061 38.9583 58.0158 41.015 58.4249C43.0716 58.834 45.2033 58.624 47.1406 57.8216C49.0779 57.0191 50.7338 55.6602 51.8988 53.9167C53.0637 52.1732 53.6855 50.1233 53.6855 48.0264C53.6824 45.2155 52.5643 42.5206 50.5767 40.533C48.5891 38.5454 45.8943 37.4274 43.0834 37.4242V37.4242Z" fill="white"/>
<path d="M38.3713 46.8484C39.3472 46.8484 40.1383 46.0573 40.1383 45.0814C40.1383 44.1055 39.3472 43.3143 38.3713 43.3143C37.3954 43.3143 36.6042 44.1055 36.6042 45.0814C36.6042 46.0573 37.3954 46.8484 38.3713 46.8484Z" fill="white"/>
<path d="M47.2064 46.8484C48.1823 46.8484 48.9735 46.0573 48.9735 45.0814C48.9735 44.1055 48.1823 43.3143 47.2064 43.3143C46.2305 43.3143 45.4394 44.1055 45.4394 45.0814C45.4394 46.0573 46.2305 46.8484 47.2064 46.8484Z" fill="white"/>
<path d="M43.0897 53.7776C41.5053 53.7776 39.8256 53.2033 38.0508 52.0546C37.92 51.9695 37.8283 51.836 37.7958 51.6834C37.7634 51.5307 37.7928 51.3715 37.8777 51.2405C37.9626 51.1096 38.0961 51.0177 38.2487 50.985C38.4013 50.9524 38.5606 50.9817 38.6916 51.0664C41.8136 53.0903 44.4736 53.1049 46.8256 51.1113C46.9448 51.0105 47.0991 50.9612 47.2546 50.9741C47.4101 50.987 47.5542 51.0611 47.6551 51.1802C47.756 51.2992 47.8055 51.4535 47.7928 51.609C47.7801 51.7646 47.7061 51.9087 47.5872 52.0097C46.1975 53.1883 44.6942 53.7776 43.0897 53.7776Z" fill="white"/>
<path d="M62.5207 67.4637H54.8636V66.2859H61.3427V59.8068H62.5207V67.4637Z" fill="white"/>
<path d="M24.824 36.2461H23.646V28.589H31.3031V29.767H24.824V36.2461Z" fill="white"/>
<path d="M68.7312 89.5163C68.6542 89.4759 68.5686 89.455 68.4817 89.4554L17.639 89.6063C17.4981 89.607 17.3633 89.6634 17.2642 89.7633C17.165 89.8631 17.1096 89.9983 17.11 90.139L17.2742 126.595C17.275 126.736 17.3316 126.871 17.4318 126.97C17.5319 127.07 17.6673 127.125 17.8083 127.125L68.6508 126.974C68.7917 126.973 68.9266 126.917 69.0258 126.817C69.125 126.717 69.1804 126.582 69.18 126.441L69.0157 89.985C69.0156 89.9152 69.0016 89.8461 68.9746 89.7817C68.9476 89.7173 68.908 89.6588 68.8583 89.6098C68.8208 89.5725 68.7779 89.541 68.7312 89.5163Z" fill="#E6E6E6"/>
<path d="M65.736 92.6729L65.815 118.67C65.8153 118.756 65.7986 118.841 65.766 118.921C65.7334 119.001 65.6855 119.073 65.6249 119.134C65.5644 119.195 65.4924 119.244 65.4132 119.277C65.3339 119.31 65.2489 119.327 65.1631 119.328L21.0726 119.523C21.0412 119.524 21.0098 119.521 20.9788 119.516C20.8232 119.495 20.6807 119.418 20.5775 119.299C20.4742 119.181 20.4171 119.029 20.4167 118.872L20.3376 92.8743C20.3373 92.7883 20.354 92.7031 20.3866 92.6235C20.4192 92.544 20.4671 92.4716 20.5277 92.4105C20.5882 92.3495 20.6602 92.301 20.7394 92.2677C20.8187 92.2345 20.9037 92.2172 20.9895 92.2169L65.0801 92.0213C65.1659 92.0209 65.251 92.0374 65.3305 92.07C65.4099 92.1025 65.4822 92.1504 65.5431 92.2109C65.604 92.2714 65.6524 92.3434 65.6855 92.4226C65.7186 92.5019 65.7357 92.587 65.736 92.6729Z" fill="white"/>
<path d="M28.8125 106.939C31.5609 108.387 34.992 107.28 36.4761 104.464C37.9602 101.649 36.9353 98.1921 34.187 96.7433C31.4386 95.2945 28.0075 96.4024 26.5234 99.2178C25.0393 102.033 26.0642 105.49 28.8125 106.939Z" fill="#FF6584"/>
<path d="M49.4374 119.303L21.5278 119.492C21.4929 119.493 21.458 119.49 21.4235 119.484L34.6069 96.4371C34.6874 96.2936 34.8042 96.1738 34.9455 96.0901C35.0867 96.0064 35.2474 95.9617 35.411 95.9606C35.5746 95.9595 35.7353 96.002 35.8767 96.0838C36.0181 96.1656 36.1351 96.2838 36.2157 96.4262L45.0857 111.773L45.5106 112.507L49.4374 119.303Z" fill="#3F3D56"/>
<path opacity="0.2" d="M49.4467 119.286L39.8406 119.266L44.4915 112.479L44.8262 111.991L44.9935 111.746L45.4283 112.481L49.4467 119.286Z" fill="black"/>
<path d="M65.1867 119.438L40.6968 119.407L45.3825 112.567L45.7197 112.074L51.8255 103.159C52.2258 102.575 53.2008 102.54 53.6819 103.052C53.7142 103.086 53.7443 103.123 53.7719 103.162L65.1867 119.438Z" fill="#3F3D56"/>
<path d="M66.9535 91.3711C67.3557 91.5831 67.8536 91.4289 68.0656 91.0267C68.2777 90.6245 68.1235 90.1266 67.7213 89.9146C67.3191 89.7026 66.8212 89.8567 66.6092 90.2589C66.3971 90.6611 66.5513 91.1591 66.9535 91.3711Z" fill="#3F3D56"/>
<path d="M18.3262 126.537C18.7284 126.749 19.2263 126.595 19.4383 126.193C19.6503 125.791 19.4961 125.293 19.0939 125.081C18.6917 124.869 18.1938 125.023 17.9818 125.425C17.7698 125.827 17.924 126.325 18.3262 126.537Z" fill="#3F3D56"/>
</svg>
