<svg width="214" height="187" viewBox="0 0 214 187" fill="none" xmlns="http://www.w3.org/2000/svg">
<g clip-path="url(#clip0)">
<path opacity="0.1" d="M0.0981606 95.9826C0.745793 103.188 4.80413 109.712 7.28593 116.576C10.7968 126.322 11.1279 136.938 8.23138 146.886C7.64048 148.93 6.91248 150.981 6.91012 153.075C6.91012 160.295 15.1001 165.086 22.5408 168.27C41.4519 176.334 61.176 182.32 81.3689 186.123C87.9729 187.374 96.2196 187.918 100.398 183.205C102.403 180.943 102.89 177.982 104.362 175.452C108.118 168.98 117.256 166.466 125.458 165.024C135.347 163.288 145.329 162.134 155.353 161.568C165.443 160.998 176.902 160.504 183.589 153.847C187.843 149.616 189.077 143.778 189.245 138.266C189.8 120.177 181.194 100.603 192.239 84.9358C196.872 78.3643 204.431 73.5662 209.021 66.978C215.675 57.4293 215.1 45.3023 210.595 35.1268C206.09 24.9513 198.108 16.3 190.244 7.82438C187.645 5.02054 184.87 2.10512 180.96 0.804105C176.895 -0.549144 172.286 0.0728752 167.927 0.711514C148.101 3.61981 127.509 6.78689 110.891 16.7724C102.632 21.732 95.735 28.1682 88.3676 34.0774C72.4534 46.8573 54.0148 58.6638 32.9998 63.7088C15.9273 67.8113 -1.43819 78.8699 0.0981606 95.9826Z" fill="#67AFD0"/>
<path d="M64.9807 44.6928C64.9807 44.6928 51.2717 42.2617 64.9807 60.9033V44.6928Z" fill="#FFBEC7"/>
<path d="M159.1 139.083C159.1 139.083 157.115 136.818 151.633 138.183C148.951 135.615 145.609 131.892 145.488 129.193C144.372 129.561 143.283 129.976 142.212 130.432C137.57 125.223 131.621 116.956 131.874 108.998C132.292 96.0118 123.414 73.5574 123.414 73.5574C123.414 73.5574 124.147 64.4004 122.774 56.8317C121.842 51.7036 119.937 47.3067 116.196 46.972C115.618 46.9116 115.034 46.9755 114.482 47.1595C107.568 49.5337 111.863 71.7008 111.863 71.7008L105.881 90.2475L70.8118 109.003C70.8118 109.003 92.0584 137.03 102.373 138.06C102.373 138.06 109.972 146.065 115.446 153.093C113.513 155.704 112.48 157.433 112.48 157.433L117.779 165.011C115.602 167.948 112.539 173.693 119.287 176.39C128.569 180.098 148.991 163.202 148.991 163.202C148.991 163.202 166.732 151.45 159.1 139.083Z" fill="url(#paint0_linear)"/>
<path d="M64.5198 44.5931C64.5198 44.5931 50.4917 42.1193 64.5198 61.079V44.5931Z" fill="url(#paint1_linear)"/>
<path d="M61.3218 62.2162C61.3218 62.2162 56.1927 62.2162 56.3062 68.5836C56.3169 69.6513 56.6594 70.689 57.2857 71.5517C57.9119 72.4144 58.7908 73.0592 59.7996 73.3959C60.8908 73.7573 62.0797 73.672 63.1087 73.1585C63.9189 72.7636 64.6259 72.1835 65.1728 71.4648C65.7197 70.7461 66.0915 69.9088 66.2583 69.0198C66.4251 68.1308 66.3823 67.215 66.1334 66.3456C65.8844 65.4762 65.4362 64.6775 64.8247 64.0134C63.8972 63.0281 62.6602 62.3935 61.3218 62.2162Z" fill="url(#paint2_linear)"/>
<path d="M63.8036 75.1409C63.3522 74.9159 62.8563 74.795 62.3524 74.7872C62.3524 74.7872 57.4006 76.0241 58.2278 81.9997C58.2278 81.9997 58.6415 86.3278 62.9716 85.7081C65.9403 85.2831 66.2925 81.373 66.2216 78.9561C66.2054 78.1587 65.9712 77.3811 65.5448 76.7082C65.1184 76.0354 64.516 75.4932 63.8036 75.1409Z" fill="url(#paint3_linear)"/>
<path d="M64.0116 91.0095C63.631 90.7942 63.2049 90.6729 62.7683 90.6558C62.2326 90.9963 61.7223 91.3756 61.2415 91.7906C60.4356 92.4683 59.7206 93.2479 59.1142 94.1101C57.2469 96.8261 56.6395 100.817 63.6051 104.877V99.516C64.4699 98.7083 65.198 97.7645 65.7607 96.7217C66.2796 95.7306 66.387 94.5735 66.0592 93.5032C65.7315 92.4329 64.9954 91.5364 64.0116 91.0095Z" fill="url(#paint4_linear)"/>
<path d="M111.882 155.628C111.882 155.628 124.591 134.354 144.157 127.87L143.148 139.42L126.934 155.631L111.882 155.628Z" fill="#DFE5EE"/>
<path opacity="0.05" d="M111.882 155.628C111.882 155.628 124.591 134.354 144.157 127.87L143.148 139.42L126.934 155.631L111.882 155.628Z" fill="black"/>
<path d="M118.538 161.303C118.538 161.303 109.459 170.623 118.538 174.27C127.617 177.917 147.587 161.303 147.587 161.303C147.587 161.303 164.936 149.752 157.472 137.595C157.472 137.595 149 127.868 118.538 161.303Z" fill="#6C63FF"/>
<path d="M146.176 134.351C146.176 134.351 119.748 165.151 120.152 160.688C120.271 159.391 118.781 156.808 116.607 153.803C111.324 146.464 101.995 136.583 101.995 136.583C91.9095 135.569 71.1309 108.013 71.1309 108.013L105.425 89.5732L111.275 71.3376C111.275 71.3376 107.077 49.5384 113.837 47.2046C114.376 47.0234 114.947 46.9603 115.513 47.0195C115.761 47.0411 116.007 47.0831 116.248 47.1453C119.413 47.9454 121.081 51.9742 121.92 56.6418C121.92 56.6679 121.932 56.6964 121.937 56.7225C123.279 64.1654 122.563 73.168 122.563 73.168C122.563 73.168 131.238 95.2473 130.836 108.02C130.567 116.567 137.527 125.475 142.16 130.429C144.458 132.87 146.176 134.351 146.176 134.351Z" fill="#FFBEC7"/>
<path opacity="0.05" d="M109.663 117.939C109.663 117.939 110.067 98.6898 106.637 93.8276C103.208 88.9654 75.565 109.229 75.565 109.229C75.565 109.229 104.217 112.671 109.663 117.939Z" fill="black"/>
<path opacity="0.05" d="M118.538 124.838C118.538 124.838 130.994 117.441 130.829 105.537L118.538 124.838Z" fill="black"/>
<path opacity="0.05" d="M111.882 131.92C111.882 131.92 108.452 136.783 101.997 136.581L111.882 131.92Z" fill="black"/>
<path opacity="0.05" d="M146.176 134.351C146.176 134.351 119.748 165.151 120.152 160.688C120.27 159.391 118.781 156.808 116.607 153.803C131.245 148.76 139.191 136.18 142.165 130.425C144.457 132.87 146.176 134.351 146.176 134.351Z" fill="black"/>
<path d="M153.352 139.966C153.351 140.025 153.345 140.084 153.333 140.142C152.926 142.193 152.624 144.261 152.291 146.329C152.187 146.986 152.029 147.633 151.818 148.264C151.238 149.943 150.371 151.509 149.258 152.891C141.222 163.119 120.757 168.392 120.757 168.392L120.682 168.28L111.882 155.626C135.081 151.17 144.157 127.868 144.157 127.868C144.332 131.759 151.269 137.808 153.033 139.285C153.132 139.369 153.211 139.473 153.266 139.591C153.32 139.708 153.349 139.836 153.349 139.966H153.352Z" fill="#DFE5EE"/>
<path opacity="0.5" d="M121.93 56.6347C116.073 55.8821 115.598 50.8489 116.056 47.207C116.118 47.1857 116.184 47.1643 116.248 47.1477C119.413 47.9478 121.081 51.9766 121.93 56.6347Z" fill="#67AFD0" fill-opacity="0.1"/>
<path opacity="0.05" d="M153.352 139.966C153.351 140.025 153.345 140.084 153.333 140.142C152.926 142.193 152.624 144.261 152.29 146.329C152.187 146.986 152.029 147.633 151.818 148.264L151.319 149.65L150.109 151.666L149.258 152.881C141.222 163.109 120.757 168.382 120.757 168.382L120.682 168.271C121.322 168.005 135.114 162.281 140.628 157.136C145.861 152.257 152.305 141.118 153.226 139.501C153.31 139.642 153.353 139.803 153.352 139.966Z" fill="black"/>
<path d="M108.814 12.6778H67.6681C67.1336 12.6769 66.6042 12.7817 66.11 12.9863C65.6158 13.1909 65.1666 13.4912 64.788 13.8702C64.4094 14.2492 64.1088 14.6993 63.9034 15.195C63.698 15.6906 63.5918 16.222 63.5909 16.7589V107.26C63.5918 107.797 63.698 108.329 63.9034 108.824C64.1088 109.32 64.4094 109.77 64.788 110.149C65.1666 110.528 65.6158 110.828 66.11 111.033C66.6042 111.238 67.1336 111.342 67.6681 111.342H108.814C109.349 111.342 109.878 111.238 110.372 111.033C110.866 110.828 111.316 110.528 111.694 110.149C112.073 109.77 112.373 109.32 112.579 108.824C112.784 108.329 112.89 107.797 112.891 107.26V16.7565C112.889 15.6727 112.458 14.6342 111.693 13.8693C110.929 13.1045 109.893 12.6759 108.814 12.6778Z" fill="url(#paint5_linear)"/>
<path d="M109.913 13.4328H66.5667C65.1308 13.4328 63.9667 14.602 63.9667 16.0443V108.348C63.9667 109.79 65.1308 110.959 66.5667 110.959H109.913C111.349 110.959 112.513 109.79 112.513 108.348V16.0443C112.513 14.602 111.349 13.4328 109.913 13.4328Z" fill="#535461"/>
<path d="M108.939 22.5067H67.5428V101.888H108.939V22.5067Z" fill="#F1F1F4"/>
<path d="M83.3484 18.3472C83.556 18.3472 83.7242 18.1782 83.7242 17.9697C83.7242 17.7613 83.556 17.5922 83.3484 17.5922C83.1409 17.5922 82.9726 17.7613 82.9726 17.9697C82.9726 18.1782 83.1409 18.3472 83.3484 18.3472Z" fill="white"/>
<path d="M93.2733 17.5922H85.4662C85.3357 17.5922 85.2299 17.6985 85.2299 17.8297V18.1098C85.2299 18.2409 85.3357 18.3472 85.4662 18.3472H93.2733C93.4038 18.3472 93.5096 18.2409 93.5096 18.1098V17.8297C93.5096 17.6985 93.4038 17.5922 93.2733 17.5922Z" fill="white"/>
<path d="M88.052 108.315C89.5075 108.315 90.6874 107.129 90.6874 105.667C90.6874 104.205 89.5075 103.02 88.052 103.02C86.5965 103.02 85.4166 104.205 85.4166 105.667C85.4166 107.129 86.5965 108.315 88.052 108.315Z" fill="white"/>
<path d="M61.856 62.0168C61.856 62.0168 56.838 62.0168 56.9515 68.2774C56.9604 69.3248 57.2941 70.3434 57.9063 71.1915C58.5184 72.0395 59.3785 72.6748 60.3669 73.009C61.433 73.3609 62.5943 73.2756 63.598 72.7716C64.687 72.2317 65.5747 71.3551 66.1307 70.2706C66.6866 69.1862 66.8814 67.9511 66.6864 66.7472C66.4914 65.5432 65.9169 64.4339 65.0473 63.5824C64.1778 62.7309 63.0592 62.1821 61.856 62.0168Z" fill="#FFBEC7"/>
<path opacity="0.5" d="M61.856 65.248C61.856 65.248 57.2162 68.491 61.2509 71.3257C61.2485 71.3376 60.8444 65.6635 61.856 65.248Z" fill="#67AFD0" fill-opacity="0.1"/>
<path d="M62.8629 74.3764C62.8629 74.3764 58.0222 75.592 58.8282 81.4679C58.8282 81.4679 59.2324 85.7224 63.468 85.1146C66.3729 84.6967 66.7156 80.8412 66.6471 78.467C66.633 77.6843 66.4051 76.9205 65.9882 76.259C65.5714 75.5975 64.9817 75.0637 64.2834 74.7159C63.8412 74.4974 63.3558 74.3814 62.8629 74.3764Z" fill="#FFBEC7"/>
<path opacity="0.5" d="M62.6596 77.0094C62.6596 77.0094 58.0198 78.8327 62.6596 83.8943C62.6596 83.8991 60.4378 79.0369 62.6596 77.0094Z" fill="#67AFD0" fill-opacity="0.1"/>
<path d="M64.0731 98.6922V103.96C57.2658 99.9718 57.8591 96.045 59.6862 93.3765C60.2809 92.5294 60.9824 91.7633 61.7733 91.0974C62.2435 90.6894 62.7428 90.3164 63.2671 89.9815C63.6948 89.9986 64.1122 90.1182 64.4844 90.3305C65.4456 90.8547 66.1627 91.7381 66.4803 92.7894C66.798 93.8407 66.6906 94.9753 66.1815 95.9477C65.6313 96.9712 64.9192 97.8981 64.0731 98.6922Z" fill="#FFBEC7"/>
<path opacity="0.5" d="M60.6434 96.0569C60.6434 96.0569 60.1187 94.7892 59.6862 93.3742C60.2808 92.527 60.9824 91.7609 61.7732 91.095C63.104 93.2935 60.6434 96.0569 60.6434 96.0569Z" fill="#67AFD0" fill-opacity="0.1"/>
<path opacity="0.05" d="M121.868 73.263C121.868 73.263 116.623 79.139 115.014 79.7467L121.868 73.263Z" fill="black"/>
<path d="M101.685 49.9088H81.831V50.1248C81.4227 48.8725 80.5834 47.8075 79.4636 47.1209C78.3439 46.4343 77.0171 46.1712 75.7216 46.3788C74.4261 46.5864 73.2467 47.2512 72.3953 48.2537C71.5438 49.2562 71.0761 50.5307 71.0761 51.8484C71.0761 53.1662 71.5438 54.4407 72.3953 55.4432C73.2467 56.4457 74.4261 57.1105 75.7216 57.3181C77.0171 57.5257 78.3439 57.2626 79.4636 56.576C80.5834 55.8894 81.4227 54.8244 81.831 53.5721V53.7881H101.685L104.167 51.8603L101.685 49.9088ZM76.5908 56.3189C75.711 56.3189 74.851 56.0569 74.1195 55.5659C73.3879 55.0749 72.8178 54.3771 72.4811 53.5607C72.1444 52.7442 72.0563 51.8459 72.228 50.9791C72.3996 50.1124 72.8233 49.3163 73.4454 48.6914C74.0675 48.0665 74.8601 47.641 75.723 47.4686C76.5859 47.2962 77.4803 47.3847 78.2931 47.7228C79.106 48.061 79.8007 48.6337 80.2895 49.3685C80.7783 50.1032 81.0392 50.9671 81.0392 51.8508C81.0389 52.4373 80.9235 53.0179 80.6998 53.5596C80.4761 54.1013 80.1484 54.5934 79.7353 55.0079C79.3222 55.4223 78.8319 55.751 78.2924 55.9751C77.7529 56.1993 77.1747 56.3145 76.5908 56.3142V56.3189Z" fill="url(#paint6_linear)"/>
<path d="M76.7704 46.3975C75.6952 46.3975 74.6442 46.7177 73.7502 47.3177C72.8562 47.9177 72.1594 48.7705 71.7479 49.7683C71.3365 50.7661 71.2288 51.864 71.4386 52.9232C71.6483 53.9824 72.1661 54.9554 72.9264 55.7191C73.6867 56.4827 74.6553 57.0028 75.7099 57.2135C76.7644 57.4242 77.8575 57.316 78.8508 56.9028C79.8442 56.4895 80.6932 55.7896 81.2906 54.8916C81.8879 53.9936 82.2068 52.9379 82.2068 51.8579C82.2068 50.4097 81.634 49.0208 80.6145 47.9968C79.595 46.9728 78.2122 46.3975 76.7704 46.3975ZM76.7704 47.4516C77.6357 47.4516 78.4816 47.7093 79.2011 48.1922C79.9206 48.675 80.4813 49.3614 80.8125 50.1644C81.1436 50.9674 81.2302 51.8509 81.0614 52.7034C80.8926 53.5558 80.4759 54.3389 79.8641 54.9534C79.2522 55.568 78.4726 55.9866 77.624 56.1561C76.7753 56.3257 75.8956 56.2387 75.0962 55.906C74.2967 55.5734 73.6134 55.0102 73.1327 54.2875C72.652 53.5648 72.3954 52.7152 72.3954 51.8461C72.3938 51.2681 72.5059 50.6955 72.7251 50.1611C72.9443 49.6267 73.2663 49.141 73.6728 48.7318C74.0792 48.3227 74.5621 47.9982 75.0936 47.7769C75.6252 47.5555 76.195 47.4418 76.7704 47.4421" fill="#00DD90"/>
<path d="M101.454 53.7549H81.9232V49.9397H101.454L103.893 51.8579L101.454 53.7549Z" fill="#00DD90"/>
<path d="M101.685 64.3482H81.831V64.5642C81.4227 63.3119 80.5834 62.2468 79.4636 61.5602C78.3439 60.8736 77.0171 60.6105 75.7216 60.8182C74.4261 61.0258 73.2467 61.6905 72.3953 62.693C71.5438 63.6955 71.0761 64.9701 71.0761 66.2878C71.0761 67.6055 71.5438 68.8801 72.3953 69.8826C73.2467 70.8851 74.4261 71.5498 75.7216 71.7575C77.0171 71.9651 78.3439 71.702 79.4636 71.0154C80.5834 70.3288 81.4227 69.2637 81.831 68.0114V68.2275H101.685L104.167 66.2997L101.685 64.3482ZM76.5908 70.7583C75.711 70.7583 74.851 70.4962 74.1195 70.0053C73.3879 69.5143 72.8178 68.8165 72.4811 68.0001C72.1444 67.1836 72.0563 66.2852 72.228 65.4185C72.3996 64.5518 72.8233 63.7556 73.4454 63.1308C74.0675 62.5059 74.8601 62.0803 75.723 61.9079C76.5859 61.7355 77.4803 61.824 78.2931 62.1622C79.106 62.5004 79.8007 63.0731 80.2895 63.8078C80.7783 64.5426 81.0392 65.4065 81.0392 66.2902C81.0389 66.8766 80.9235 67.4573 80.6998 67.999C80.4761 68.5407 80.1484 69.0328 79.7353 69.4472C79.3222 69.8617 78.8319 70.1904 78.2924 70.4145C77.7529 70.6387 77.1747 70.7539 76.5908 70.7535V70.7583Z" fill="url(#paint7_linear)"/>
<path d="M76.7704 60.8369C75.6952 60.8369 74.6442 61.1571 73.7502 61.7571C72.8562 62.3571 72.1594 63.2099 71.7479 64.2077C71.3365 65.2055 71.2288 66.3034 71.4386 67.3626C71.6483 68.4218 72.1661 69.3948 72.9264 70.1585C73.6867 70.9221 74.6553 71.4422 75.7099 71.6529C76.7644 71.8636 77.8575 71.7554 78.8508 71.3421C79.8442 70.9289 80.6932 70.229 81.2906 69.331C81.8879 68.433 82.2068 67.3773 82.2068 66.2973C82.2068 64.8491 81.634 63.4602 80.6145 62.4362C79.595 61.4122 78.2122 60.8369 76.7704 60.8369ZM76.7704 61.891C77.6357 61.891 78.4816 62.1487 79.2011 62.6316C79.9206 63.1144 80.4813 63.8008 80.8125 64.6038C81.1436 65.4067 81.2302 66.2903 81.0614 67.1428C80.8926 67.9952 80.4759 68.7783 79.8641 69.3928C79.2522 70.0074 78.4726 70.4259 77.624 70.5955C76.7753 70.7651 75.8956 70.6781 75.0962 70.3454C74.2967 70.0128 73.6134 69.4496 73.1327 68.7269C72.652 68.0042 72.3954 67.1546 72.3954 66.2855C72.3951 65.7083 72.508 65.1367 72.7278 64.6034C72.9475 64.0701 73.2698 63.5855 73.6761 63.1774C74.0824 62.7693 74.5649 62.4456 75.0958 62.2248C75.6268 62.0041 76.1958 61.8906 76.7704 61.891Z" fill="#FF5288"/>
<path d="M101.454 68.1942H81.9232V64.379H101.454L103.893 66.2973L101.454 68.1942Z" fill="#FF5288"/>
<path d="M82.7741 47.9976L81.9941 47.2047C81.9557 47.1659 81.91 47.1351 81.8597 47.1141C81.8094 47.0932 81.7555 47.0824 81.701 47.0824C81.6465 47.0824 81.5926 47.0932 81.5423 47.1141C81.492 47.1351 81.4464 47.1659 81.4079 47.2047L76.5247 52.0716L74.4589 49.98C74.4204 49.9412 74.3748 49.9105 74.3245 49.8895C74.2742 49.8685 74.2202 49.8577 74.1658 49.8577C74.1113 49.8577 74.0574 49.8685 74.0071 49.8895C73.9568 49.9105 73.9111 49.9412 73.8727 49.98L73.0903 50.7658C73.0517 50.8044 73.0211 50.8503 73.0002 50.9008C72.9793 50.9513 72.9686 51.0055 72.9686 51.0602C72.9686 51.1149 72.9793 51.1691 73.0002 51.2196C73.0211 51.2701 73.0517 51.316 73.0903 51.3546L76.2269 54.5312C76.2653 54.5699 76.311 54.6007 76.3613 54.6217C76.4116 54.6427 76.4655 54.6535 76.5199 54.6535C76.5744 54.6535 76.6283 54.6427 76.6786 54.6217C76.7289 54.6007 76.7746 54.5699 76.813 54.5312L82.7741 48.5959C82.8127 48.5573 82.8433 48.5114 82.8642 48.4609C82.8851 48.4104 82.8959 48.3562 82.8959 48.3015C82.8959 48.2468 82.8851 48.1926 82.8642 48.1421C82.8433 48.0916 82.8127 48.0457 82.7741 48.0071V47.9976Z" fill="url(#paint8_linear)"/>
<path d="M82.5424 47.8979L81.8002 47.1477C81.7262 47.0734 81.6259 47.0317 81.5213 47.0317C81.4168 47.0317 81.3164 47.0734 81.2424 47.1477L76.5908 51.7819L74.6196 49.7853C74.5456 49.7111 74.4452 49.6694 74.3407 49.6694C74.2361 49.6694 74.1358 49.7111 74.0617 49.7853L73.3196 50.5284C73.2457 50.6027 73.2042 50.7035 73.2042 50.8086C73.2042 50.9136 73.2457 51.0144 73.3196 51.0887L76.3072 54.1133C76.3812 54.1876 76.4815 54.2293 76.5861 54.2293C76.6907 54.2293 76.791 54.1876 76.865 54.1133L82.5377 48.4558C82.6116 48.3815 82.6531 48.2807 82.6531 48.1757C82.6531 48.0706 82.6116 47.9698 82.5377 47.8955L82.5424 47.8979Z" fill="#00DD90"/>
</g>
<defs>
<linearGradient id="paint0_linear" x1="115.91" y1="176.917" x2="115.91" y2="46.9459" gradientUnits="userSpaceOnUse">
<stop stop-color="#808080" stop-opacity="0.25"/>
<stop offset="0.54" stop-color="#808080" stop-opacity="0.12"/>
<stop offset="1" stop-color="#808080" stop-opacity="0.1"/>
</linearGradient>
<linearGradient id="paint1_linear" x1="2596.32" y1="5245.21" x2="2596.32" y2="4085.6" gradientUnits="userSpaceOnUse">
<stop stop-color="#808080" stop-opacity="0.25"/>
<stop offset="0.54" stop-color="#808080" stop-opacity="0.12"/>
<stop offset="1" stop-color="#808080" stop-opacity="0.1"/>
</linearGradient>
<linearGradient id="paint2_linear" x1="4146.08" y1="4237.54" x2="4146.08" y2="3690.1" gradientUnits="userSpaceOnUse">
<stop stop-color="#808080" stop-opacity="0.25"/>
<stop offset="0.54" stop-color="#808080" stop-opacity="0.12"/>
<stop offset="1" stop-color="#808080" stop-opacity="0.1"/>
</linearGradient>
<linearGradient id="paint3_linear" x1="3380.2" y1="4658.97" x2="3380.2" y2="4150.96" gradientUnits="userSpaceOnUse">
<stop stop-color="#808080" stop-opacity="0.25"/>
<stop offset="0.54" stop-color="#808080" stop-opacity="0.12"/>
<stop offset="1" stop-color="#808080" stop-opacity="0.1"/>
</linearGradient>
<linearGradient id="paint4_linear" x1="3487.25" y1="7171.43" x2="3487.25" y2="6319.74" gradientUnits="userSpaceOnUse">
<stop stop-color="#808080" stop-opacity="0.25"/>
<stop offset="0.54" stop-color="#808080" stop-opacity="0.12"/>
<stop offset="1" stop-color="#808080" stop-opacity="0.1"/>
</linearGradient>
<linearGradient id="paint5_linear" x1="25730.9" y1="51825" x2="25730.9" y2="10823.3" gradientUnits="userSpaceOnUse">
<stop stop-color="#808080" stop-opacity="0.25"/>
<stop offset="0.54" stop-color="#808080" stop-opacity="0.12"/>
<stop offset="1" stop-color="#808080" stop-opacity="0.1"/>
</linearGradient>
<linearGradient id="paint6_linear" x1="17212.6" y1="3346.24" x2="17212.6" y2="2829.24" gradientUnits="userSpaceOnUse">
<stop stop-color="#808080" stop-opacity="0.25"/>
<stop offset="0.54" stop-color="#808080" stop-opacity="0.12"/>
<stop offset="1" stop-color="#808080" stop-opacity="0.1"/>
</linearGradient>
<linearGradient id="paint7_linear" x1="17212.6" y1="4034.43" x2="17212.6" y2="3517.43" gradientUnits="userSpaceOnUse">
<stop stop-color="#808080" stop-opacity="0.25"/>
<stop offset="0.54" stop-color="#808080" stop-opacity="0.12"/>
<stop offset="1" stop-color="#808080" stop-opacity="0.1"/>
</linearGradient>
<linearGradient id="paint8_linear" x1="4808.38" y1="2215.07" x2="4808.38" y2="1973.93" gradientUnits="userSpaceOnUse">
<stop stop-color="#808080" stop-opacity="0.25"/>
<stop offset="0.54" stop-color="#808080" stop-opacity="0.12"/>
<stop offset="1" stop-color="#808080" stop-opacity="0.1"/>
</linearGradient>
<clipPath id="clip0">
<rect width="214" height="187" fill="white"/>
</clipPath>
</defs>
</svg>
