<svg width="226" height="167" viewBox="0 0 226 167" fill="none" xmlns="http://www.w3.org/2000/svg">
<g clip-path="url(#clip0)">
<path d="M162.632 99.0703L164.41 97.9762C164.579 97.8694 164.745 97.7554 164.917 97.6486C161.104 96.9947 157.629 95.062 155.067 92.1702C152.506 89.2785 151.012 85.6013 150.832 81.7473C150.701 79.0967 151.203 76.453 152.298 74.0339C153.317 71.7705 154.821 69.7576 156.705 68.137C158.589 66.5164 160.806 65.3276 163.201 64.6545L163.113 71.6321L166.956 64.0374C166.972 64.0349 166.988 64.0349 167.004 64.0374C169.231 63.9337 171.457 64.2685 173.555 65.0227C175.653 65.777 177.581 66.9358 179.229 68.4331C180.878 69.9304 182.214 71.7369 183.163 73.7493C184.111 75.7617 184.653 77.9407 184.757 80.1619C184.771 80.4847 184.757 80.8027 184.757 81.1112C186.094 79.5899 187.308 77.9594 188.112 76.1723C189.74 72.553 189.778 68.4542 189.643 63.4726C189.386 53.5995 188.96 43.6528 188.403 33.7346C184.389 33.2902 180.667 31.4332 177.903 28.4973C175.14 25.5614 173.516 21.7391 173.325 17.717C173.301 17.1972 173.309 16.6869 173.325 16.179C173.325 16.0533 173.325 15.9251 173.344 15.7993C173.378 15.308 173.423 14.8215 173.499 14.3421C173.499 14.2614 173.528 14.1854 173.542 14.1047C173.612 13.6981 173.695 13.2962 173.792 12.8991C173.83 12.7519 173.866 12.6024 173.906 12.4553C174.025 12.0233 174.144 11.5985 174.308 11.1784C174.358 11.0384 174.418 10.9031 174.47 10.7655C174.591 10.4569 174.722 10.1531 174.86 9.85172C174.934 9.69271 175.006 9.53607 175.084 9.37705C175.103 9.33671 175.12 9.29636 175.141 9.25601C176.933 5.72647 179.909 2.9347 183.551 1.36596C187.193 -0.202785 191.271 -0.449296 195.076 0.669272L194.962 9.74967L198.77 2.24992C201.894 4.03282 204.364 6.7649 205.82 10.0471C207.275 13.3294 207.641 16.9898 206.862 20.4938H206.881C206.855 20.6148 206.817 20.7311 206.788 20.8498C206.736 21.0729 206.679 21.2936 206.617 21.5143C206.536 21.7967 206.446 22.0744 206.353 22.3521C206.281 22.5586 206.212 22.7698 206.134 22.9739C206.02 23.273 205.896 23.5649 205.758 23.8568C205.682 24.0277 205.613 24.2009 205.52 24.3694C205.303 24.8061 205.064 25.2333 204.806 25.651C204.718 25.7958 204.618 25.9335 204.525 26.0782C204.344 26.3583 204.161 26.636 203.963 26.9065C203.842 27.0727 203.711 27.2317 203.583 27.3954C203.397 27.6328 203.206 27.8701 203.009 28.0861C202.869 28.2451 202.726 28.4017 202.578 28.5608C202.371 28.7791 202.157 28.9903 201.936 29.1992C201.79 29.3392 201.643 29.4792 201.49 29.6121C201.241 29.8329 200.979 30.0441 200.715 30.2506C200.581 30.355 200.453 30.4642 200.315 30.5638C199.913 30.8613 199.498 31.1406 199.07 31.4016C198.989 31.4491 198.903 31.4894 198.832 31.5369C198.475 31.7481 198.118 31.9451 197.735 32.1302C197.575 32.2086 197.409 32.2774 197.245 32.351C196.938 32.4886 196.628 32.6215 196.312 32.7426C196.128 32.8114 195.94 32.8755 195.752 32.9396C195.44 33.0464 195.124 33.1437 194.8 33.2315C194.61 33.2837 194.422 33.3359 194.229 33.381C193.882 33.4641 193.527 33.5329 193.17 33.5922C193.146 33.5922 193.125 33.5922 193.101 33.6065C193.336 37.7899 193.544 41.9757 193.727 46.1638C194.739 44.0915 196.165 42.2472 197.918 40.7442C199.671 39.2412 201.713 38.1112 203.919 37.4233C206.126 36.7355 208.45 36.5045 210.749 36.7443C213.048 36.9842 215.273 37.69 217.289 38.8183L214.288 47.0182L220.462 41.1062C223.767 44.1269 225.735 48.3313 225.936 52.7973C226.014 54.3643 225.869 55.9345 225.505 57.4609C224.729 60.764 222.976 63.7584 220.473 66.0557C217.97 68.353 214.832 69.8471 211.467 70.3442C208.102 70.8413 204.664 70.3184 201.601 68.8434C198.537 67.3684 195.989 65.0093 194.286 62.0723C194.286 62.4971 194.317 62.9243 194.329 63.3492C194.441 67.7446 194.581 73.2127 192.385 78.0971C190.897 81.4079 188.5 84.0969 186.132 86.5058C184.592 88.0746 182.995 89.5912 181.358 91.0603C179.748 93.2161 177.646 94.9587 175.227 96.144C172.538 98.2103 169.753 100.145 166.873 101.949L165.124 103.074C163.508 104.073 161.851 105.099 160.226 106.159C160.511 106.131 160.794 106.1 161.085 106.088C164.683 105.92 168.242 106.897 171.247 108.878C174.252 110.859 176.547 113.741 177.802 117.108L167.192 125.721L178.854 123.022C178.851 125.885 178.12 128.701 176.73 131.206C175.339 133.711 173.335 135.824 170.903 137.347C168.472 138.87 165.693 139.753 162.827 139.915C159.96 140.076 157.099 139.511 154.511 138.271C154.773 138.598 155.037 138.923 155.299 139.249C155.82 139.896 156.339 140.54 156.846 141.178C163.748 149.895 165.671 158.174 162.251 164.484L158.095 162.244C161.428 156.102 156.429 148.241 153.138 144.097C152.64 143.471 152.131 142.839 151.617 142.199C147.207 136.74 142.209 130.541 142.335 122.944C142.513 111.504 153.673 104.605 162.632 99.0703Z" fill="#F2F2F2"/>
<path d="M195.993 160.158C196.707 158.85 195.897 157.248 194.974 156.08C194.051 154.913 192.925 153.707 192.949 152.214C192.982 150.078 195.255 148.818 197.073 147.686C198.42 146.845 199.662 145.848 200.774 144.717C201.241 144.281 201.627 143.767 201.914 143.198C202.288 142.362 202.278 141.413 202.255 140.497C202.175 137.45 202.024 134.405 201.802 131.364" stroke="#3F3D56" stroke-width="4" stroke-miterlimit="10"/>
<path d="M205.256 131.203C205.229 130.645 205.063 130.103 204.772 129.626C204.481 129.15 204.074 128.753 203.59 128.474L202.842 129.95L202.864 128.165C202.353 128.012 201.812 127.984 201.288 128.083C200.764 128.182 200.271 128.405 199.851 128.734C199.431 129.062 199.096 129.486 198.875 129.97C198.654 130.455 198.553 130.985 198.58 131.516C198.621 132.397 199.012 133.226 199.667 133.82C199.991 134.114 200.37 134.341 200.782 134.489C201.194 134.637 201.631 134.703 202.069 134.682C202.506 134.662 202.936 134.555 203.332 134.369C203.728 134.183 204.084 133.921 204.379 133.598C204.674 133.275 204.902 132.897 205.05 132.486C205.199 132.075 205.264 131.639 205.244 131.203H205.256Z" fill="#57B793"/>
<path d="M199.299 153.75C198.949 154.427 198.376 154.964 197.676 155.271C196.977 155.577 196.193 155.635 195.456 155.433C194.719 155.232 194.074 154.784 193.628 154.165C193.183 153.546 192.965 152.793 193.01 152.032C193.055 151.271 193.361 150.549 193.877 149.987C194.392 149.425 195.086 149.056 195.842 148.943C196.597 148.83 197.369 148.979 198.028 149.366C198.686 149.753 199.191 150.354 199.458 151.068L197.373 152.76L199.667 152.228C199.668 152.757 199.541 153.279 199.299 153.75Z" fill="#57B793"/>
<path d="M197.649 147.273C197.211 147.294 196.773 147.228 196.36 147.08C195.947 146.932 195.568 146.704 195.244 146.409C194.919 146.114 194.657 145.758 194.471 145.362C194.285 144.966 194.179 144.537 194.16 144.1C194.133 143.579 194.232 143.059 194.448 142.583C194.648 142.138 194.943 141.742 195.313 141.423C195.684 141.104 196.119 140.87 196.59 140.737L196.573 142.111L197.33 140.616C198.215 140.574 199.081 140.886 199.736 141.481C200.391 142.076 200.783 142.906 200.824 143.789C200.865 144.672 200.553 145.535 199.957 146.188C199.36 146.841 198.527 147.232 197.642 147.273H197.649Z" fill="#57B793"/>
<path d="M205.758 141.883C204.874 141.924 204.01 141.614 203.356 141.02C202.701 140.427 202.31 139.598 202.269 138.717C202.227 137.836 202.538 136.974 203.134 136.322C203.729 135.669 204.56 135.279 205.444 135.238C206.068 135.207 206.689 135.353 207.233 135.66L206.643 137.274L207.857 136.111C208.508 136.705 208.897 137.532 208.938 138.411C208.953 138.719 208.924 139.027 208.852 139.327C208.685 140.031 208.293 140.661 207.735 141.122C207.176 141.584 206.482 141.851 205.758 141.883Z" fill="#57B793"/>
<path opacity="0.1" d="M204.806 132.081C204.035 132.166 203.285 132.406 202.511 132.454C201.738 132.501 200.888 132.316 200.398 131.716C200.134 131.393 200.003 130.985 199.779 130.633C199.568 130.305 199.28 130.034 198.939 129.843C198.738 130.263 198.627 130.721 198.614 131.186C198.601 131.652 198.687 132.115 198.865 132.545C199.043 132.976 199.31 133.364 199.649 133.685C199.987 134.006 200.39 134.252 200.83 134.408C201.27 134.564 201.738 134.626 202.203 134.59C202.669 134.553 203.122 134.42 203.532 134.198C203.943 133.976 204.302 133.671 204.587 133.302C204.871 132.932 205.075 132.508 205.184 132.055C205.056 132.06 204.93 132.069 204.806 132.081Z" fill="black"/>
<path opacity="0.1" d="M205.758 141.883C205.182 141.912 204.608 141.792 204.093 141.533C203.577 141.275 203.138 140.888 202.818 140.409C202.497 139.931 202.307 139.378 202.266 138.804C202.224 138.23 202.333 137.656 202.581 137.136C202.846 137.315 203.074 137.543 203.252 137.808C203.49 138.166 203.632 138.579 203.913 138.909C204.432 139.519 205.322 139.718 206.129 139.68C206.936 139.642 207.712 139.417 208.509 139.343C208.619 139.343 208.733 139.324 208.845 139.322C208.679 140.026 208.289 140.656 207.732 141.118C207.175 141.58 206.482 141.849 205.758 141.883Z" fill="black"/>
<path opacity="0.1" d="M197.649 147.273C197.211 147.294 196.773 147.228 196.36 147.08C195.947 146.932 195.568 146.704 195.244 146.409C194.919 146.114 194.657 145.758 194.471 145.362C194.285 144.966 194.179 144.537 194.16 144.1C194.133 143.578 194.232 143.058 194.448 142.583C194.725 142.764 194.967 142.993 195.162 143.259C195.421 143.625 195.583 144.045 195.876 144.382C196.44 145.009 197.387 145.229 198.242 145.208C199.096 145.187 199.865 144.987 200.688 144.926C200.485 145.581 200.084 146.158 199.54 146.578C198.997 146.998 198.336 147.24 197.649 147.273Z" fill="black"/>
<path opacity="0.1" d="M199.299 153.75C199.119 154.148 198.862 154.508 198.543 154.808C198.224 155.108 197.849 155.342 197.439 155.497C197.029 155.652 196.593 155.726 196.154 155.713C195.716 155.7 195.285 155.601 194.885 155.422C194.485 155.242 194.124 154.986 193.824 154.668C193.523 154.35 193.288 153.976 193.132 153.567C192.977 153.159 192.903 152.723 192.916 152.286C192.929 151.849 193.028 151.419 193.208 151.02C193.482 151.202 193.729 151.422 193.941 151.673C194.258 152.06 194.467 152.496 194.836 152.86C195.519 153.527 196.621 153.809 197.602 153.828C198.168 153.835 198.735 153.809 199.299 153.75Z" fill="black"/>
<path d="M190.956 158.651C190.956 158.651 193.591 158.57 194.386 158.005C195.181 157.44 198.432 156.766 198.639 157.673C198.846 158.579 202.602 162.182 199.624 162.196C196.647 162.211 192.708 161.722 191.916 161.247C191.123 160.772 190.956 158.651 190.956 158.651Z" fill="#656380"/>
<path opacity="0.2" d="M199.677 161.881C196.702 161.904 192.76 161.406 191.968 160.931C191.366 160.566 191.123 159.249 191.044 158.641H190.956C190.956 158.641 191.123 160.761 191.908 161.252C192.694 161.743 196.64 162.22 199.617 162.201C200.477 162.201 200.774 161.888 200.757 161.437C200.646 161.705 200.317 161.876 199.677 161.881Z" fill="black"/>
<path d="M46.27 152.836C44.5421 149.646 46.508 145.74 48.7547 142.896C51.0015 140.053 53.7528 137.096 53.6933 133.472C53.6076 128.265 48.0669 125.191 43.6401 122.431C40.3552 120.383 37.3249 117.954 34.6126 115.195C33.525 114.086 32.4706 112.904 31.8375 111.49C30.9236 109.454 30.9474 107.14 31.0069 104.909C31.1973 97.4722 31.5654 90.05 32.1112 82.642" stroke="#3F3D56" stroke-width="4" stroke-miterlimit="10"/>
<path d="M23.6931 82.2362C23.7583 80.8777 24.1647 79.5572 24.875 78.3961C25.5852 77.2349 26.5767 76.2703 27.7582 75.5909L29.5813 79.1865L29.5265 74.8338C31.1828 74.3471 32.9513 74.3979 34.5767 74.9789C36.2021 75.5598 37.6003 76.6409 38.5693 78.066C39.5384 79.491 40.0282 81.1863 39.9681 82.9071C39.908 84.6278 39.3009 86.285 38.2347 87.6393C37.1685 88.9936 35.6982 89.975 34.0362 90.4417C32.3742 90.9084 30.6064 90.8363 28.9882 90.2358C27.3699 89.6353 25.985 88.5375 25.0332 87.1009C24.0814 85.6643 23.6121 83.9632 23.6931 82.2433V82.2362Z" fill="#57B793"/>
<path d="M38.216 137.193C39.0348 138.784 40.3576 140.061 41.979 140.826C43.6003 141.59 45.4295 141.799 47.1822 141.42C48.935 141.041 50.5132 140.096 51.6716 138.731C52.8301 137.366 53.504 135.657 53.5886 133.871C53.6454 132.748 53.4646 131.625 53.0578 130.576C52.4632 129.038 51.4132 127.717 50.0474 126.788C48.6815 125.859 47.0646 125.367 45.4114 125.376C43.7582 125.386 42.147 125.897 40.792 126.841C39.4371 127.786 38.4024 129.119 37.8257 130.664L42.9118 134.789L37.3164 133.491C37.314 134.779 37.6226 136.049 38.216 137.193Z" fill="#57B793"/>
<path d="M42.2359 121.43C44.2326 121.521 46.1932 120.876 47.7444 119.619C49.2956 118.362 50.329 116.58 50.648 114.612C50.9669 112.645 50.5492 110.629 49.4742 108.948C48.3992 107.268 46.742 106.041 44.8182 105.5L44.8611 108.844L43.0284 105.205H43.007C40.8492 105.105 38.7397 105.863 37.1427 107.314C35.5457 108.765 34.592 110.788 34.4913 112.94C34.3906 115.092 35.1512 117.195 36.6059 118.788C38.0605 120.38 40.09 121.331 42.2478 121.432L42.2359 121.43Z" fill="#57B793"/>
<path d="M22.4675 108.312C23.7282 108.373 24.986 108.141 26.1415 107.635C27.297 107.128 28.3186 106.361 29.1257 105.393C29.9328 104.425 30.5033 103.284 30.7921 102.059C31.081 100.833 31.0803 99.5578 30.79 98.3328C30.4998 97.1078 29.9281 95.9669 29.1199 95C28.3117 94.0332 27.2892 93.2669 26.1331 92.7616C24.977 92.2564 23.719 92.026 22.4583 92.0886C21.1976 92.1513 19.9688 92.5053 18.8689 93.1227L20.2969 97.0553L17.348 94.2144C16.5597 94.9298 15.9206 95.7931 15.4673 96.755C15.014 97.7169 14.7554 98.7585 14.7062 99.8203C14.6684 100.572 14.7381 101.324 14.9133 102.056C15.3181 103.776 16.2748 105.318 17.6382 106.447C19.0015 107.576 20.6971 108.231 22.4675 108.312Z" fill="#57B793"/>
<path opacity="0.1" d="M24.788 84.4007C26.6682 84.6072 28.496 85.1886 30.381 85.3049C32.266 85.4212 34.339 84.9727 35.5314 83.5107C36.174 82.7227 36.4953 81.7259 37.0379 80.8668C37.5521 80.0663 38.2569 79.405 39.0895 78.942C39.608 79.9712 39.901 81.0985 39.9492 82.2492C39.9973 83.4 39.7995 84.5477 39.3688 85.6164C38.9381 86.685 38.2844 87.6501 37.4511 88.4476C36.6178 89.245 35.6239 89.8566 34.5354 90.2418C33.4469 90.6269 32.2888 90.7768 31.1378 90.6815C29.9868 90.5862 28.8693 90.2479 27.8594 89.6889C26.8496 89.13 25.9705 88.3633 25.2805 87.4397C24.5905 86.5161 24.1054 85.4567 23.8574 84.3319C24.1739 84.3461 24.4833 84.3675 24.788 84.4007Z" fill="black"/>
<path opacity="0.1" d="M22.4675 108.312C23.8708 108.377 25.2671 108.078 26.5207 107.446C27.7743 106.814 28.8427 105.869 29.6223 104.704C30.4018 103.538 30.866 102.192 30.9698 100.795C31.0735 99.3975 30.8133 97.9974 30.2144 96.7302C29.5679 97.1637 29.0118 97.7183 28.577 98.363C27.9963 99.2364 27.6464 100.245 26.9633 101.047C25.6948 102.533 23.529 103.02 21.5631 102.932C19.5972 102.844 17.7003 102.284 15.7439 102.106C15.4726 102.082 15.1965 102.063 14.9228 102.056C15.3271 103.775 16.2824 105.316 17.6439 106.445C19.0054 107.574 20.6988 108.229 22.4675 108.312Z" fill="black"/>
<path opacity="0.1" d="M42.2359 121.43C43.6255 121.495 45.0087 121.204 46.2535 120.584C47.4983 119.965 48.5632 119.037 49.3465 117.891C50.1298 116.744 50.6055 115.417 50.7282 114.035C50.8508 112.653 50.6163 111.263 50.0471 109.997C49.3765 110.441 48.7933 111.004 48.3264 111.658C47.6933 112.548 47.2982 113.574 46.558 114.395C45.1847 115.921 42.8761 116.46 40.7936 116.41C38.7777 116.367 36.8356 115.874 34.8316 115.719C35.3277 117.314 36.3047 118.718 37.6296 119.74C38.9544 120.762 40.5628 121.352 42.2359 121.43Z" fill="black"/>
<path opacity="0.1" d="M38.216 137.193C39.0348 138.784 40.3576 140.061 41.979 140.826C43.6003 141.59 45.4295 141.799 47.1822 141.42C48.935 141.041 50.5132 140.096 51.6716 138.731C52.8301 137.366 53.504 135.657 53.5886 133.871C53.6454 132.748 53.4646 131.625 53.0578 130.576C52.3878 131.015 51.7863 131.55 51.2728 132.164C50.4993 133.113 49.9876 134.172 49.0927 135.05C47.4267 136.678 44.7397 137.352 42.3477 137.423C40.9671 137.428 39.5875 137.351 38.216 137.193Z" fill="black"/>
<path d="M102.631 157.578L71.2151 163.986L70.5011 163.915L42.8928 161.138V126.25L76.6892 120.554L101.203 123.402L101.211 123.556L101.213 123.632L102.631 157.578Z" fill="#67AFD0"/>
<path opacity="0.1" d="M102.631 157.578L71.2151 163.986L70.5011 163.915V128.148L101.211 123.556L102.631 157.578Z" fill="black"/>
<path opacity="0.05" d="M101.213 123.632L101.203 123.639L70.5011 128.148L42.8928 126.25L76.6892 120.554L101.203 123.402L101.211 123.556L101.213 123.632Z" fill="black"/>
<path d="M137.142 159.002L105.726 165.41L105.011 165.339L77.4032 162.562V127.674L111.2 121.978L135.714 124.826L135.721 124.98L135.723 125.056L137.142 159.002Z" fill="#FF6584"/>
<path opacity="0.1" d="M137.142 159.002L105.725 165.41L105.011 165.339V129.572L135.721 124.98L137.142 159.002Z" fill="#FF6584"/>
<path opacity="0.05" d="M135.723 125.056L135.714 125.063L105.011 129.572L77.4032 127.674L111.2 121.978L135.714 124.826L135.721 124.98L135.723 125.056Z" fill="black"/>
<path d="M115.484 124.826L84.0672 131.234L83.3532 131.163L55.7449 128.386V93.4977L89.5413 87.8017L114.056 90.6497L114.063 90.804L114.065 90.8799L115.484 124.826Z" fill="#FF6584"/>
<path opacity="0.1" d="M115.484 124.826L84.0673 131.234L83.3533 131.163V95.3964L114.063 90.804L115.484 124.826Z" fill="black"/>
<path opacity="0.05" d="M114.065 90.8799L114.056 90.887L83.3532 95.3964L55.7449 93.4977L89.5413 87.8017L114.056 90.6497L114.063 90.804L114.065 90.8799Z" fill="black"/>
<path d="M133.334 126.288L116.938 129.634L116.564 129.596L102.155 128.146V109.938L119.794 106.964L132.589 108.452L132.594 108.533V108.571L133.334 126.288Z" fill="#3F3D56"/>
<path opacity="0.1" d="M133.334 126.288L116.938 129.634L116.564 129.596V110.93L132.594 108.533L133.334 126.288Z" fill="black"/>
<path opacity="0.05" d="M132.594 108.571L132.589 108.576L116.564 110.93L102.155 109.938L119.794 106.964L132.589 108.452L132.594 108.533V108.571Z" fill="black"/>
<path d="M89.3033 90.925L72.9073 94.269L72.5337 94.2334L58.125 92.7833V74.5751L75.7634 71.6013L88.5584 73.0893L88.5631 73.17V73.208L89.3033 90.925Z" fill="#3F3D56"/>
<path opacity="0.1" d="M89.3033 90.925L72.9073 94.269L72.5336 94.2334V75.5671L88.5631 73.17L89.3033 90.925Z" fill="black"/>
<path opacity="0.05" d="M88.5631 73.208L88.5584 73.2128L72.5337 75.5671L58.125 74.575L75.7634 71.6013L88.5584 73.0893L88.5631 73.17V73.208Z" fill="black"/>
<path d="M118.102 90.213L101.706 93.557L101.332 93.5214L86.9233 92.0713V73.8631L104.562 70.8893L117.357 72.3773L117.361 72.458V72.496L118.102 90.213Z" fill="#67AFD0"/>
<path opacity="0.1" d="M118.102 90.213L101.706 93.557L101.332 93.5214V74.8551L117.361 72.458L118.102 90.213Z" fill="black"/>
<path opacity="0.05" d="M117.361 72.496L117.357 72.5008L101.332 74.8551L86.9233 73.8631L104.562 70.8893L117.357 72.3773L117.361 72.458V72.496Z" fill="black"/>
<path d="M126.67 71.9383L110.274 75.2823L109.9 75.2467L95.4913 73.7966V55.5883L113.13 52.6145L125.925 54.1026L125.929 54.1833V54.2213L126.67 71.9383Z" fill="#3F3D56"/>
<path opacity="0.1" d="M126.67 71.9383L110.274 75.2823L109.9 75.2467V56.5804L125.929 54.1833L126.67 71.9383Z" fill="black"/>
<path opacity="0.05" d="M125.929 54.2213L125.925 54.226L109.9 56.5804L95.4913 55.5883L113.13 52.6145L125.925 54.1026L125.929 54.1833V54.2213Z" fill="black"/>
<path d="M137.837 34.7148C137.663 36.2575 136.483 37.5011 136.045 38.9868C135.388 41.2296 136.521 43.6386 138.082 45.3948C139.34 46.7903 140.864 47.9229 142.564 48.7271C144.264 49.5313 146.108 49.9911 147.988 50.0798C148.54 50.1272 149.096 50.0667 149.625 49.9018C150.096 49.7106 150.521 49.4209 150.87 49.0522C152.041 47.8774 152.671 46.2516 152.921 44.6116C153.171 42.9717 153.076 41.3032 152.978 39.649C152.978 39.3066 152.915 38.9672 152.793 38.6474C152.634 38.3433 152.414 38.0745 152.148 37.8571C151.304 37.0835 150.373 36.4091 149.375 35.8469C148.947 35.6096 148.487 35.3722 148.214 34.9616C148.026 34.6347 147.904 34.2743 147.854 33.9008L147.547 32.3439C147.493 31.895 147.339 31.4637 147.097 31.0812C146.557 30.355 145.522 30.2553 144.615 30.2197L141.283 30.0892C140.248 30.0488 138.886 29.7522 137.875 29.9563C136.923 30.1438 137.244 31.0124 137.416 31.8004C137.663 32.7534 137.805 33.7308 137.837 34.7148Z" fill="#FFC0C6"/>
<path opacity="0.1" d="M137.837 34.7148C137.663 36.2575 136.483 37.5011 136.045 38.9868C135.388 41.2296 136.521 43.6386 138.082 45.3948C139.34 46.7903 140.864 47.9229 142.564 48.7271C144.264 49.5313 146.108 49.9911 147.988 50.0798C148.54 50.1272 149.096 50.0667 149.625 49.9018C150.096 49.7106 150.521 49.4209 150.87 49.0522C152.041 47.8774 152.671 46.2516 152.921 44.6116C153.171 42.9717 153.076 41.3032 152.978 39.649C152.978 39.3066 152.915 38.9672 152.793 38.6474C152.634 38.3433 152.414 38.0745 152.148 37.8571C151.304 37.0835 150.373 36.4091 149.375 35.8469C148.947 35.6096 148.487 35.3722 148.214 34.9616C148.026 34.6347 147.904 34.2743 147.854 33.9008L147.547 32.3439C147.493 31.895 147.339 31.4637 147.097 31.0812C146.557 30.355 145.522 30.2553 144.615 30.2197L141.283 30.0892C140.248 30.0488 138.886 29.7522 137.875 29.9563C136.923 30.1438 137.244 31.0124 137.416 31.8004C137.663 32.7534 137.805 33.7308 137.837 34.7148Z" fill="black"/>
<path d="M158.998 104.197L157.584 119.652C157.215 123.706 156.839 127.776 156.115 131.777C155.877 133.156 155.573 134.528 155.225 135.888C154.259 139.664 152.857 143.354 152.405 147.225C152.391 147.337 152.379 147.463 152.367 147.565C152.274 148.419 152.193 149.283 151.891 150.08C151.653 150.671 151.317 151.21 151.072 151.794C150.596 152.962 150.52 154.253 150.46 155.518C148.745 154.552 146.866 153.908 144.917 153.619C143.965 153.479 142.93 153.382 142.299 152.67C141.585 151.896 141.669 150.712 141.788 149.672C142.162 146.445 142.535 143.218 142.906 139.994C143.03 138.606 143.269 137.231 143.62 135.883C143.749 135.435 143.904 134.993 144.061 134.552C144.277 133.944 144.496 133.337 144.66 132.712C144.888 131.709 145.046 130.692 145.132 129.667C145.515 126.421 145.977 123.181 146.381 119.937L146.403 119.766C147.009 114.848 147.471 109.907 147.338 104.954C147.319 104.22 147.288 103.487 147.24 102.751C147.174 101.686 147.076 101.121 147.954 100.454C148.933 99.7182 150.22 99.2032 151.339 98.7214C151.941 98.4603 158.572 96.1107 158.717 96.6281C159.025 97.7271 159.185 98.8619 159.193 100.003C159.206 101.403 159.141 102.803 158.998 104.197Z" fill="#605D82"/>
<path opacity="0.1" d="M156.115 131.777C155.877 133.156 155.573 134.528 155.225 135.888C154.259 139.664 152.857 143.354 152.405 147.225C152.391 147.337 152.379 147.463 152.367 147.565C149.411 143.354 146.921 138.826 144.037 134.571C144.253 133.963 144.472 133.356 144.636 132.731C144.873 131.723 145.039 130.699 145.132 129.667C145.515 126.421 145.976 123.181 146.381 119.937L146.402 119.766C146.569 120.454 146.809 121.123 147.116 121.762C149.054 125.687 153.657 127.671 155.908 131.428C155.983 131.545 156.052 131.662 156.115 131.777Z" fill="black"/>
<path d="M132.129 97.2642C132.227 100.411 132.732 103.532 133.236 106.641L134.276 113.049C134.845 116.562 135.44 120.143 137.106 123.288C138.353 125.642 140.148 127.65 141.773 129.76C145.767 134.948 148.768 140.827 152.555 146.167C153.657 147.719 155.23 149.399 157.108 149.074C158.341 148.863 159.236 147.838 160.202 147.05C161.344 146.119 162.72 145.438 163.62 144.271C164.519 143.103 164.695 141.166 163.477 140.336C163.06 140.053 162.553 139.946 162.082 139.766C160.195 139.054 158.971 137.212 158.195 135.352C157.42 133.491 156.946 131.495 155.911 129.765C153.659 126.008 149.054 124.024 147.116 120.096C146.031 117.898 145.926 115.349 145.845 112.912L145.634 106.667C145.61 105.984 145.593 105.274 145.872 104.65C146.612 102.989 148.849 102.832 150.663 102.621C152.719 102.381 154.712 101.755 156.534 100.774C157.579 100.212 158.598 99.4951 159.152 98.4509C159.662 97.5015 159.731 96.3837 159.79 95.3062L160.418 83.9877C160.473 83.0147 160.521 82.006 160.18 81.0946C159.316 78.802 156.413 78.052 153.959 78.1612C149.394 78.3653 145.181 80.3233 140.869 81.6476C139.8 81.9751 138.727 82.2694 137.625 82.4902C136.673 82.6824 135.483 82.6041 134.569 82.9126C132.931 83.4632 132.972 87.0375 132.741 88.5184C132.265 91.4084 132.06 94.3363 132.129 97.2642Z" fill="#605D82"/>
<path d="M156.489 149.554C156.891 149.959 157.022 150.553 157.127 151.113C157.709 154.221 158.011 157.375 158.031 160.537C158.005 160.832 158.064 161.129 158.2 161.392C158.314 161.548 158.468 161.671 158.645 161.748C159.809 162.301 161.159 161.529 162.13 160.682C163.927 159.113 165.447 157.006 165.55 154.625C165.576 154.013 165.507 153.394 165.614 152.788C165.771 151.891 166.297 151.111 166.759 150.327C167.549 148.992 168.187 147.574 168.663 146.098C168.839 145.543 168.958 144.845 168.52 144.458C168.367 144.336 168.191 144.245 168.004 144.19L162.744 142.244C162.287 142.075 161.154 144.978 160.975 145.296C160.535 146.072 160.097 146.511 159.214 146.691C158.331 146.872 157.241 146.611 156.399 147.059C154.971 147.816 155.682 148.744 156.489 149.554Z" fill="#535070"/>
<path d="M148.378 151.345C148.28 151.152 148.144 150.98 147.978 150.84C147.735 150.686 147.458 150.592 147.171 150.567C146.171 150.396 144.986 150.285 144.294 151.027C143.646 151.723 143.758 152.855 143.218 153.638C143.047 153.875 142.813 154.089 142.666 154.35C142.482 154.75 142.401 155.188 142.428 155.627C142.399 156.835 142.371 158.048 142.456 159.253C142.525 160.264 142.694 161.325 143.33 162.118C144.348 163.39 146.186 163.573 147.814 163.654L149.135 163.722C149.498 163.765 149.866 163.731 150.215 163.623C150.432 163.523 150.626 163.382 150.786 163.206C150.946 163.03 151.07 162.824 151.148 162.6C151.836 160.896 150.748 159.061 150.077 157.352C149.304 155.385 149.442 153.204 148.378 151.345Z" fill="#535070"/>
<path d="M137.456 26.0165C137.439 25.8438 137.464 25.6695 137.53 25.5086C137.722 25.1692 138.227 25.2713 138.608 25.3567C140.138 25.7412 141.752 25.3923 143.33 25.4825C144.908 25.5727 146.683 26.3583 147 27.901C148.145 27.0931 149.131 26.0827 149.911 24.92C150.348 24.2674 150.729 23.5198 150.67 22.7366C150.584 21.6069 149.634 20.762 148.766 20.0452L146.148 17.9092C145.803 17.5937 145.405 17.3415 144.972 17.164C144.367 16.9575 143.706 17.0572 143.068 17.0572C141.164 17.0572 139.122 16.1909 137.425 17.0572C136.711 17.4203 136.18 18.0445 135.666 18.6521L133.327 21.4146C133.149 21.5907 133.02 21.8088 132.951 22.0483C132.884 22.3853 133.058 22.7176 133.12 23.057C133.229 23.674 132.962 24.3338 133.167 24.9272C133.507 25.9097 134.707 26.0498 135.44 26.6146C135.711 26.8235 136.14 27.5378 136.466 27.5283C137.039 27.5165 137.439 26.4722 137.456 26.0165Z" fill="#3F3D56"/>
<path d="M141.426 34.1642C145.566 34.1642 148.923 30.8171 148.923 26.6882C148.923 22.5593 145.566 19.2122 141.426 19.2122C137.285 19.2122 133.929 22.5593 133.929 26.6882C133.929 30.8171 137.285 34.1642 141.426 34.1642Z" fill="#FFC0C6"/>
<path d="M143.182 43.0476C142.928 42.323 142.45 41.6976 141.817 41.2617C141.183 40.8257 140.427 40.6017 139.657 40.6221C139.437 40.6641 139.208 40.635 139.005 40.539C138.89 40.4514 138.798 40.3374 138.736 40.2067C138.282 39.3885 137.916 38.5246 137.644 37.6293C137.525 37.233 137.361 36.7654 136.958 36.6634C136.635 36.5803 136.304 36.7891 136.087 37.0431C135.895 37.3156 135.687 37.5763 135.464 37.8239C134.512 38.6641 132.846 37.8975 131.849 38.6688C131.684 38.7946 131.549 38.956 131.373 39.0723C131.201 39.1764 131.016 39.2563 130.823 39.3096C128.887 39.9376 126.989 40.677 125.139 41.524C125.806 45.5207 126.486 49.5933 128.048 53.3313C128.79 55.1113 129.63 56.8557 130.225 58.6903C131.544 62.7558 131.601 67.1062 131.618 71.3806C131.618 74.3045 131.618 77.2902 130.666 80.0575C130.451 80.6841 130.19 81.3059 130.13 81.9562C130.071 82.6065 130.266 83.3422 130.801 83.7314C131.111 83.9353 131.467 84.06 131.837 84.0945C133.481 84.3319 135.138 83.8999 136.756 83.5249C141.095 82.5234 145.522 81.949 149.937 81.3889L157.339 80.4396C157.87 80.4026 158.389 80.2682 158.871 80.0433C160.226 79.3051 160.354 77.2736 159.512 75.9825C159.109 75.363 158.541 74.8551 158.2 74.2001C157.86 73.5451 157.834 72.6242 158.417 72.1709C159.607 71.2453 159.25 69.5294 159.307 68.0294C159.466 63.8333 159.444 59.6404 159.243 55.4507C159.182 54.5819 159.168 53.7104 159.2 52.84C159.283 51.3638 159.65 49.9185 160.016 48.4826L162.265 39.6538C161.677 38.7282 160.552 38.1396 159.488 37.8738C158.424 37.6079 157.312 37.5296 156.263 37.2045C154.121 36.5399 152.198 34.8549 149.953 35.0115C149.783 35.0145 149.616 35.0551 149.463 35.1302C148.959 35.4173 149.037 36.1436 149.006 36.7227C148.935 38.0067 147.988 39.077 146.945 39.8294C145.903 40.5817 144.708 41.1276 143.749 41.9844C143.582 42.1096 143.445 42.2697 143.347 42.4534C143.249 42.6371 143.193 42.8399 143.182 43.0476Z" fill="#3F3D56"/>
<path d="M113.477 51.4232C112.981 51.7451 112.453 52.0162 111.902 52.2325C111.378 52.439 110.819 52.6027 110.39 52.9635C110.178 53.147 110 53.3663 109.864 53.6114C109.611 54.0602 109.482 54.5686 109.493 55.0836C109.504 55.5987 109.653 56.1014 109.924 56.5395C110.196 56.9776 110.581 57.3349 111.038 57.5742C111.496 57.8135 112.009 57.926 112.525 57.9C113.213 57.8644 113.863 57.5867 114.493 57.3138L119.782 55.0188C120.677 54.6319 121.643 54.181 122.067 53.3028C122.115 53.2206 122.134 53.1242 122.119 53.0299C122.078 52.9265 122 52.8419 121.9 52.7926C120.708 52.0194 119.666 51.0386 118.823 49.8971C118.606 49.6028 118.347 48.9098 118.033 48.7318C116.914 48.1124 114.374 50.8441 113.477 51.4232Z" fill="#FFC0C6"/>
<path d="M170.008 49.5601L171.957 51.7815C172.376 52.2562 172.795 52.7309 173.175 53.2435C174.112 54.5304 174.864 55.9421 175.408 57.4372C175.831 58.5455 176.184 59.7275 176.036 60.9046C175.937 61.5081 175.774 62.0993 175.548 62.668C175.191 63.7613 174.748 64.8247 174.223 65.8483C173.784 66.625 173.288 67.3683 172.74 68.0721C171.23 70.067 169.578 71.9508 167.796 73.7088C167.13 74.3662 166.844 75.4318 166.561 76.3195C166.026 77.9594 164.752 79.2387 163.522 80.4491C163.126 80.8663 162.688 81.2417 162.215 81.5693C161.507 82.0251 160.678 82.2598 159.835 82.2433C159.467 82.2454 159.103 82.1702 158.767 82.0226C157.924 81.6239 157.496 80.6532 157.408 79.7276C157.33 78.8865 157.471 78.0397 157.817 77.2688C158.936 74.7982 161.808 73.7278 163.838 71.924C165.028 70.8679 165.94 69.5388 166.84 68.2264C167.449 67.406 167.958 66.516 168.356 65.5754C168.808 64.3673 168.632 62.9386 169.029 61.7139C169.196 61.1942 169.505 60.7266 169.674 60.2116C169.843 59.6966 169.9 59.0867 169.584 58.6428C169.347 58.3591 169.044 58.1375 168.701 57.9973C167.404 57.3422 165.952 56.4973 165.704 55.0662C165.605 54.2737 165.813 53.4733 166.285 52.8282C166.755 52.1913 167.304 51.617 167.92 51.1194C168.484 50.6115 169.439 50.049 170.008 49.5601Z" fill="#FFC0C6"/>
<path d="M112.225 54.5227C111.883 53.8297 111.452 53.1225 110.757 52.7783C110.419 52.6328 110.054 52.5578 109.686 52.5578C109.317 52.5578 108.953 52.6328 108.615 52.7783C107.941 53.0687 107.31 53.4487 106.739 53.908L105.059 55.1445C104.678 55.3938 104.341 55.7042 104.062 56.063C103.795 56.4984 103.619 56.9826 103.543 57.487C103.305 58.6428 103.112 59.8319 103.279 61.0019C103.545 62.9006 104.688 64.543 105.944 65.986C106.73 66.8831 107.701 67.7897 108.896 67.83C109.412 67.8467 109.986 67.6426 110.2 67.175C110.275 66.9892 110.314 66.7913 110.316 66.5912C110.445 64.4836 109.688 62.4259 108.808 60.5059C108.57 59.9838 108.313 59.4427 108.332 58.8707C108.324 58.7736 108.349 58.6768 108.403 58.5954C108.479 58.5164 108.58 58.4668 108.689 58.4554C109.895 58.218 111.975 59.1531 112.82 57.8169C113.368 56.934 112.616 55.3083 112.225 54.5227Z" fill="#FFC0C6"/>
<path d="M137.061 23.6646C137.046 23.4917 137.072 23.3177 137.137 23.1567C137.33 22.8149 137.834 22.9193 138.215 23.0048C139.746 23.3893 141.359 23.0404 142.937 23.1306C144.515 23.2208 146.288 24.0063 146.607 25.549C147.751 24.7398 148.737 23.7297 149.518 22.5681C149.956 21.913 150.337 21.1654 150.277 20.3822C150.191 19.2525 149.239 18.4076 148.373 17.6932L145.755 15.5572C145.411 15.2418 145.014 14.9895 144.582 14.812C143.975 14.6055 143.316 14.7052 142.678 14.7052C140.774 14.7052 138.732 13.8389 137.035 14.7052C136.321 15.0683 135.79 15.6925 135.276 16.3001L132.934 19.0627C132.758 19.2392 132.629 19.4571 132.56 19.6963C132.494 20.0334 132.667 20.3656 132.729 20.705C132.839 21.3221 132.572 21.9819 132.777 22.5728C133.117 23.5578 134.317 23.6978 135.05 24.2626C135.321 24.4715 135.749 25.1859 136.076 25.1764C136.64 25.1645 137.039 24.1202 137.061 23.6646Z" fill="#3F3D56"/>
<path d="M121.139 44.1512C120.836 44.3469 120.571 44.5934 120.353 44.8798C120.079 45.2952 120.022 45.8292 119.787 46.2564C119.282 47.1915 118.099 47.5261 117.364 48.2927C117.245 48.3975 117.161 48.5369 117.126 48.6914C117.121 48.9002 117.191 49.1037 117.323 49.2658L120.879 54.8384C122.069 54.9428 123.197 54.2023 124.383 54.302C124.823 54.3376 125.277 54.4895 125.701 54.359C126.004 54.2244 126.288 54.0513 126.546 53.8439C127.26 53.3977 128.193 53.3455 128.786 52.7593C129.378 52.1731 129.428 51.3116 129.421 50.5118C129.432 49.8176 129.361 49.1246 129.209 48.447C128.686 46.311 127.046 44.6639 126.018 42.7699C125.515 41.8467 125.244 41.308 124.185 41.9416C123.126 42.5753 122.141 43.4202 121.139 44.1512Z" fill="#3F3D56"/>
<path d="M164.314 41.3341C164.983 41.7668 165.585 42.2927 166.104 42.8958C166.645 43.5911 166.952 44.4455 167.473 45.1575C167.994 45.8695 168.663 46.3822 169.234 47.0182C170.103 47.9818 170.691 49.1542 171.267 50.3196C169.857 52.1489 168.32 53.8778 166.668 55.4934C166.484 55.7095 166.241 55.8678 165.969 55.9491C165.784 55.9689 165.597 55.9426 165.425 55.8726C165.253 55.8026 165.101 55.6911 164.983 55.548C164.726 55.2822 164.545 54.9499 164.3 54.6723C163.723 54.0783 162.953 53.7075 162.127 53.6256C161.308 53.5461 160.485 53.5342 159.664 53.59C159.484 53.6113 159.301 53.5808 159.138 53.5022C159.016 53.419 158.918 53.3063 158.852 53.1747C157.9 51.5418 158.198 49.4913 158.538 47.6258L159.316 43.3538C159.43 42.5382 159.648 41.7405 159.966 40.9805C160.261 40.3515 160.918 39.2835 161.732 39.4734C162.546 39.6633 163.627 40.8404 164.314 41.3341Z" fill="#3F3D56"/>
<path d="M96.4433 72.6503L80.0473 75.9943L79.6737 75.9587L65.265 74.5086V56.3003L82.9034 53.3266L95.6984 54.8146L95.7031 54.8953V54.9333L96.4433 72.6503Z" fill="#67AFD0"/>
<path opacity="0.1" d="M96.4434 72.6503L80.0474 75.9943L79.6737 75.9587V57.2924L95.7032 54.8953L96.4434 72.6503Z" fill="black"/>
<path opacity="0.05" d="M95.7031 54.9333L95.6984 54.938L79.6737 57.2924L65.265 56.3003L82.9034 53.3266L95.6984 54.8146L95.7031 54.8953V54.9333Z" fill="black"/>
<path d="M105.011 54.6129L88.6155 57.9593L88.2418 57.9213L73.8331 56.4712V38.263L91.4715 35.2892L104.267 36.7773L104.271 36.858V36.8959L105.011 54.6129Z" fill="#3F3D56"/>
<path opacity="0.1" d="M105.011 54.6129L88.6154 57.9593L88.2418 57.9213V39.255L104.271 36.858L105.011 54.6129Z" fill="black"/>
<path opacity="0.05" d="M104.271 36.8959L104.267 36.9007L88.2418 39.255L73.8331 38.263L91.4715 35.2892L104.267 36.7773L104.271 36.858V36.8959Z" fill="black"/>
</g>
<defs>
<clipPath id="clip0">
<rect width="226" height="167" fill="white"/>
</clipPath>
</defs>
</svg>
