<svg width="222" height="169" viewBox="0 0 222 169" fill="none" xmlns="http://www.w3.org/2000/svg">
<path opacity="0.1" d="M217.702 45.6607C215.505 40.5895 212.536 35.885 208.898 31.7128L86.7264 30.5157L187.314 16.4717C180.815 13.9 173.898 12.5361 166.904 12.4478C157.282 4.80182 145.434 0.447946 133.122 0.0338686C120.811 -0.380209 108.694 3.16763 98.5737 10.1496C90.485 6.01457 81.5178 3.86537 72.4223 3.88185C45.2768 3.88185 22.6583 22.5723 17.5848 47.3551L217.702 45.6607Z" fill="#CAAD16"/>
<path opacity="0.1" d="M221.998 66.4467C222.004 59.7255 220.712 53.0655 218.192 46.8286L6.45431 68.9225C4.27858 72.8483 2.614 77.0332 1.50061 81.3766L67.0735 91.0916L0 98.1763C2.01763 126.233 26.2123 148.387 55.7685 148.387C70.6464 148.387 84.1666 142.774 94.1833 133.618C104.231 142.947 117.882 148.684 132.92 148.684C155.233 148.684 174.491 136.055 183.459 117.794C201.452 112.118 215.428 97.865 220.211 80.0332L137.291 67.249H221.99C221.994 66.9816 221.998 66.7141 221.998 66.4467Z" fill="#67AFD0"/>
<path opacity="0.1" d="M5.9079 155.096C8.90492 155.096 11.3345 154.764 11.3345 154.354C11.3345 153.945 8.90492 153.613 5.9079 153.613C2.91088 153.613 0.481323 153.945 0.481323 154.354C0.481323 154.764 2.91088 155.096 5.9079 155.096Z" fill="#CAAD16"/>
<path opacity="0.1" d="M26.6957 157.192C29.6928 157.192 32.1223 156.859 32.1223 156.45C32.1223 156.04 29.6928 155.708 26.6957 155.708C23.6987 155.708 21.2692 156.04 21.2692 156.45C21.2692 156.859 23.6987 157.192 26.6957 157.192Z" fill="#CAAD16"/>
<path opacity="0.1" d="M51.1826 154.354C54.1796 154.354 56.6091 154.022 56.6091 153.613C56.6091 153.203 54.1796 152.871 51.1826 152.871C48.1855 152.871 45.756 153.203 45.756 153.613C45.756 154.022 48.1855 154.354 51.1826 154.354Z" fill="#CAAD16"/>
<path opacity="0.1" d="M18.3751 162.943C20.5062 162.943 22.2338 162.708 22.2338 162.417C22.2338 162.126 20.5062 161.89 18.3751 161.89C16.244 161.89 14.5164 162.126 14.5164 162.417C14.5164 162.708 16.244 162.943 18.3751 162.943Z" fill="#CAAD16"/>
<path opacity="0.1" d="M39.9532 162.417C42.0843 162.417 43.8119 162.181 43.8119 161.89C43.8119 161.599 42.0843 161.364 39.9532 161.364C37.8221 161.364 36.0945 161.599 36.0945 161.89C36.0945 162.181 37.8221 162.417 39.9532 162.417Z" fill="#CAAD16"/>
<path d="M26.8134 156.283C26.8134 156.283 19.201 131.479 28.0029 121.545C34.5897 114.111 42.0633 115.001 45.4113 115.92C46.2776 116.15 47.0833 116.564 47.7728 117.133C48.4623 117.703 49.0191 118.415 49.4045 119.219C50.5751 121.726 50.3629 125.803 42.1011 130.558C28.2678 138.52 27.4082 149.44 27.4082 149.44L26.8134 156.283Z" fill="#CAAD16"/>
<path d="M44.2197 119.439C44.2197 119.439 21.782 126.413 26.8134 156.283" stroke="#565987" stroke-miterlimit="10"/>
<path d="M31.1156 121.939C31.1156 121.939 34.2051 124.008 33.2173 127.119" stroke="#565987" stroke-miterlimit="10"/>
<path d="M41.9688 123.778C41.9688 123.778 40.0773 121.868 37.7822 122.921" stroke="#565987" stroke-miterlimit="10"/>
<path d="M33.0996 133.389C33.0996 133.389 29.7832 131.717 28.9257 133.806" stroke="#565987" stroke-miterlimit="10"/>
<path d="M24.8925 136.873C24.8925 136.873 27.383 136.677 27.4292 137.862" stroke="#565987" stroke-miterlimit="10"/>
<path d="M26.5107 156.481C26.5107 156.481 35.4261 138.453 37.8746 138.848C39.0368 139.036 39.5728 140.172 39.8166 141.315C40.1187 142.796 39.949 144.334 39.3311 145.715C38.0701 148.588 34.6611 154.072 26.5107 156.481Z" fill="#CAAD16"/>
<path d="M37.8012 142.27C37.8012 142.27 28.4444 155.758 26.637 156.35" stroke="#565987" stroke-miterlimit="10"/>
<path d="M38.6628 144.374H36.4791" stroke="#565987" stroke-miterlimit="10"/>
<path d="M36.0462 149.309L32.6246 149.455" stroke="#565987" stroke-miterlimit="10"/>
<path d="M33.9634 145.362L34.3354 147.134" stroke="#565987" stroke-miterlimit="10"/>
<path d="M30.3232 150.757L30.3905 152.367" stroke="#565987" stroke-miterlimit="10"/>
<path d="M26.7693 156.481C26.7693 156.481 17.8539 138.453 15.4054 138.848C14.2432 139.036 13.7072 140.172 13.4634 141.315C13.1637 142.793 13.3341 144.326 13.951 145.703C15.2142 148.588 18.6126 154.072 26.7693 156.481Z" fill="#CAAD16"/>
<path d="M15.4727 142.27C15.4727 142.27 24.8294 155.758 26.6369 156.35" stroke="#565987" stroke-miterlimit="10"/>
<path d="M14.6132 144.374H16.7968" stroke="#565987" stroke-miterlimit="10"/>
<path d="M17.2275 149.309L20.6512 149.455" stroke="#565987" stroke-miterlimit="10"/>
<path d="M19.3126 145.362L18.9406 147.134" stroke="#565987" stroke-miterlimit="10"/>
<path d="M22.9526 150.757L22.8854 152.367" stroke="#565987" stroke-miterlimit="10"/>
<path d="M42.0759 160.691C42.319 160.495 42.4964 160.229 42.5845 159.931C42.6236 159.78 42.6096 159.622 42.5449 159.481C42.4803 159.339 42.3689 159.225 42.2293 159.155C41.9036 159.03 41.5547 159.256 41.292 159.481C41.0293 159.707 40.7245 159.968 40.3798 159.92C40.5558 159.759 40.6869 159.556 40.7606 159.329C40.8342 159.103 40.8479 158.862 40.8002 158.629C40.7857 158.532 40.745 158.441 40.6825 158.366C40.5017 158.174 40.1739 158.257 39.9574 158.408C39.2681 158.888 39.0768 159.818 39.0726 160.656C39.0347 160.348 39.0305 160.038 39.06 159.73C39.06 159.421 38.9717 159.076 38.709 158.911C38.5464 158.822 38.3627 158.779 38.1773 158.786C37.8662 158.786 37.5236 158.804 37.3114 159.03C37.0487 159.31 37.1159 159.778 37.345 160.087C37.6005 160.374 37.9033 160.615 38.2403 160.8C38.493 160.953 38.7084 161.16 38.8708 161.406C38.8896 161.44 38.9051 161.477 38.9171 161.514H40.8569C41.2993 161.297 41.7095 161.02 42.0759 160.691Z" fill="#CAAD16"/>
<path d="M8.10625 153.431C8.34954 153.235 8.52695 152.969 8.61486 152.67C8.65363 152.52 8.63954 152.361 8.57495 152.22C8.51035 152.078 8.39912 151.963 8.25967 151.893C7.93391 151.77 7.58713 151.996 7.32232 152.221C7.0575 152.447 6.75696 152.706 6.41018 152.658C6.58663 152.497 6.71812 152.294 6.79179 152.067C6.86547 151.841 6.87881 151.6 6.83052 151.367C6.81476 151.271 6.7734 151.18 6.71072 151.105C6.52998 150.913 6.20211 150.995 5.98564 151.147C5.29628 151.628 5.10503 152.558 5.10082 153.395C5.06296 153.087 5.05873 152.776 5.08821 152.468C5.08821 152.158 5.00205 151.816 4.73933 151.651C4.57599 151.562 4.39155 151.519 4.2055 151.525C3.89655 151.513 3.55188 151.544 3.3396 151.77C3.07689 152.05 3.14625 152.518 3.37323 152.814C3.62845 153.103 3.93211 153.344 4.27065 153.529C4.52396 153.681 4.73948 153.888 4.90116 154.135C4.92017 154.17 4.93634 154.206 4.9495 154.244H6.88937C7.33019 154.029 7.73957 153.755 8.10625 153.431Z" fill="#CAAD16"/>
<path d="M19.4281 160.691C19.6712 160.495 19.8485 160.229 19.9367 159.931C19.9757 159.78 19.9618 159.622 19.8971 159.481C19.8325 159.339 19.7211 159.225 19.5815 159.155C19.2557 159.03 18.9069 159.256 18.6442 159.481C18.3814 159.707 18.0767 159.968 17.732 159.92C17.908 159.759 18.0391 159.556 18.1127 159.329C18.1864 159.103 18.2 158.862 18.1524 158.629C18.1379 158.532 18.0972 158.441 18.0347 158.366C17.8539 158.174 17.5261 158.257 17.3096 158.408C16.6202 158.888 16.429 159.818 16.4248 160.656C16.3869 160.348 16.3827 160.038 16.4122 159.73C16.4122 159.421 16.326 159.076 16.0633 158.911C15.8999 158.822 15.7155 158.779 15.5294 158.786C15.2205 158.786 14.8758 158.804 14.6635 159.03C14.4008 159.31 14.4681 159.778 14.6972 160.087C14.9527 160.374 15.2555 160.615 15.5925 160.8C15.8452 160.953 16.0605 161.16 16.223 161.406C16.2418 161.44 16.2573 161.477 16.2692 161.514H18.2091C18.6515 161.297 19.0617 161.02 19.4281 160.691Z" fill="#CAAD16"/>
<path d="M51.5357 146.014C51.5357 146.014 52.2629 146.96 51.1994 148.387C50.136 149.814 49.2617 151.02 49.6147 151.91C49.6147 151.91 51.2183 149.259 52.5235 149.221C53.8286 149.183 52.9712 147.608 51.5357 146.014Z" fill="#CAAD16"/>
<path opacity="0.1" d="M51.5357 146.014C51.599 146.106 51.6492 146.205 51.6849 146.311C52.9585 147.798 53.6353 149.185 52.4121 149.221C51.2709 149.254 49.9048 151.281 49.5769 151.793C49.5874 151.833 49.6 151.87 49.6147 151.91C49.6147 151.91 51.2183 149.259 52.5235 149.221C53.8286 149.183 52.9711 147.608 51.5357 146.014Z" fill="black"/>
<path d="M52.8871 147.22C52.8871 147.552 52.8493 147.821 52.8031 147.821C52.7568 147.821 52.719 147.552 52.719 147.22C52.719 146.887 52.7673 147.044 52.8136 147.044C52.8598 147.044 52.8871 146.887 52.8871 147.22Z" fill="#FFD037"/>
<path d="M53.3515 147.616C53.0573 147.775 52.8009 147.871 52.7798 147.825C52.7588 147.779 52.9774 147.616 53.2716 147.464C53.5659 147.311 53.4482 147.42 53.4713 147.464C53.4944 147.508 53.6457 147.458 53.3515 147.616Z" fill="#FFD037"/>
<path d="M47.6937 146.014C47.6937 146.014 46.9665 146.96 48.03 148.387C49.0935 149.814 49.9699 151.02 49.6147 151.91C49.6147 151.91 48.0111 149.259 46.7059 149.221C45.4008 149.183 46.2667 147.608 47.6937 146.014Z" fill="#CAAD16"/>
<path opacity="0.1" d="M47.6937 146.014C47.6307 146.105 47.5811 146.205 47.5466 146.311C46.273 147.798 45.5941 149.185 46.8173 149.221C47.9585 149.254 49.3267 151.281 49.6546 151.793C49.642 151.833 49.6294 151.87 49.6147 151.91C49.6147 151.91 48.0111 149.259 46.7059 149.221C45.4008 149.183 46.2667 147.608 47.6937 146.014Z" fill="black"/>
<path d="M46.3424 147.22C46.3424 147.552 46.3802 147.821 46.4265 147.821C46.4727 147.821 46.5105 147.552 46.5105 147.22C46.5105 146.887 46.4643 147.044 46.4181 147.044C46.3718 147.044 46.3424 146.887 46.3424 147.22Z" fill="#FFD037"/>
<path d="M45.8779 147.616C46.1721 147.775 46.4285 147.871 46.4516 147.825C46.4747 147.779 46.252 147.616 45.9598 147.464C45.6677 147.311 45.7812 147.42 45.7497 147.464C45.7181 147.508 45.5857 147.458 45.8779 147.616Z" fill="#FFD037"/>
<path d="M46.5736 151.785C46.5736 151.785 48.6081 151.724 49.2196 151.289C49.8312 150.855 52.347 150.337 52.5004 151.032C52.6538 151.728 55.5542 154.492 53.2591 154.511C50.9641 154.53 47.9271 154.156 47.3155 153.786C46.7039 153.416 46.5736 151.785 46.5736 151.785Z" fill="#A8A8A8"/>
<path opacity="0.2" d="M53.3011 154.269C51.0061 154.287 47.967 153.913 47.3554 153.544C46.8889 153.262 46.7039 152.25 46.643 151.782H46.5736C46.5736 151.782 46.7039 153.414 47.3155 153.784C47.9271 154.154 50.964 154.528 53.2591 154.509C53.9232 154.509 54.1502 154.269 54.1376 153.922C54.043 154.135 53.7929 154.264 53.3011 154.269Z" fill="black"/>
<path opacity="0.1" d="M128.706 169C166.943 169 197.94 167.603 197.94 165.879C197.94 164.155 166.943 162.757 128.706 162.757C90.4688 162.757 59.4717 164.155 59.4717 165.879C59.4717 167.603 90.4688 169 128.706 169Z" fill="#CAAD16"/>
<path d="M121.652 72.5578C121.652 72.5578 126.066 80.8584 126.409 82.043C126.498 82.3719 126.69 82.6639 126.958 82.8766C127.225 83.0892 127.554 83.2115 127.897 83.2255C127.897 83.2255 132.293 84.2702 133.344 84.4102C134.395 84.5501 143.504 85.3148 143.504 85.3148C143.504 85.3148 145.816 85.3858 146.095 84.5501C146.352 83.7855 150.818 79.7678 153.403 83.2736C153.641 83.5979 153.799 83.9735 153.864 84.3699C153.929 84.7663 153.899 85.1723 153.777 85.5551C153.302 87.0593 152.327 89.4473 151.28 87.9619C149.809 85.8726 148.098 86.4597 148.098 87.5733C148.098 88.6869 145.744 88.2732 144.975 88.4299C144.555 88.5155 143.109 88.8979 141.858 89.2322C140.407 89.6221 138.92 89.8678 137.419 89.9655C134.937 90.1264 131.278 90.2601 129.981 89.7733C128.416 89.182 125.686 89.0462 124.517 89.0149C124.13 89.0056 123.756 88.8722 123.451 88.6346C121.829 87.3725 120.458 85.8217 119.406 84.0612C117.584 80.9274 113.836 74.4381 114.088 72.5578C114.341 70.6775 121.652 72.5578 121.652 72.5578Z" fill="#EFB7B9"/>
<path opacity="0.05" d="M121.652 72.5578C121.652 72.5578 126.066 80.8584 126.409 82.043C126.498 82.3719 126.69 82.6639 126.958 82.8766C127.225 83.0892 127.554 83.2115 127.897 83.2255C127.897 83.2255 132.293 84.2702 133.344 84.4102C134.395 84.5501 143.504 85.3148 143.504 85.3148C143.504 85.3148 145.816 85.3858 146.095 84.5501C146.352 83.7855 150.818 79.7678 153.403 83.2736C153.641 83.5979 153.799 83.9735 153.864 84.3699C153.929 84.7663 153.899 85.1723 153.777 85.5551C153.302 87.0593 152.327 89.4473 151.28 87.9619C149.809 85.8726 148.098 86.4597 148.098 87.5733C148.098 88.6869 145.744 88.2732 144.975 88.4299C144.555 88.5155 143.109 88.8979 141.858 89.2322C140.407 89.6221 138.92 89.8678 137.419 89.9655C134.937 90.1264 131.278 90.2601 129.981 89.7733C128.416 89.182 125.686 89.0462 124.517 89.0149C124.13 89.0056 123.756 88.8722 123.451 88.6346C121.829 87.3725 120.458 85.8217 119.406 84.0612C117.584 80.9274 113.836 74.4381 114.088 72.5578C114.341 70.6775 121.652 72.5578 121.652 72.5578Z" fill="black"/>
<path d="M189.478 150.312C189.47 154.751 187.74 159.016 184.647 162.219C181.554 165.421 177.337 167.314 172.876 167.502C168.414 167.691 164.051 166.161 160.696 163.231C157.341 160.301 155.252 156.197 154.865 151.774C154.84 151.494 154.821 151.214 154.813 150.938V150.924C154.804 150.716 154.8 150.507 154.8 150.297C154.8 145.726 156.627 141.341 159.879 138.109C163.13 134.877 167.541 133.061 172.139 133.061C176.738 133.061 181.148 134.877 184.4 138.109C187.651 141.341 189.478 145.726 189.478 150.297V150.312Z" fill="#65617D"/>
<path d="M172.139 159.703C177.363 159.703 181.597 155.494 181.597 150.301C181.597 145.109 177.363 140.899 172.139 140.899C166.916 140.899 162.682 145.109 162.682 150.301C162.682 155.494 166.916 159.703 172.139 159.703Z" fill="#DCE0ED"/>
<path d="M172.139 155.942C175.273 155.942 177.814 153.417 177.814 150.301C177.814 147.186 175.273 144.66 172.139 144.66C169.005 144.66 166.465 147.186 166.465 150.301C166.465 153.417 169.005 155.942 172.139 155.942Z" fill="#65617D"/>
<path d="M126.604 117.569L84.8518 118.404V112.287C85.2259 107.363 90.3162 105.635 94.94 105.094C98.5549 104.686 102.215 104.959 105.728 105.898C114.587 108.23 120.23 108.681 123.01 108.725C123.621 108.734 124.209 108.952 124.676 109.343C125.143 109.733 125.461 110.272 125.574 110.869C125.707 111.568 125.837 112.331 125.959 113.083C126.051 113.672 126.14 114.253 126.22 114.794C126.451 116.353 126.604 117.569 126.604 117.569Z" fill="#65617D"/>
<path d="M159.914 151.415H73.1789C72.5093 151.421 71.8524 151.232 71.29 150.871C70.7276 150.51 70.2846 149.992 70.0159 149.382C69.3623 147.83 70.2765 146.839 71.2517 146.258C73.2474 145.083 74.7603 143.243 75.5223 141.065C76.4471 138.349 77.3508 134.099 77.706 127.459C78.0717 120.592 80.5727 117.197 83.2755 115.551C86.7664 113.428 90.5936 114.224 90.5936 114.224L125.761 114.504C126.387 114.786 126.966 115.162 127.478 115.617C130.612 118.517 126.043 122.303 126.043 122.303C116.234 132.609 123.66 143.056 123.66 143.056H141.654C145.016 143.073 148.304 142.072 151.08 140.187C153.512 138.516 154.443 136.901 154.817 135.923C155.095 135.175 155.376 134.429 155.713 133.706C160.433 123.529 154.739 106.974 152.283 100.784C151.673 99.2439 151.263 98.3455 151.263 98.3455L156.906 97.9276L160.479 97.6581H160.515C168.379 111.142 171.303 124.998 172.284 135.265C172.377 136.232 172.453 137.17 172.513 138.071C172.625 139.783 172.381 141.499 171.798 143.114C171.215 144.729 170.305 146.207 169.124 147.458C167.943 148.709 166.516 149.706 164.932 150.386C163.348 151.067 161.64 151.417 159.914 151.415Z" fill="#CAAD16"/>
<path opacity="0.1" d="M126.222 114.794H84.8518V113.083H125.961C126.053 113.662 126.142 114.243 126.222 114.794Z" fill="black"/>
<path opacity="0.1" d="M127.48 115.63H83.6097C83.4955 115.63 83.3826 115.608 83.2776 115.563C86.7685 113.44 90.5957 114.236 90.5957 114.236L125.763 114.516C126.389 114.799 126.968 115.174 127.48 115.63Z" fill="black"/>
<path d="M127.846 113.491H68.2589C67.7841 113.491 67.3993 113.873 67.3993 114.345V114.347C67.3993 114.819 67.7841 115.202 68.2589 115.202H127.846C128.321 115.202 128.706 114.819 128.706 114.347V114.345C128.706 113.873 128.321 113.491 127.846 113.491Z" fill="#DCE0ED"/>
<path opacity="0.1" d="M172.284 135.269C170.286 137.429 168.814 138.28 168.884 136C169.094 129.106 156.904 97.9339 156.904 97.9339L160.509 97.6623C168.375 111.136 171.301 124.992 172.284 135.269Z" fill="black"/>
<path opacity="0.1" d="M189.373 148.412C187.303 148.906 184.75 149.407 181.597 149.875C180.424 150.046 179.163 150.211 177.814 150.368C174.592 150.748 170.866 151.08 166.561 151.335C165.342 151.408 164.077 151.474 162.764 151.534C160.305 151.645 157.673 151.73 154.868 151.789L154.815 150.953V150.938C158.735 149.365 164.903 145.168 165.895 134.235C168.372 133.286 171.036 132.915 173.68 133.15C176.324 133.385 178.879 134.221 181.147 135.592C183.415 136.963 185.336 138.834 186.763 141.059C188.19 143.285 189.083 145.806 189.375 148.429L189.373 148.412Z" fill="black"/>
<path d="M151.545 151.415C151.545 151.415 171.448 149.267 164.592 119.121C164.592 119.121 174.426 128.084 180.544 133.065C186.662 138.046 197.568 144.913 197.568 144.913C197.568 144.913 191.057 150.961 151.545 151.415Z" fill="#CAAD16"/>
<path opacity="0.1" d="M151.545 151.415C151.545 151.415 171.448 149.267 164.592 119.121C164.592 119.121 174.426 128.084 180.544 133.065C186.662 138.046 197.568 144.913 197.568 144.913C197.568 144.913 191.057 150.961 151.545 151.415Z" fill="white"/>
<path d="M98.372 167.538C107.948 167.538 115.711 159.821 115.711 150.301C115.711 140.782 107.948 133.065 98.372 133.065C88.7959 133.065 81.033 140.782 81.033 150.301C81.033 159.821 88.7959 167.538 98.372 167.538Z" fill="#65617D"/>
<path d="M98.3719 159.703C103.595 159.703 107.83 155.494 107.83 150.301C107.83 145.109 103.595 140.899 98.3719 140.899C93.1486 140.899 88.9143 145.109 88.9143 150.301C88.9143 155.494 93.1486 159.703 98.3719 159.703Z" fill="#DCE0ED"/>
<path d="M98.372 155.942C101.506 155.942 104.047 153.417 104.047 150.301C104.047 147.186 101.506 144.66 98.372 144.66C95.238 144.66 92.6974 147.186 92.6974 150.301C92.6974 153.417 95.238 155.942 98.372 155.942Z" fill="#65617D"/>
<path opacity="0.1" d="M117.813 145.124C117.813 133.994 108.92 124.971 97.9516 124.971C86.9828 124.971 78.0906 133.994 78.0906 145.124C78.0906 145.595 78.1067 146.061 78.1389 146.522H117.764C117.797 146.061 117.813 145.595 117.813 145.124Z" fill="black"/>
<path d="M117.077 144.777C117.077 134.059 108.515 125.37 97.9516 125.37C87.3885 125.37 78.8262 134.059 78.8262 144.777C78.8262 145.231 78.843 145.678 78.8724 146.123H117.031C117.06 145.678 117.077 145.231 117.077 144.777Z" fill="#CAAD16"/>
<path opacity="0.1" d="M117.077 144.777C117.077 145.088 117.077 145.404 117.054 145.705C117.054 145.845 117.039 145.983 117.031 146.123H78.8724C78.8724 145.983 78.8556 145.845 78.8493 145.705C78.8346 145.398 78.8262 145.078 78.8262 144.777C78.8262 134.059 87.3885 125.37 97.9516 125.37C108.515 125.37 117.077 134.059 117.077 144.777Z" fill="white"/>
<path opacity="0.1" d="M117.054 145.715C117.054 145.855 117.039 145.993 117.031 146.133H78.8725C78.8725 145.993 78.8557 145.855 78.8494 145.715H117.054Z" fill="black"/>
<path opacity="0.1" d="M119.599 146.54H72.7019C71.4634 146.54 70.4594 147.538 70.4594 148.769C70.4594 149.999 71.4634 150.997 72.7019 150.997H119.599C120.838 150.997 121.842 149.999 121.842 148.769C121.842 147.538 120.838 146.54 119.599 146.54Z" fill="black"/>
<path d="M119.599 146.123H72.7019C71.4634 146.123 70.4594 147.12 70.4594 148.351C70.4594 149.581 71.4634 150.579 72.7019 150.579H119.599C120.838 150.579 121.842 149.581 121.842 148.351C121.842 147.12 120.838 146.123 119.599 146.123Z" fill="#DCE0ED"/>
<path opacity="0.1" d="M168.864 117.058C170.131 116.488 169.989 113.456 168.546 110.285C167.104 107.114 164.908 105.005 163.641 105.575C162.374 106.144 162.516 109.176 163.958 112.347C165.4 115.518 167.597 117.627 168.864 117.058Z" fill="black"/>
<path d="M169.074 116.848C170.341 116.279 170.199 113.246 168.756 110.075C167.314 106.904 165.118 104.795 163.851 105.365C162.584 105.934 162.726 108.967 164.168 112.138C165.61 115.309 167.807 117.418 169.074 116.848Z" fill="#DCE0ED"/>
<path opacity="0.1" d="M160.477 97.6623V100.936H154.067C153.47 100.937 152.874 100.889 152.285 100.794C151.675 99.2543 151.265 98.356 151.265 98.356L156.908 97.9381L160.477 97.6623Z" fill="black"/>
<path d="M160.477 100.51H154.067C148.436 100.51 143.874 96.3315 143.874 91.1564V90.2893C143.874 85.1247 148.436 80.9378 154.067 80.9378L160.477 81.5165V100.51Z" fill="#CAAD16"/>
<path d="M149.916 86.4744C149.916 86.4744 153.752 88.5114 151.545 91.9587C151.545 91.9587 148.838 96.3712 144.582 95.9533L143.033 86.4744C143.033 86.4744 148.13 86.0043 149.916 86.4744Z" fill="#CAAD16"/>
<path opacity="0.1" d="M148.443 86.2905C149.052 86.3135 149.649 86.4722 150.189 86.755C150.729 87.0378 151.198 87.4374 151.562 87.9243C152.245 88.8645 152.652 90.235 151.549 91.9587C151.549 91.9587 148.842 96.3712 144.586 95.9533L143.037 86.4744C143.037 86.4744 146.225 86.1714 148.443 86.2905Z" fill="black"/>
<path opacity="0.1" d="M160.267 81.5165H161.503C162.541 81.5165 163.536 81.9264 164.27 82.6559C165.004 83.3855 165.416 84.375 165.416 85.4067V96.6219C165.416 97.6536 165.004 98.6431 164.27 99.3727C163.536 100.102 162.541 100.512 161.503 100.512H160.267V81.5165Z" fill="black"/>
<path d="M160.477 81.5165H161.713C162.751 81.5165 163.746 81.9264 164.48 82.6559C165.214 83.3855 165.626 84.375 165.626 85.4067V96.6219C165.626 97.6536 165.214 98.6431 164.48 99.3727C163.746 100.102 162.751 100.512 161.713 100.512H160.477V81.5165Z" fill="#DCE0ED"/>
<path d="M114.967 105.911C114.967 105.911 115.957 106.27 117.279 106.771C119.38 107.576 122.344 108.75 123.374 109.393C124.404 110.037 128.243 111.094 131.118 111.838C133.25 112.387 135.445 112.656 137.646 112.638C139.883 112.617 142.592 112.596 143.34 112.596C143.471 112.595 143.601 112.605 143.731 112.626C144.517 112.755 144.485 113.28 144.466 113.405V113.432C139.843 116.217 134.237 128.684 133.888 130.773C133.626 132.34 131.316 136.683 130.177 138.76C129.794 139.456 129.546 139.897 129.546 139.897L130.948 141.497L135.011 143.308L138.863 144.98C138.863 144.98 142.928 145.189 142.997 144.98C143.067 144.771 143.067 142.613 143.067 142.613C142.572 142.295 142.103 141.94 141.663 141.551C140.731 140.744 139.865 139.865 139.073 138.921C136.833 136.274 141.316 131.191 141.316 131.191L149.933 120.049C149.933 120.049 150.633 118.795 153.995 113.781C157.358 108.767 153.995 106.051 153.995 106.051L148.077 103.608C137.812 99.7892 125.431 96.7284 125.431 96.7284L125.255 96.7054L122.63 96.3795L114.967 105.911Z" fill="#EFB7B9"/>
<path d="M141.413 143.308C141.413 143.308 142.148 144.171 141.598 144.249C141.047 144.326 139.601 144.015 139.601 144.015L130.431 139.209C130.431 139.209 129.433 138.503 129.198 139.888C128.962 141.273 128.802 141.142 128.802 141.142C128.802 141.142 127.594 143.726 128.802 144.261C130.011 144.796 137.27 146.912 137.27 146.912C137.27 146.912 147.806 149.29 148.804 146.547C149.803 143.804 147.018 144.276 147.018 144.276C147.018 144.276 143.55 143.44 142.367 141.769C142.358 141.769 140.652 142.239 141.413 143.308Z" fill="#444053"/>
<path opacity="0.05" d="M153.987 106.051L148.069 103.608C137.804 99.7892 125.423 96.7284 125.423 96.7284L125.246 96.7054L122.621 96.3795L114.967 105.911C114.967 105.911 115.957 106.27 117.279 106.771C119.38 107.576 122.344 108.75 123.374 109.393C124.404 110.037 128.243 111.094 131.118 111.838C133.25 112.387 135.445 112.656 137.646 112.638C139.883 112.617 142.592 112.596 143.34 112.596C143.471 112.595 143.601 112.605 143.731 112.626C144.517 112.755 144.485 113.28 144.466 113.405V113.432C139.843 116.217 134.237 128.684 133.888 130.773C133.626 132.34 131.316 136.683 130.177 138.76L130.023 139.04C129.719 138.99 129.338 139.099 129.204 139.888C128.966 141.271 128.809 141.142 128.809 141.142C128.809 141.142 127.6 143.726 128.809 144.261C130.017 144.796 137.27 146.912 137.27 146.912C137.27 146.912 147.806 149.29 148.804 146.547C149.803 143.804 147.018 144.276 147.018 144.276C147.018 144.276 143.55 143.44 142.367 141.769C142.262 141.799 142.159 141.837 142.06 141.881C141.936 141.781 141.803 141.673 141.663 141.551C140.731 140.744 139.865 139.865 139.073 138.921C136.833 136.274 141.316 131.191 141.316 131.191L149.933 120.049C149.933 120.049 150.633 118.795 153.995 113.781C157.358 108.767 153.987 106.051 153.987 106.051Z" fill="black"/>
<path d="M107.91 59.3161L108.229 59.7172L108.408 59.9408L109.522 61.3343C109.522 61.3343 112.18 62.1826 114.511 62.732C116.938 63.3024 119.009 63.551 117.363 62.1867C116.342 61.3406 116.274 59.9241 116.646 58.4052C116.96 57.2364 117.408 56.1076 117.983 55.0415C118.066 54.8827 118.148 54.7281 118.229 54.5777C118.751 53.6178 119.329 52.6893 119.961 51.7969C118.466 50.7682 116.917 49.8217 115.318 48.9617C113.393 47.9714 111.812 47.539 112.815 49.4987C113.458 50.7522 113.248 52.1604 112.647 53.508C112.601 53.6145 112.55 53.7169 112.498 53.8276C111.958 54.8719 111.292 55.8465 110.514 56.7296C109.716 57.6594 108.846 58.5244 107.91 59.3161Z" fill="#EFB7B9"/>
<path d="M121.222 91.1418L122.647 92.435L124.023 97.6999H121.726L119.189 94.4198L121.222 91.1418Z" fill="#444053"/>
<path opacity="0.1" d="M119.189 94.4198L120.723 96.4025L121.726 97.6999H124.023L123.788 96.7995L122.785 92.9636L122.647 92.435L121.222 91.1418L119.275 94.2798L119.189 94.4198Z" fill="black"/>
<path opacity="0.1" d="M119.189 94.4198L120.723 96.4025L121.726 97.6999H124.023L123.788 96.7995L122.785 92.9636L122.647 92.435L121.222 91.1418L119.275 94.2798L119.189 94.4198Z" fill="black"/>
<path d="M111.554 108.274C111.554 108.274 112.544 108.633 113.866 109.134C115.967 109.939 118.931 111.113 119.96 111.756C120.99 112.4 124.83 113.457 127.705 114.201C129.837 114.75 132.031 115.02 134.233 115.003C136.469 114.982 139.178 114.961 139.927 114.961C140.058 114.96 140.188 114.97 140.318 114.991C141.104 115.12 141.072 115.645 141.053 115.77V115.797C136.429 118.582 130.824 131.049 130.475 133.138C130.213 134.705 127.903 139.048 126.764 141.125C126.381 141.821 126.133 142.262 126.133 142.262L127.535 143.862L131.595 145.671L135.448 147.343C135.448 147.343 139.513 147.552 139.582 147.343C139.651 147.134 139.651 144.976 139.651 144.976C139.157 144.658 138.687 144.303 138.247 143.914C137.315 143.107 136.449 142.228 135.658 141.284C133.418 138.637 137.901 133.554 137.901 133.554L146.518 122.412C146.518 122.412 147.217 121.158 150.58 116.144C153.943 111.13 150.58 108.414 150.58 108.414L145.187 105.349C136.78 100.266 124.939 97.3406 124.939 97.3406L124.763 97.3176L122.138 96.9917L111.554 108.274Z" fill="#EFB7B9"/>
<path opacity="0.1" d="M126.131 142.26L127.533 143.86L131.596 145.671L135.448 147.343C135.448 147.343 139.513 147.552 139.582 147.343C139.651 147.134 139.651 144.976 139.651 144.976C139.157 144.658 138.687 144.303 138.247 143.914C137.812 144.146 137.318 144.581 137.796 145.254C137.796 145.254 138.531 146.114 137.98 146.194C137.43 146.273 135.984 145.96 135.984 145.96L126.814 141.154L126.762 141.119C126.375 141.819 126.131 142.26 126.131 142.26Z" fill="black"/>
<path d="M137.999 145.671C137.999 145.671 138.735 146.532 138.182 146.612C137.63 146.691 136.186 146.375 136.186 146.375L127.018 141.57C127.018 141.57 126.02 140.866 125.782 142.249C125.545 143.632 125.389 143.503 125.389 143.503C125.389 143.503 124.181 146.089 125.389 146.624C126.598 147.159 133.849 149.267 133.849 149.267C133.849 149.267 144.382 151.642 145.381 148.901C146.379 146.16 143.594 146.628 143.594 146.628C143.594 146.628 140.126 145.793 138.945 144.121C138.952 144.129 137.237 144.6 137.999 145.671Z" fill="#444053"/>
<path opacity="0.1" d="M112.113 52.9773C113.328 53.813 115.181 55.1355 116.764 55.1355C117.172 55.1354 117.58 55.1033 117.983 55.0394C118.568 53.915 119.229 52.831 119.961 51.7948C119.961 51.7948 110.713 45.387 112.815 49.4966C113.508 50.863 112.825 51.5336 112.113 52.9773Z" fill="black"/>
<path d="M109.198 47.1963C109.197 48.4507 109.512 49.6853 110.114 50.7875C110.717 51.8897 111.587 52.8242 112.647 53.5059C112.884 53.66 113.131 53.7996 113.386 53.9237C114.859 54.654 116.531 54.8871 118.149 54.5875C119.767 54.2879 121.243 53.4721 122.352 52.2637C123.462 51.0553 124.145 49.5202 124.297 47.8912C124.45 46.2622 124.064 44.6281 123.198 43.2367C122.333 41.8453 121.034 40.7725 119.5 40.1809C117.965 39.5893 116.279 39.5113 114.696 39.9585C113.112 40.4058 111.719 41.354 110.727 42.6593C109.735 43.9647 109.198 45.5561 109.198 47.1921V47.1963Z" fill="#EFB7B9"/>
<path opacity="0.1" d="M111.554 108.274C111.554 108.274 112.544 108.633 113.866 109.134C114.696 108.407 115.547 107.705 115.902 107.578C116.673 107.298 119.195 105.835 119.126 105.418C119.057 105 120.177 103.399 121.156 103.119C122.136 102.839 121.577 101.379 121.577 101.379C121.577 101.379 123.468 100.683 123.939 99.7077C124.41 98.732 125.852 97.4785 125.36 97.5495C125.147 97.5151 124.943 97.436 124.763 97.3176L122.138 96.9917L111.554 108.274Z" fill="black"/>
<path d="M105.808 105.767C105.808 105.767 109.032 108.414 109.181 109.596C109.33 110.779 111.482 110.712 111.482 110.712C111.482 110.712 114.706 107.647 115.476 107.369C116.245 107.091 118.769 105.627 118.7 105.209C118.63 104.791 119.75 103.19 120.73 102.911C121.709 102.631 121.15 101.17 121.15 101.17C121.15 101.17 123.042 100.474 123.512 99.4987C123.983 98.5231 125.425 97.2695 124.933 97.3405C124.794 97.3593 124.351 97.1316 123.788 96.7994C123.096 96.3816 122.22 95.8154 121.505 95.3369C120.749 94.8272 120.171 94.4219 120.171 94.4219C120.171 94.4219 119.841 94.3634 119.275 94.2819C116.226 93.8431 106.293 92.7233 103.988 96.3711C103.68 96.8532 103.45 97.3797 103.305 97.9318C102.273 101.818 105.808 105.767 105.808 105.767Z" fill="#444053"/>
<path opacity="0.1" d="M109.179 97.3217C109.179 97.3217 105.888 99.1687 104.66 99.1687C103.433 99.1687 109.179 97.3217 109.179 97.3217Z" fill="black"/>
<path opacity="0.1" d="M111.377 98.732C111.377 98.732 106.476 100.37 106.476 101.657C106.476 102.944 106.018 98.2097 111.377 98.732Z" fill="black"/>
<path opacity="0.1" d="M123.111 91.3549L123.042 91.4489C123.073 91.4247 123.097 91.3921 123.111 91.3549Z" fill="black"/>
<path opacity="0.1" d="M107.91 59.3161L108.229 59.7172L108.408 59.9408L109.522 61.3343C109.522 61.3343 112.18 62.1826 114.511 62.732C116.938 63.3024 119.009 63.551 117.363 62.1867C116.342 61.3406 116.274 59.9241 116.646 58.4052L116.573 58.3112C116.573 58.3112 116.646 59.7193 115.808 59.7465C114.677 59.782 114.662 59.4038 113.62 58.9672C112.277 58.4031 110.9 57.4608 110.514 56.7275C109.716 57.6581 108.846 58.5237 107.91 59.3161Z" fill="black"/>
<path opacity="0.1" d="M103.305 97.9256C103.878 98.1692 104.524 98.1842 105.108 97.9674C107.279 97.2696 110.713 95.5898 112.323 96.3252C113.613 96.9144 118.811 96.8977 120.73 96.4025C121.207 96.2792 121.48 96.1267 121.438 95.947C121.411 95.7401 121.436 95.5297 121.512 95.3349C121.734 94.6266 122.34 93.6426 122.792 92.9636L122.653 92.435L121.228 91.1418L119.282 94.2756C116.232 93.8369 106.3 92.7171 103.994 96.3649C103.685 96.8466 103.452 97.3731 103.305 97.9256Z" fill="black"/>
<path d="M101.886 96.2959C101.886 96.2959 102.727 98.2452 104.898 97.5495C107.069 96.8538 110.503 95.1719 112.113 95.9073C113.723 96.6427 121.432 96.4338 121.222 95.5292C121.011 94.6245 123.113 91.7685 123.113 91.7685C123.113 91.7685 121.966 91.5596 121.255 87.8344C121.15 87.2912 121.056 86.6728 120.976 85.9708C120.802 84.5332 120.761 83.0828 120.854 81.6377C121.138 77.6054 122.558 75.9591 122.558 75.9591C122.558 75.9591 124.519 73.732 122.838 70.667C121.957 69.0604 118.403 64.6082 118.355 62.6234C118.311 60.8224 116.579 58.729 116.579 58.729C116.579 58.729 116.652 60.1372 115.814 60.1643C114.683 60.1998 114.668 59.8217 113.626 59.385C112.094 58.7415 110.52 57.6071 110.417 56.8487C110.417 56.8487 103.994 56.529 102.592 63.0057C101.19 69.4824 101.682 73.0342 101.892 73.8009C102.102 74.5677 103.923 84.4561 102.451 88.6346C100.98 92.8131 101.886 96.2959 101.886 96.2959Z" fill="#A36468"/>
<path opacity="0.1" d="M112.359 84.9179C113.517 86.8605 115.067 88.5442 116.911 89.8631C118.141 89.8733 119.369 89.9549 120.589 90.1076C120.484 89.5644 120.379 88.946 120.309 88.244C120.136 86.8063 120.095 85.3559 120.188 83.9108C119.986 83.8102 119.808 83.668 119.666 83.4936C119.524 83.3192 119.421 83.1167 119.364 82.8996C119.013 81.715 115.887 76.074 115.887 76.074C115.887 76.074 108.576 74.1937 108.321 76.074C108.067 77.9544 110.537 81.784 112.359 84.9179Z" fill="black"/>
<path d="M114.782 72.5578C114.782 72.5578 119.196 80.8584 119.538 82.043C119.627 82.3719 119.82 82.6639 120.087 82.8766C120.355 83.0892 120.684 83.2115 121.026 83.2255C121.026 83.2255 125.423 84.2702 126.474 84.4102C127.525 84.5501 136.64 85.3148 136.64 85.3148C136.64 85.3148 138.951 85.3858 139.231 84.5501C139.487 83.7855 143.953 79.7678 146.539 83.2736C146.777 83.5979 146.935 83.9735 147 84.3699C147.065 84.7663 147.035 85.1723 146.913 85.5551C146.438 87.0593 145.463 89.4473 144.416 87.9619C142.945 85.8726 141.234 86.4597 141.234 87.5733C141.234 88.6869 138.88 88.2732 138.111 88.4299C137.69 88.5155 136.244 88.8979 134.994 89.2322C133.539 89.6228 132.049 89.8685 130.545 89.9655C128.063 90.1264 124.404 90.2601 123.107 89.7733C121.543 89.182 118.813 89.0462 117.642 89.0149C117.255 89.0056 116.881 88.8722 116.577 88.6346C114.956 87.3723 113.584 85.8215 112.533 84.0612C110.711 80.9274 106.964 74.4381 107.216 72.5578C107.468 70.6775 114.782 72.5578 114.782 72.5578Z" fill="#EFB7B9"/>
<path opacity="0.1" d="M113.311 61.0564C113.311 61.0564 115.675 64.9571 116.77 67.7421C117.865 70.527 119.196 75.4034 119.196 75.4034L112.609 74.6366L112.05 73.7319C112.05 73.7319 107.346 76.6569 107.907 77.9105C108.469 79.164 106.646 76.0301 106.787 72.4784C106.928 68.9267 106.281 62.5879 106.787 61.0564C107.294 59.525 111.762 59.8718 113.311 61.0564Z" fill="black"/>
<path d="M106.796 72.0605C106.655 75.6123 108.477 78.7462 107.916 77.4926C107.355 76.2391 112.058 73.3141 112.058 73.3141L112.611 74.2188L119.196 74.9855C119.196 74.9855 117.865 70.1092 116.77 67.3242C116.113 65.7486 115.36 64.2138 114.517 62.7278C113.843 61.5098 113.311 60.6386 113.311 60.6386C112.405 59.9429 110.482 59.5355 108.948 59.6316C108.709 59.6451 108.471 59.6737 108.235 59.7172C107.605 59.8405 107.096 60.0787 106.871 60.4547C106.837 60.513 106.809 60.5746 106.787 60.6386C106.283 62.17 106.93 68.5088 106.796 72.0605Z" fill="#A36468"/>
<path opacity="0.1" d="M103.853 81.784C103.853 81.784 106.638 85.5969 107.479 85.7013C107.472 85.7097 103.899 84.9179 103.853 81.784Z" fill="black"/>
<path opacity="0.1" d="M103.853 87.216C103.853 87.216 109.107 92.4914 110.789 92.5437C112.47 92.5959 103.853 87.216 103.853 87.216Z" fill="black"/>
<path opacity="0.1" d="M103.853 89.4182C103.853 89.4182 107.216 93.3355 107.426 93.3355C107.636 93.3355 103.794 91.9775 103.853 89.4182Z" fill="black"/>
<path opacity="0.1" d="M106.865 60.4548C107.406 60.3747 107.928 60.2007 108.408 59.9408C108.588 59.8468 108.767 59.7423 108.941 59.6316C109.631 59.1731 110.273 58.6483 110.858 58.0646C111.825 57.1307 112.79 56.1112 113.189 54.8305C113.279 54.5353 113.345 54.2335 113.387 53.9279C113.626 52.3213 113.424 50.5475 114.58 49.4548C114.798 49.251 115.047 49.0838 115.318 48.9597C116.957 48.1845 119.334 48.686 120.558 47.2883C121.335 46.4024 121.316 45.1718 121.913 44.2087C122.174 43.7908 122.653 43.4294 123.077 43.045C122.459 42.1093 121.639 41.3227 120.676 40.7424C119.713 40.1621 118.631 39.8029 117.511 39.6909C116.39 39.5788 115.259 39.7169 114.199 40.0949C113.139 40.4729 112.177 41.0813 111.384 41.8758C110.591 42.6704 109.986 43.6309 109.613 44.6874C109.241 45.7439 109.11 46.8697 109.231 47.9827C109.352 49.0956 109.722 50.1677 110.313 51.1207C110.904 52.0737 111.701 52.8836 112.647 53.4913C112.601 53.5978 112.55 53.7002 112.498 53.8109C111.054 56.7359 107.91 59.3015 107.91 59.3015L108.229 59.7026C107.592 59.8468 107.09 60.0787 106.865 60.4548Z" fill="black"/>
<path d="M120.137 47.0835C118.714 48.7048 115.724 47.7604 114.158 49.2459C112.783 50.5475 113.33 52.8185 112.769 54.6215C112.369 55.9023 111.405 56.9197 110.438 57.8557C109.03 59.2179 107.229 60.601 105.303 60.2103C104.162 59.9784 103.044 59.1302 101.941 59.5209C101.392 59.7172 100.999 60.1894 100.589 60.6052C99.1971 62.0155 97.3877 62.946 95.4254 63.2606C95.0374 63.3476 94.6329 63.3289 94.2548 63.2063C93.6663 62.9681 93.3489 62.3288 92.813 61.9883C91.7621 61.3197 90.4129 62.005 89.3221 62.6025C86.2715 64.2445 82.9042 65.2217 79.4441 65.4692C75.9841 65.7167 72.5107 65.2287 69.2551 64.0378L70.9554 63.2021C70.5939 62.4688 69.6166 62.3079 68.9945 61.771C67.7124 60.6658 68.467 58.4553 69.8225 57.442C71.1781 56.4288 72.9331 56.0757 74.337 55.1292C74.6228 54.937 74.9129 54.6821 74.9402 54.3416C74.9356 54.0915 74.8558 53.8484 74.7111 53.6438C73.9629 52.3338 73.1348 50.9277 73.303 49.4297C73.5594 47.1316 76.0835 45.7192 78.4017 45.5583C80.7198 45.3975 83.0149 46.0911 85.3373 46.1308C86.1779 46.1454 87.0585 46.0639 87.7794 45.6315C88.7861 45.0298 89.2927 43.8828 89.9042 42.8862C90.9959 41.1167 92.5602 39.6832 94.4229 38.7453C96.5246 37.6902 98.9037 37.3204 101.089 36.4471C103.321 35.5571 105.352 34.1489 107.687 33.5827C111.077 32.747 114.708 33.8397 117.636 35.7284C119.046 36.6372 123.55 39.5538 123.521 41.4195C123.498 42.5268 122.05 43.1265 121.501 43.9956C120.896 44.9671 120.915 46.1977 120.137 47.0835Z" fill="#965D7B"/>
<g opacity="0.1">
<path opacity="0.1" d="M74.5051 52.597C74.6488 52.8022 74.7284 53.0449 74.7342 53.2948C74.7258 53.3829 74.7009 53.4687 74.6606 53.5476C74.0427 52.4654 73.3996 51.3184 73.2966 50.1108C73.5699 50.9737 74.0511 51.8031 74.5051 52.597Z" fill="black"/>
<path opacity="0.1" d="M68.7886 60.7243C69.4086 61.2612 70.3858 61.4221 70.7494 62.1554L70.1484 62.4521C69.7433 62.2627 69.3582 62.0339 68.9987 61.7689C68.7708 61.567 68.593 61.3153 68.4792 61.0337C68.3655 60.7521 68.3188 60.4481 68.343 60.1455C68.4501 60.3667 68.6018 60.5637 68.7886 60.7243Z" fill="black"/>
<path opacity="0.1" d="M89.1161 61.5578C90.2069 60.9603 91.5583 60.275 92.607 60.9436C93.1408 61.2842 93.4603 61.9235 94.0488 62.1616C94.4262 62.2842 94.83 62.303 95.2173 62.216C97.1802 61.9013 98.9903 60.9708 100.383 59.5605C100.791 59.1427 101.184 58.6726 101.735 58.4762C102.832 58.0855 103.95 58.9337 105.097 59.1656C107.023 59.5563 108.822 58.1733 110.232 56.8111C111.199 55.8772 112.161 54.8576 112.56 53.5769C113.124 51.7739 112.577 49.5028 113.952 48.2012C115.522 46.7158 118.506 47.6601 119.931 46.0389C120.707 45.153 120.69 43.9224 121.287 42.9593C121.791 42.1466 123.098 41.5699 123.283 40.5901C123.428 40.8458 123.508 41.1326 123.517 41.4258C123.494 42.5331 122.045 43.1327 121.497 44.0018C120.9 44.965 120.917 46.1955 120.141 47.0814C118.716 48.7027 115.728 47.7583 114.162 49.2438C112.787 50.5454 113.334 52.8164 112.771 54.6194C112.371 55.9001 111.409 56.9176 110.442 57.8536C109.032 59.2158 107.233 60.5989 105.308 60.2082C104.164 59.9763 103.046 59.128 101.945 59.5187C101.394 59.7151 101.001 60.1873 100.593 60.6031C99.2005 62.0134 97.3903 62.9438 95.4275 63.2585C95.0402 63.3455 94.6364 63.3268 94.2589 63.2042C93.6705 62.966 93.351 62.3267 92.8172 61.9861C91.7663 61.3176 90.417 62.0029 89.3263 62.6004C86.2757 64.2423 82.9084 65.2196 79.4483 65.467C75.9883 65.7145 72.5149 65.2266 69.2593 64.0357L70.4341 63.457C73.5205 64.3787 76.7597 64.6854 79.9656 64.3595C83.1716 64.0336 86.2812 63.0815 89.1161 61.5578Z" fill="black"/>
</g>
<path opacity="0.1" d="M141.053 115.768L142.821 114.917V114.585C142.821 114.458 141.411 114.74 140.318 114.98C141.104 115.118 141.072 115.642 141.053 115.768Z" fill="black"/>
<path d="M142.59 96.555C144.941 96.555 146.848 94.2493 146.848 91.405C146.848 88.5607 144.941 86.255 142.59 86.255C140.238 86.255 138.332 88.5607 138.332 91.405C138.332 94.2493 140.238 96.555 142.59 96.555Z" fill="#CAAD16"/>
<path d="M101.606 84.7026L94.7612 91.4133L72.2583 91.0226L78.4457 84.7026H101.606Z" fill="#DDA2A6"/>
<path d="M101.606 107.659V84.7026L94.7612 91.4133V113.877L101.606 107.659Z" fill="#B77B7F"/>
<path d="M72.2583 91.0226V113.877H94.7612V91.4133L72.2583 91.0226Z" fill="#DDA2A6"/>
<path opacity="0.3" d="M72.2583 91.0226V113.877H94.7612V91.4133L72.2583 91.0226Z" fill="white"/>
<path d="M92.9327 97.7041L76.1969 94.8481L74.0154 105.771L91.2451 108.917L92.9327 97.7041Z" fill="#DCE0ED"/>
<path d="M89.6269 100.255L78.3765 98.4981L78.0948 99.9563L89.3452 101.853L89.6269 100.255Z" fill="#CAAD16"/>
<path d="M86.5331 103.374L80.1334 102.451L79.8518 104.07L86.5331 105.002V103.374Z" fill="#CAAD16"/>
<path d="M98.8385 96.7514L98.5338 87.7133L96.7747 89.439L97.0815 98.498L98.8385 96.7514Z" fill="#65617D"/>
<path d="M76.1823 87.0155L97.8066 87.3059L98.5338 87.7133L96.7747 89.439L96.1673 89.0838L74.7489 88.48L76.1823 87.0155Z" fill="#65617D"/>
</svg>
