<svg width="693" height="352" viewBox="0 0 693 352" fill="none" xmlns="http://www.w3.org/2000/svg">
<g clip-path="url(#clip0)">
<path d="M154.927 205.995L151.224 203.695C150.87 203.478 150.523 203.243 150.17 203.019C158.052 201.665 165.238 197.673 170.548 191.699C175.859 185.725 178.977 178.125 179.392 170.147C179.806 162.169 177.492 154.287 172.828 147.796C168.165 141.306 161.431 136.592 153.732 134.43L153.914 148.934L145.936 133.154H145.836C136.5 132.721 127.374 136.01 120.465 142.296C113.555 148.583 109.428 157.353 108.99 166.678C108.955 167.354 108.99 168.013 108.99 168.678C106.217 165.514 103.691 162.12 102.025 158.403C98.651 150.881 98.5862 142.359 98.8511 131.996C99.381 111.47 100.27 90.7789 101.424 70.1589C109.755 69.2323 117.483 65.3696 123.219 59.2642C128.956 53.1588 132.326 45.2106 132.724 36.8468C132.771 35.7705 132.724 34.7118 132.724 33.6532C132.724 33.3885 132.724 33.1298 132.683 32.8651C132.612 31.8417 132.518 30.8301 132.359 29.8303C132.359 29.6656 132.3 29.5068 132.271 29.348C132.129 28.5011 131.953 27.666 131.752 26.8426C131.676 26.5309 131.599 26.2544 131.517 25.9192C131.27 25.0193 130.999 24.1548 130.681 23.2608C130.575 22.9726 130.451 22.6727 130.339 22.4021C130.092 21.7611 129.821 21.1259 129.533 20.5025C129.38 20.1731 129.232 19.8437 129.073 19.5203C129.026 19.4379 128.997 19.3497 128.95 19.2674C125.228 11.93 119.052 6.12641 111.493 2.86454C103.933 -0.397333 95.4692 -0.91144 87.57 1.41152L87.8055 20.2907L79.9158 4.69332C73.4338 8.40448 68.3075 14.0863 65.2838 20.9108C62.2602 27.7354 61.4972 35.3461 63.106 42.634H63.0707C63.1237 42.8869 63.2002 43.1281 63.2591 43.3751C63.371 43.8397 63.4887 44.2985 63.6182 44.7572C63.7831 45.3454 63.9715 45.9335 64.1658 46.5216C64.313 46.9569 64.4543 47.3862 64.6192 47.8155C64.8606 48.439 65.1314 49.0447 65.4023 49.6505C65.5612 50.0034 65.7025 50.368 65.8733 50.715C66.3208 51.6286 66.8075 52.5167 67.3335 53.3793C67.516 53.6851 67.7221 53.9674 67.9223 54.2674C68.2991 54.8555 68.6759 55.4437 69.0998 55.9906C69.353 56.3376 69.6238 56.6729 69.8888 57.0081C70.2774 57.4963 70.6719 57.9785 71.0664 58.4432C71.3549 58.7784 71.6552 59.1019 71.9554 59.4195C72.3911 59.8782 72.8327 60.3193 73.292 60.7487C73.5981 61.0368 73.8808 61.3368 74.2164 61.6073C74.7345 62.072 75.2762 62.5072 75.8238 62.9365C76.1005 63.1542 76.3713 63.3776 76.6539 63.5894C77.49 64.1775 78.3496 64.7656 79.2387 65.3538C79.4036 65.4538 79.5861 65.5361 79.751 65.6361C80.4987 66.0713 81.2524 66.4889 82.0296 66.8653C82.3652 67.03 82.7067 67.177 83.0482 67.3299C83.684 67.6122 84.3258 67.8886 84.9853 68.1415L86.1628 68.5532C86.8105 68.7709 87.4699 68.9767 88.1353 69.1414C88.5239 69.2472 88.9183 69.359 89.3128 69.4531C90.0311 69.6236 90.7671 69.7648 91.509 69.8942L91.6503 69.9236C91.1675 78.6241 90.7357 87.3266 90.355 96.031C88.255 91.7206 85.2955 87.8842 81.658 84.7572C78.0205 81.6302 73.7818 79.2787 69.2018 77.8468C64.6219 76.4149 59.7973 75.9329 55.0242 76.4303C50.2511 76.9277 45.63 78.3941 41.4446 80.7394L47.6739 97.7954L34.8561 85.5034C27.9843 91.78 23.8886 100.525 23.469 109.817C23.2877 113.081 23.5732 116.355 24.3168 119.539C25.9286 126.405 29.5685 132.63 34.7646 137.405C39.9608 142.18 46.4733 145.286 53.4578 146.319C60.4422 147.353 67.5764 146.266 73.935 143.2C80.2937 140.134 85.5835 135.231 89.1185 129.125C89.1185 130.008 89.0596 130.89 89.0361 131.778C88.8006 140.918 88.5062 152.292 93.0693 162.449C96.1604 169.331 101.13 174.924 106.023 179.935C109.22 183.193 112.535 186.351 115.932 189.404C119.277 193.889 123.639 197.517 128.661 199.99C134.243 204.284 140.025 208.324 146.001 212.053L149.734 214.37C153.09 216.446 156.529 218.581 159.896 220.798C159.308 220.74 158.719 220.675 158.13 220.645C150.658 220.298 143.269 222.333 137.03 226.456C130.792 230.579 126.028 236.577 123.427 243.583L145.448 261.48L121.225 255.869C121.231 261.822 122.749 267.677 125.635 272.886C128.52 278.095 132.681 282.488 137.728 285.656C142.774 288.823 148.542 290.661 154.493 290.998C160.443 291.334 166.382 290.159 171.755 287.581L170.118 289.61C169.034 290.955 167.965 292.292 166.909 293.622C152.578 311.754 148.592 328.963 155.687 342.084L164.318 337.432C157.412 324.658 167.798 308.307 174.604 299.697C175.641 298.391 176.692 297.078 177.76 295.756C186.916 284.394 197.29 271.513 197.037 255.716C196.666 231.873 173.521 217.522 154.927 205.995Z" fill="#F2F2F2"/>
<path d="M346.5 352C537.867 352 693 346.47 693 339.649C693 332.828 537.867 327.298 346.5 327.298C155.133 327.298 0 332.828 0 339.649C0 346.47 155.133 352 346.5 352Z" fill="#3F3D56"/>
<path d="M63.8243 335.632C62.0579 332.392 64.0598 328.416 66.3502 325.528C68.6406 322.64 71.4196 319.647 71.3608 315.947C71.2724 310.654 65.6495 307.531 61.1571 304.72C57.8213 302.64 54.7458 300.17 51.9956 297.362C50.8395 296.293 49.8809 295.029 49.1636 293.627C48.2333 291.557 48.2568 289.205 48.3157 286.94C48.5159 279.389 48.8908 271.843 49.4403 264.303" stroke="#3F3D56" stroke-width="4" stroke-miterlimit="10"/>
<path d="M40.9206 263.862C40.9832 262.479 41.3936 261.135 42.114 259.953C42.8344 258.77 43.8414 257.789 45.0421 257.098L46.8909 260.756L46.832 256.328C47.7163 256.069 48.6374 255.958 49.5581 255.998C51.1847 256.078 52.7513 256.637 54.0602 257.605C55.3691 258.573 56.3617 259.906 56.9126 261.437C57.4636 262.968 57.5482 264.627 57.1559 266.206C56.7635 267.785 55.9118 269.212 54.7081 270.308C53.5045 271.404 52.0029 272.119 50.3927 272.363C48.7826 272.607 47.1362 272.37 45.6612 271.68C44.1863 270.99 42.9489 269.88 42.1051 268.488C41.2614 267.097 40.8492 265.487 40.9206 263.862Z" fill="#57B894"/>
<path d="M55.6402 319.729C56.507 321.407 57.9249 322.737 59.6562 323.495C61.3876 324.253 63.3273 324.394 65.1501 323.893C66.9729 323.393 68.5682 322.282 69.6685 320.746C70.7688 319.211 71.3073 317.344 71.1937 315.459C71.0802 313.574 70.3215 311.785 69.0448 310.393C67.7681 309 66.0509 308.088 64.1812 307.81C62.3114 307.531 60.4027 307.903 58.7748 308.863C57.1469 309.823 55.8989 311.313 55.2398 313.083L60.4035 317.276L54.7335 315.977C54.7338 317.281 55.0446 318.568 55.6402 319.729Z" fill="#57B894"/>
<path d="M59.7617 303.702C61.8148 303.847 63.848 303.219 65.4613 301.943C67.0746 300.666 68.1514 298.832 68.4798 296.803C68.8083 294.773 68.3646 292.694 67.2362 290.974C66.1077 289.255 64.3761 288.019 62.3817 287.511L62.4289 290.91L60.5565 287.211C59.4723 287.158 58.3883 287.319 57.3668 287.686C56.3452 288.053 55.4062 288.617 54.6036 289.347C53.8011 290.077 53.1508 290.959 52.6901 291.94C52.2294 292.922 51.9674 293.985 51.919 295.068C51.8707 296.021 51.9902 296.974 52.2723 297.886C52.7689 299.508 53.7548 300.937 55.0953 301.978C56.4358 303.019 58.0655 303.621 59.7617 303.702Z" fill="#57B894"/>
<path d="M39.6723 290.369C40.9408 290.416 42.2028 290.169 43.3602 289.648C44.5175 289.128 45.5388 288.347 46.3445 287.367C47.1502 286.388 47.7185 285.235 48.0052 284C48.2918 282.765 48.289 281.48 47.997 280.247C47.705 279.013 47.1317 277.863 46.3217 276.887C45.5118 275.91 44.4871 275.134 43.3275 274.619C42.1679 274.103 40.9048 273.862 39.6365 273.914C38.3683 273.966 37.1293 274.31 36.016 274.919L37.4762 278.918L34.4734 276.036C32.8642 277.508 31.905 279.558 31.8062 281.735C31.767 282.5 31.8363 283.266 32.0122 284.011C32.4201 285.761 33.3894 287.329 34.7724 288.476C36.1553 289.624 37.8761 290.289 39.6723 290.369Z" fill="#57B894"/>
<path opacity="0.1" d="M42.0275 266.061C43.9351 266.267 45.7898 266.861 47.7034 266.979C49.6169 267.097 51.7189 266.644 52.9318 265.156C53.5794 264.356 53.9092 263.344 54.4567 262.468C54.9797 261.654 55.6956 260.981 56.541 260.509C57.0408 261.551 57.3156 262.685 57.3478 263.84C57.3799 264.994 57.1686 266.142 56.7275 267.21C56.2865 268.277 55.6255 269.24 54.7877 270.036C53.9498 270.832 52.9538 271.442 51.8642 271.829C50.7747 272.215 49.616 272.368 48.4635 272.277C47.3109 272.187 46.1902 271.856 45.1743 271.305C44.1583 270.753 43.2698 269.995 42.5663 269.079C41.8629 268.162 41.3604 267.108 41.0913 265.985C41.4014 265.985 41.7135 266.01 42.0275 266.061Z" fill="black"/>
<path opacity="0.1" d="M39.6723 290.369C41.0975 290.441 42.517 290.143 43.792 289.503C45.067 288.862 46.1538 287.903 46.946 286.717C47.7382 285.532 48.2088 284.161 48.3116 282.739C48.4144 281.317 48.146 279.893 47.5326 278.606C46.8769 279.047 46.3131 279.61 45.8722 280.265C45.2835 281.153 44.9243 282.182 44.2354 282.994C42.946 284.505 40.7498 284.999 38.7538 284.911C36.7579 284.823 34.8325 284.252 32.866 284.07C32.5893 284.07 32.3125 284.029 32.0299 284.023C32.4392 285.767 33.4068 287.331 34.786 288.476C36.1653 289.621 37.8808 290.286 39.6723 290.369Z" fill="black"/>
<path opacity="0.1" d="M59.7617 303.702C61.1736 303.774 62.5802 303.481 63.8462 302.853C65.1123 302.224 66.1953 301.281 66.9911 300.114C67.787 298.947 68.269 297.595 68.3908 296.188C68.5127 294.781 68.2702 293.367 67.6868 292.081C67.0012 292.528 66.4027 293.096 65.9204 293.757C65.2786 294.663 64.8783 295.709 64.154 296.545C62.7586 298.091 60.4153 298.638 58.3074 298.591C56.1996 298.544 54.286 298.044 52.2547 297.885C52.7523 299.51 53.7409 300.941 55.0849 301.983C56.4289 303.024 58.0625 303.625 59.7617 303.702Z" fill="black"/>
<path opacity="0.1" d="M55.6402 319.729C56.5342 321.725 58.1853 323.284 60.2302 324.064C62.2752 324.844 64.5465 324.78 66.5445 323.887C68.5425 322.994 70.1035 321.345 70.8842 319.302C71.6649 317.259 71.6012 314.991 70.7072 312.995C70.0252 313.44 69.4139 313.985 68.8937 314.612C68.1048 315.565 67.5866 316.653 66.6799 317.553C64.9901 319.211 62.264 319.905 59.8323 319.958C58.4316 319.965 57.0318 319.888 55.6402 319.729Z" fill="black"/>
<path d="M76.2889 331.897C76.2889 331.897 69.7651 331.698 67.7986 330.298C65.8321 328.898 57.7892 327.234 57.2829 329.474C56.7765 331.715 47.4796 340.649 54.8394 340.684C62.1992 340.72 71.9495 339.543 73.9161 338.332C75.8826 337.12 76.2889 331.897 76.2889 331.897Z" fill="#656380"/>
<path opacity="0.2" d="M54.7099 339.908C62.0756 339.967 71.82 338.732 73.7807 337.555C75.2762 336.644 75.8708 333.385 76.071 331.88H76.2889C76.2889 331.88 75.8767 337.138 73.9338 338.349C71.9908 339.561 62.2228 340.743 54.8571 340.702C52.7316 340.702 52.0015 339.931 52.0427 338.814C52.3194 339.502 53.1261 339.89 54.7099 339.908Z" fill="black"/>
<path d="M580 65.4302H113C106.359 65.4302 100.977 70.8072 100.977 77.44V321.611C100.977 328.244 106.359 333.621 113 333.621H580C586.64 333.621 592.023 328.244 592.023 321.611V77.44C592.023 70.8072 586.64 65.4302 580 65.4302Z" fill="white"/>
<path d="M101.271 78.6633H259.065V333.915H113.294C110.105 333.915 107.047 332.649 104.792 330.397C102.538 328.145 101.271 325.09 101.271 321.905V78.6633Z" fill="#67AFD0"/>
<path d="M592.023 77.44V84.2506H100.977V77.44C100.977 74.2548 102.243 71.2001 104.498 68.9478C106.753 66.6955 109.811 65.4302 113 65.4302H580C583.189 65.4302 586.247 66.6955 588.502 68.9478C590.757 71.2001 592.023 74.2548 592.023 77.44Z" fill="#3F3D56"/>
<path d="M113.635 78.6634C115.587 78.6634 117.168 77.0834 117.168 75.1345C117.168 73.1856 115.587 71.6057 113.635 71.6057C111.684 71.6057 110.103 73.1856 110.103 75.1345C110.103 77.0834 111.684 78.6634 113.635 78.6634Z" fill="#6C63FF"/>
<path d="M122.467 78.6634C124.418 78.6634 126 77.0834 126 75.1345C126 73.1856 124.418 71.6057 122.467 71.6057C120.516 71.6057 118.935 73.1856 118.935 75.1345C118.935 77.0834 120.516 78.6634 122.467 78.6634Z" fill="#6C63FF"/>
<path d="M131.299 78.6634C133.25 78.6634 134.832 77.0834 134.832 75.1345C134.832 73.1856 133.25 71.6057 131.299 71.6057C129.348 71.6057 127.766 73.1856 127.766 75.1345C127.766 77.0834 129.348 78.6634 131.299 78.6634Z" fill="#6C63FF"/>
<path d="M325.015 154.315C324.809 154.315 324.126 154.315 323.938 154.315L320.046 154.415C320.026 154.416 320.006 154.412 319.989 154.402C319.971 154.393 319.956 154.379 319.946 154.362L314.117 145.664C314.031 145.528 313.912 145.416 313.771 145.339C313.63 145.262 313.471 145.222 313.31 145.223H311.891C311.556 145.223 311.438 145.558 311.562 145.87L314.558 154.409C314.566 154.427 314.569 154.447 314.568 154.466C314.566 154.485 314.56 154.504 314.55 154.52C314.539 154.536 314.525 154.55 314.508 154.559C314.491 154.569 314.472 154.574 314.452 154.574L307.122 154.68C307.047 154.683 306.971 154.668 306.903 154.636C306.834 154.605 306.774 154.557 306.728 154.498L304.508 151.804C304.419 151.689 304.305 151.596 304.174 151.533C304.043 151.47 303.9 151.438 303.754 151.439H302.747C302.709 151.439 302.671 151.448 302.637 151.465C302.603 151.483 302.574 151.508 302.552 151.539C302.53 151.571 302.516 151.607 302.511 151.645C302.506 151.683 302.51 151.721 302.524 151.757L303.701 155.874C303.79 156.103 303.79 156.357 303.701 156.586L302.524 160.703C302.51 160.738 302.505 160.776 302.51 160.814C302.515 160.852 302.529 160.888 302.551 160.919C302.574 160.95 302.603 160.975 302.637 160.991C302.672 161.008 302.709 161.016 302.747 161.014H303.748C303.893 161.015 304.037 160.982 304.167 160.919C304.298 160.856 304.412 160.764 304.502 160.65L306.763 157.921C306.809 157.861 306.869 157.812 306.938 157.779C307.006 157.747 307.081 157.731 307.157 157.732L314.447 157.891C314.465 157.893 314.484 157.899 314.5 157.909C314.516 157.918 314.53 157.932 314.54 157.948C314.55 157.963 314.557 157.981 314.559 158C314.561 158.019 314.559 158.038 314.553 158.056L311.556 166.59C311.432 166.902 311.556 167.237 311.885 167.237H313.304C313.466 167.237 313.625 167.196 313.766 167.118C313.907 167.04 314.026 166.927 314.111 166.79L319.946 158.079C319.957 158.063 319.972 158.049 319.989 158.04C320.007 158.031 320.026 158.026 320.046 158.027L323.938 158.127C324.132 158.127 324.809 158.127 325.015 158.127C327.665 158.127 329.343 157.274 329.343 156.215C329.343 155.156 327.659 154.315 325.015 154.315Z" fill="#3F3D56"/>
<path d="M316.072 224.733C316.029 224.699 315.976 224.681 315.921 224.681C315.867 224.681 315.814 224.699 315.771 224.733L306.427 232.202C306.401 232.225 306.379 232.253 306.364 232.284C306.348 232.316 306.34 232.35 306.339 232.385V246.147C306.339 246.179 306.351 246.209 306.373 246.232C306.395 246.255 306.425 246.269 306.457 246.271H312.933C312.965 246.269 312.995 246.255 313.017 246.232C313.039 246.209 313.051 246.179 313.051 246.147V237.754C313.053 237.723 313.066 237.693 313.089 237.671C313.112 237.649 313.143 237.637 313.175 237.637H318.686C318.717 237.637 318.747 237.649 318.769 237.671C318.791 237.693 318.804 237.723 318.804 237.754V246.129C318.804 246.161 318.816 246.192 318.838 246.215C318.86 246.238 318.89 246.251 318.921 246.253H325.398C325.43 246.251 325.46 246.238 325.482 246.215C325.504 246.192 325.516 246.161 325.516 246.129V232.367C325.516 232.332 325.508 232.297 325.492 232.266C325.477 232.234 325.455 232.207 325.427 232.185L316.072 224.733Z" fill="#3F3D56"/>
<path d="M328.065 230.726L316.743 221.663C316.51 221.479 316.221 221.38 315.924 221.381C315.626 221.38 315.335 221.479 315.1 221.663L310.172 225.668V223.145C310.173 223.129 310.17 223.113 310.165 223.098C310.159 223.083 310.151 223.07 310.14 223.058C310.129 223.047 310.115 223.037 310.101 223.031C310.086 223.025 310.07 223.022 310.054 223.022H306.463C306.447 223.022 306.431 223.025 306.416 223.031C306.401 223.037 306.388 223.047 306.377 223.058C306.366 223.07 306.358 223.083 306.352 223.098C306.346 223.113 306.344 223.129 306.345 223.145V228.662L303.79 230.761C303.699 230.832 303.623 230.921 303.569 231.022C303.514 231.123 303.481 231.235 303.472 231.35C303.465 231.467 303.483 231.585 303.525 231.695C303.567 231.806 303.631 231.906 303.713 231.991C303.79 232.069 303.882 232.131 303.983 232.173C304.084 232.215 304.192 232.237 304.302 232.238C304.494 232.237 304.68 232.173 304.832 232.055L315.842 223.198C315.869 223.189 315.898 223.189 315.924 223.198C315.949 223.191 315.976 223.191 316.001 223.198L327.017 232.02C327.144 232.12 327.298 232.182 327.459 232.198C327.621 232.214 327.783 232.183 327.927 232.109C328.072 232.035 328.192 231.922 328.274 231.782C328.356 231.642 328.396 231.482 328.389 231.32C328.378 231.205 328.343 231.094 328.287 230.993C328.232 230.892 328.156 230.803 328.065 230.732V230.726Z" fill="#3F3D56"/>
<path opacity="0.3" d="M559.205 152.998H356.356C355.953 152.998 355.626 153.324 355.626 153.727V158.738C355.626 159.141 355.953 159.467 356.356 159.467H559.205C559.608 159.467 559.935 159.141 559.935 158.738V153.727C559.935 153.324 559.608 152.998 559.205 152.998Z" fill="#CAAD16"/>
<path opacity="0.3" d="M559.205 230.591H356.356C355.953 230.591 355.626 230.917 355.626 231.32V236.331C355.626 236.734 355.953 237.06 356.356 237.06H559.205C559.608 237.06 559.935 236.734 559.935 236.331V231.32C559.935 230.917 559.608 230.591 559.205 230.591Z" fill="#CAAD16"/>
<path d="M559.205 164.531H517.683C517.28 164.531 516.953 164.858 516.953 165.261V178.505C516.953 178.908 517.28 179.235 517.683 179.235H559.205C559.608 179.235 559.935 178.908 559.935 178.505V165.261C559.935 164.858 559.608 164.531 559.205 164.531Z" fill="#67AFD0"/>
<path d="M559.205 242.165H517.683C517.28 242.165 516.953 242.492 516.953 242.895V256.14C516.953 256.542 517.28 256.869 517.683 256.869H559.205C559.608 256.869 559.935 256.542 559.935 256.14V242.895C559.935 242.492 559.608 242.165 559.205 242.165Z" fill="#67AFD0"/>
<path d="M569.167 268.296L568.148 269.473C568.148 269.473 555.754 270.649 556.255 272.643C556.755 274.636 571.18 269.967 571.18 269.967L569.167 268.296Z" fill="#FFC1C7"/>
<path d="M591.635 267.291C591.635 267.291 578.387 271.996 571.18 269.973L574.531 276.671C574.531 276.671 591.635 276.166 594.655 273.143C597.676 270.12 591.635 267.291 591.635 267.291Z" fill="#FF6584"/>
<path opacity="0.1" d="M591.635 267.291C591.635 267.291 578.387 271.996 571.18 269.973L574.531 276.671C574.531 276.671 591.635 276.166 594.655 273.143C597.676 270.12 591.635 267.291 591.635 267.291Z" fill="black"/>
<path d="M582.662 231.361C587.569 231.361 591.546 227.388 591.546 222.486C591.546 217.585 587.569 213.611 582.662 213.611C577.755 213.611 573.777 217.585 573.777 222.486C573.777 227.388 577.755 231.361 582.662 231.361Z" fill="#FFC1C7"/>
<path d="M590.257 230.82C590.572 231.405 590.968 231.942 591.435 232.414C592.652 233.737 594.106 234.822 595.721 235.614C590.676 236.64 585.579 237.398 580.454 237.884C580.995 235.978 580.283 233.943 579.329 232.214C578.375 230.485 577.151 228.868 576.55 226.98L582.556 227.144C583.645 227.144 584.74 227.203 585.829 227.144C586.648 227.103 588.002 226.615 588.773 226.797C590.328 227.168 589.539 229.397 590.257 230.82Z" fill="#FFC1C7"/>
<path d="M610.417 272.484L615.445 278.512C615.445 278.512 623.818 298.109 605.565 300.097C587.313 302.085 573.706 298.585 573.706 298.585C573.706 298.585 566.329 295.057 566.158 297.75C565.987 300.444 565.322 307.966 561.295 315.336L557.762 323.375C557.223 323.953 556.822 324.645 556.59 325.4C556.359 326.155 556.302 326.953 556.425 327.733C556.926 330.245 545.186 331.08 545.356 327.733C545.356 327.733 547.034 324.887 547.034 323.211C547.034 321.535 549.713 317.518 549.713 317.518L554.577 293.404C554.577 293.404 554.241 281.006 565.646 283.353C577.051 285.699 593.319 282.847 593.319 282.847L597.004 269.955L610.417 272.484Z" fill="#575A89"/>
<path opacity="0.1" d="M610.417 272.484L615.445 278.512C615.445 278.512 623.818 298.109 605.565 300.097C587.313 302.085 573.706 298.585 573.706 298.585C573.706 298.585 566.329 295.057 566.158 297.75C565.987 300.444 565.322 307.966 561.295 315.336L557.762 323.375C557.223 323.953 556.822 324.645 556.59 325.4C556.359 326.155 556.302 326.953 556.425 327.733C556.926 330.245 545.186 331.08 545.356 327.733C545.356 327.733 547.034 324.887 547.034 323.211C547.034 321.535 549.713 317.518 549.713 317.518L554.577 293.404C554.577 293.404 554.241 281.006 565.646 283.353C577.051 285.699 593.319 282.847 593.319 282.847L597.004 269.955L610.417 272.484Z" fill="black"/>
<path d="M633.132 292.916V297.944C633.132 298.1 633.07 298.25 632.96 298.36C632.849 298.47 632.7 298.532 632.543 298.532C632.387 298.532 632.238 298.47 632.127 298.36C632.017 298.25 631.955 298.1 631.955 297.944V293.757C631.955 293.601 631.893 293.451 631.782 293.341C631.672 293.231 631.522 293.169 631.366 293.169H620.285C620.129 293.169 619.979 293.231 619.869 293.341C619.758 293.451 619.696 293.601 619.696 293.757V297.944C619.696 298.1 619.634 298.25 619.524 298.36C619.413 298.47 619.264 298.532 619.107 298.532C618.951 298.532 618.802 298.47 618.691 298.36C618.581 298.25 618.519 298.1 618.519 297.944V292.916C618.519 292.76 618.581 292.61 618.691 292.5C618.802 292.39 618.951 292.328 619.107 292.328H632.52C632.599 292.324 632.678 292.337 632.752 292.365C632.827 292.394 632.894 292.436 632.952 292.491C633.009 292.546 633.054 292.612 633.085 292.685C633.116 292.758 633.132 292.836 633.132 292.916Z" fill="#3C354C"/>
<path d="M581.519 335.85C581.483 336.711 581.775 337.555 582.336 338.21C582.898 338.865 583.688 339.283 584.546 339.379L663.961 341.337C663.995 341.34 664.03 341.336 664.062 341.325C664.095 341.314 664.125 341.296 664.15 341.272C664.185 341.243 664.208 341.201 664.214 341.155L665.268 336.261C665.326 335.983 665.351 335.699 665.345 335.415L663.649 299.909C663.632 299.326 663.461 298.758 663.155 298.262L661.977 296.286C661.938 296.223 661.888 296.167 661.83 296.121C661.726 296.044 661.6 296.002 661.471 296.003L586.695 297.115C585.825 297.128 584.993 297.471 584.368 298.075C583.744 298.68 583.373 299.5 583.333 300.367L581.519 335.85Z" fill="#3F3D56"/>
<path opacity="0.1" d="M661.812 296.139L664.167 341.296L664.232 341.178L665.286 336.285C665.343 336.006 665.369 335.722 665.362 335.438L663.667 299.932C663.649 299.349 663.479 298.782 663.172 298.285L661.994 296.309C661.945 296.241 661.883 296.183 661.812 296.139Z" fill="black"/>
<path d="M591.552 272.043C591.552 272.043 606.896 266.285 615.445 278.512C615.445 278.512 617.624 297.439 608.904 298.274C600.184 299.109 588.785 298.944 586.1 296.098C583.415 293.251 566.482 285.211 566.482 285.211C566.482 285.211 558.05 280.918 556.402 286.499C554.753 292.081 554.577 293.422 554.577 293.422C554.577 293.422 545.857 299.785 542.336 300.956C542.336 300.956 539.981 304.308 538.65 304.308C537.319 304.308 529.094 306.149 529.93 299.95L543.513 287.558L557.091 274.325C557.091 274.325 560.947 268.632 570.845 271.643C577.41 273.596 584.07 275.218 590.799 276.501L591.552 272.043Z" fill="#575A89"/>
<path d="M555.919 327.422C555.919 327.422 559.104 335.462 556.425 336.467C553.746 337.473 548.041 336.803 548.041 336.803C548.041 336.803 541.329 335.962 539.657 336.132C537.985 336.303 531.102 334.956 532.109 332.28C533.115 329.604 538.314 330.268 538.314 330.268L543.025 328.092C543.025 328.092 543.531 326.416 544.703 327.087C545.874 327.757 549.213 330.268 555.919 327.422Z" fill="#CBCEDA"/>
<path d="M538.479 303.626C538.479 303.626 542.012 311.495 536.301 310.825C530.589 310.154 526.238 308.984 524.566 308.819C522.894 308.654 518.39 307.102 519.09 304.002C519.128 303.808 519.144 303.611 519.138 303.414C519.138 302.996 519.726 302.185 524.231 302.308C524.231 302.308 527.581 302.308 528.941 299.956C528.923 299.95 533.951 306.314 538.479 303.626Z" fill="#CBCEDA"/>
<path d="M576.544 236.637C576.544 236.637 588.614 229.103 598.677 236.637C608.739 244.171 615.445 278.512 615.445 278.512L592.135 273.319C592.135 273.319 591.134 269.302 589.78 268.614C588.426 267.926 588.267 265.085 588.267 265.085C588.267 265.085 581.06 262.909 581.561 254.534C582.061 246.159 576.544 236.637 576.544 236.637Z" fill="#FF6584"/>
<path d="M582.75 236.972H576.544C576.544 236.972 572.853 241.16 572.352 251.711L570.338 260.104C570.338 260.104 566.146 270.155 568.66 271.831C571.174 273.507 576.044 273.337 577.045 269.99C578.046 266.644 584.958 247.194 584.958 247.194L582.75 236.972Z" fill="#FF6584"/>
<path d="M580.972 210.935C582.51 210.309 584.192 210.12 585.831 210.39C587.47 210.659 589.002 211.378 590.257 212.464C593.478 215.335 594.125 220.022 594.967 224.227C595.809 228.432 597.423 233.173 601.444 234.814C599.644 235.055 597.816 235.002 596.033 234.655L602.068 240.06L591.9 236.749C588.709 235.708 585.358 234.655 582.055 235.243C576.58 236.213 572.764 241.36 567.506 243.165L568.095 240.313H564.562C565.405 239.691 566.096 238.887 566.582 237.96C566.417 237.757 566.212 237.59 565.981 237.469C565.749 237.347 565.495 237.274 565.234 237.254C563.762 228.085 569.214 219.022 576.309 213.041C577.71 211.865 579.253 210.735 581.054 210.441C582.856 210.147 584.964 210.953 585.594 212.664" fill="#3C354C"/>
<path d="M153.36 205.12C151.973 205.12 150.72 204.813 149.6 204.2C148.493 203.587 147.62 202.74 146.98 201.66C146.353 200.567 146.04 199.347 146.04 198C146.04 196.653 146.353 195.44 146.98 194.36C147.62 193.267 148.5 192.413 149.62 191.8C150.74 191.187 151.993 190.88 153.38 190.88C154.42 190.88 155.38 191.053 156.26 191.4C157.14 191.747 157.887 192.253 158.5 192.92L157.56 193.86C156.467 192.753 155.087 192.2 153.42 192.2C152.313 192.2 151.307 192.453 150.4 192.96C149.493 193.467 148.78 194.16 148.26 195.04C147.753 195.92 147.5 196.907 147.5 198C147.5 199.093 147.753 200.08 148.26 200.96C148.78 201.84 149.493 202.533 150.4 203.04C151.307 203.547 152.313 203.8 153.42 203.8C155.1 203.8 156.48 203.24 157.56 202.12L158.5 203.06C157.887 203.727 157.133 204.24 156.24 204.6C155.36 204.947 154.4 205.12 153.36 205.12ZM170.486 194.48V205H169.126V202.92C168.7 203.627 168.133 204.167 167.426 204.54C166.733 204.913 165.946 205.1 165.066 205.1C164.08 205.1 163.186 204.873 162.386 204.42C161.586 203.967 160.96 203.333 160.506 202.52C160.053 201.707 159.826 200.78 159.826 199.74C159.826 198.7 160.053 197.773 160.506 196.96C160.96 196.147 161.586 195.52 162.386 195.08C163.186 194.627 164.08 194.4 165.066 194.4C165.92 194.4 166.686 194.58 167.366 194.94C168.06 195.287 168.626 195.8 169.066 196.48V194.48H170.486ZM165.186 203.84C165.92 203.84 166.58 203.673 167.166 203.34C167.766 202.993 168.233 202.507 168.566 201.88C168.913 201.253 169.086 200.54 169.086 199.74C169.086 198.94 168.913 198.227 168.566 197.6C168.233 196.973 167.766 196.493 167.166 196.16C166.58 195.813 165.92 195.64 165.186 195.64C164.44 195.64 163.766 195.813 163.166 196.16C162.58 196.493 162.113 196.973 161.766 197.6C161.433 198.227 161.266 198.94 161.266 199.74C161.266 200.54 161.433 201.253 161.766 201.88C162.113 202.507 162.58 202.993 163.166 203.34C163.766 203.673 164.44 203.84 165.186 203.84ZM175.801 196.54C176.134 195.833 176.628 195.3 177.281 194.94C177.948 194.58 178.768 194.4 179.741 194.4V195.78L179.401 195.76C178.294 195.76 177.428 196.1 176.801 196.78C176.174 197.46 175.861 198.413 175.861 199.64V205H174.441V194.48H175.801V196.54ZM182.312 194.48H183.732V205H182.312V194.48ZM183.032 192.18C182.739 192.18 182.492 192.08 182.292 191.88C182.092 191.68 181.992 191.44 181.992 191.16C181.992 190.893 182.092 190.66 182.292 190.46C182.492 190.26 182.739 190.16 183.032 190.16C183.325 190.16 183.572 190.26 183.772 190.46C183.972 190.647 184.072 190.873 184.072 191.14C184.072 191.433 183.972 191.68 183.772 191.88C183.572 192.08 183.325 192.18 183.032 192.18Z" fill="white"/>
<path d="M196.483 197.7H199.983V205H197.243V204.14C196.296 204.9 195.043 205.28 193.483 205.28C192.176 205.28 190.983 205 189.903 204.44C188.823 203.88 187.963 203.067 187.323 202C186.696 200.92 186.383 199.633 186.383 198.14C186.383 196.7 186.716 195.42 187.383 194.3C188.05 193.167 188.976 192.287 190.163 191.66C191.35 191.033 192.69 190.72 194.183 190.72C195.49 190.72 196.663 190.94 197.703 191.38C198.743 191.82 199.61 192.453 200.303 193.28L197.783 195.56C196.836 194.52 195.703 194 194.383 194C193.17 194 192.196 194.373 191.463 195.12C190.743 195.853 190.383 196.853 190.383 198.12C190.383 199.4 190.723 200.38 191.403 201.06C192.083 201.74 192.943 202.08 193.983 202.08C194.983 202.08 195.816 201.813 196.483 201.28V197.7ZM207.754 205.18C206.594 205.18 205.547 204.94 204.614 204.46C203.68 203.98 202.947 203.313 202.414 202.46C201.894 201.607 201.634 200.64 201.634 199.56C201.634 198.493 201.894 197.533 202.414 196.68C202.947 195.827 203.674 195.167 204.594 194.7C205.527 194.22 206.58 193.98 207.754 193.98C208.927 193.98 209.98 194.22 210.914 194.7C211.847 195.167 212.574 195.827 213.094 196.68C213.614 197.52 213.874 198.48 213.874 199.56C213.874 200.64 213.614 201.607 213.094 202.46C212.574 203.313 211.847 203.98 210.914 204.46C209.98 204.94 208.927 205.18 207.754 205.18ZM207.754 202.16C208.42 202.16 208.967 201.933 209.394 201.48C209.82 201.013 210.034 200.373 210.034 199.56C210.034 198.76 209.82 198.133 209.394 197.68C208.967 197.227 208.42 197 207.754 197C207.087 197 206.54 197.227 206.114 197.68C205.687 198.133 205.474 198.76 205.474 199.56C205.474 200.373 205.687 201.013 206.114 201.48C206.54 201.933 207.087 202.16 207.754 202.16Z" fill="#CAAD16"/>
</g>
<defs>
<clipPath id="clip0">
<rect width="693" height="352" fill="white"/>
</clipPath>
</defs>
</svg>
