<svg width="75" height="75" viewBox="0 0 75 75" fill="none" xmlns="http://www.w3.org/2000/svg">
<path d="M71.4626 28.5715V17.8572C71.4609 13.1218 69.5781 8.58074 66.228 5.23226C62.8779 1.88377 58.3347 0.00185166 53.5969 0.000138349H21.4388C17.5707 -0.0151656 13.8047 1.23959 10.7194 3.57156C10.3297 3.82802 9.97011 4.12753 9.64745 4.46442C7.73491 6.13215 6.20289 8.19087 5.15495 10.5014C4.10701 12.8119 3.56758 15.3204 3.57313 17.8572V28.5715C2.62631 28.5742 1.71905 28.9514 1.04955 29.6206C0.380044 30.2897 0.00271512 31.1966 0 32.1429V60.7143C0.00271512 61.6607 0.380044 62.5675 1.04955 63.2367C1.71905 63.9059 2.62631 64.283 3.57313 64.2857H7.14626V69.6429C7.14626 71.0637 7.71094 72.4263 8.71608 73.4309C9.72122 74.4356 11.0845 75 12.506 75C13.9274 75 15.2907 74.4356 16.2958 73.4309C17.301 72.4263 17.8657 71.0637 17.8657 69.6429V64.2857H57.1701V69.6429C57.1701 71.0637 57.7348 72.4263 58.7399 73.4309C59.745 74.4356 61.1083 75 62.5298 75C63.9513 75 65.3145 74.4356 66.3197 73.4309C67.3248 72.4263 67.8895 71.0637 67.8895 69.6429V64.2857H71.4269C72.3737 64.283 73.281 63.9059 73.9505 63.2367C74.62 62.5675 74.9973 61.6607 75 60.7143V32.1429C74.9993 31.2021 74.6275 30.2995 73.9653 29.6309C73.3031 28.9623 72.4038 28.5816 71.4626 28.5715ZM14.2925 17.8572C14.2979 16.47 14.7058 15.1141 15.4669 13.9539C16.2279 12.7938 17.3094 11.8793 18.5801 11.3213H18.6158C19.5024 10.9191 20.465 10.7121 21.4386 10.7144H53.5968C55.1905 10.7242 56.7359 11.2626 57.9904 12.2451C59.245 13.2276 60.1377 14.5986 60.5284 16.143C60.6745 16.7026 60.7467 17.2789 60.743 17.8572V28.5715H14.2923L14.2925 17.8572ZM16.0791 50C15.019 50 13.9828 49.6859 13.1014 49.0972C12.22 48.5086 11.533 47.6719 11.1274 46.693C10.7217 45.7141 10.6156 44.637 10.8224 43.5978C11.0292 42.5586 11.5396 41.6041 12.2892 40.8549C13.0388 40.1056 13.9938 39.5954 15.0335 39.3887C16.0731 39.182 17.1508 39.2881 18.1301 39.6936C19.1095 40.099 19.9466 40.7857 20.5355 41.6667C21.1244 42.5476 21.4388 43.5834 21.4388 44.6429C21.4398 45.3467 21.3018 46.0438 21.0328 46.6942C20.7638 47.3446 20.3691 47.9355 19.8712 48.4332C19.3733 48.9308 18.782 49.3254 18.1313 49.5943C17.4806 49.8632 16.7832 50.001 16.0791 50ZM58.9566 50C57.8966 50 56.8604 49.6859 55.979 49.0972C55.0976 48.5086 54.4106 47.6719 54.0049 46.693C53.5993 45.7141 53.4931 44.637 53.6999 43.5978C53.9067 42.5586 54.4172 41.6041 55.1668 40.8549C55.9163 40.1056 56.8713 39.5954 57.911 39.3887C58.9507 39.182 60.0284 39.2881 61.0077 39.6936C61.9871 40.099 62.8241 40.7857 63.4131 41.6667C64.002 42.5476 64.3163 43.5834 64.3163 44.6429C64.3173 45.3467 64.1794 46.0438 63.9104 46.6942C63.6414 47.3446 63.2466 47.9355 62.7487 48.4332C62.2508 48.9308 61.6596 49.3254 61.0089 49.5943C60.3582 49.8632 59.6608 50.001 58.9566 50Z" fill="#FFC0C6"/>
</svg>
