<svg width="78" height="75" viewBox="0 0 78 75" fill="none" xmlns="http://www.w3.org/2000/svg">
<path d="M73.9209 28.5715V17.8572C73.9191 13.1218 71.9715 8.58074 68.5062 5.23226C65.0409 1.88377 60.3414 0.00185166 55.4407 0.000138349H22.1763C18.1751 -0.0151656 14.2795 1.23959 11.0881 3.57156C10.685 3.82802 10.3131 4.12753 9.97933 4.46442C8.00099 6.13215 6.41627 8.19087 5.33228 10.5014C4.24829 12.8119 3.69031 15.3204 3.69605 17.8572V28.5715C2.71666 28.5742 1.77819 28.9514 1.08565 29.6206C0.393118 30.2897 0.00280852 31.1966 0 32.1429V60.7143C0.00280852 61.6607 0.393118 62.5675 1.08565 63.2367C1.77819 63.9059 2.71666 64.283 3.69605 64.2857H7.39209V69.6429C7.39209 71.0637 7.9762 72.4263 9.01591 73.4309C10.0556 74.4356 11.4658 75 12.9362 75C14.4065 75 15.8167 74.4356 16.8564 73.4309C17.8961 72.4263 18.4802 71.0637 18.4802 69.6429V64.2857H59.1367V69.6429C59.1367 71.0637 59.7208 72.4263 60.7606 73.4309C61.8003 74.4356 63.2104 75 64.6808 75C66.1512 75 67.5613 74.4356 68.6011 73.4309C69.6408 72.4263 70.2249 71.0637 70.2249 69.6429V64.2857H73.884C74.8633 64.283 75.8018 63.9059 76.4944 63.2367C77.1869 62.5675 77.5772 61.6607 77.58 60.7143V32.1429C77.5793 31.2021 77.1947 30.2995 76.5097 29.6309C75.8247 28.9623 74.8945 28.5816 73.9209 28.5715ZM14.7842 17.8572C14.7897 16.47 15.2117 15.1141 15.9989 13.9539C16.7862 12.7938 17.9048 11.8793 19.2193 11.3213H19.2562C20.1732 10.9191 21.169 10.7121 22.1761 10.7144H55.4405C57.0891 10.7242 58.6876 11.2626 59.9853 12.2451C61.283 13.2276 62.2064 14.5986 62.6106 16.143C62.7617 16.7026 62.8364 17.2789 62.8326 17.8572V28.5715H14.784L14.7842 17.8572ZM16.6322 50C15.5357 50 14.4638 49.6859 13.5521 49.0972C12.6404 48.5086 11.9298 47.6719 11.5102 46.693C11.0905 45.7141 10.9808 44.637 11.1947 43.5978C11.4086 42.5586 11.9366 41.6041 12.712 40.8549C13.4873 40.1056 14.4752 39.5954 15.5506 39.3887C16.6261 39.182 17.7408 39.2881 18.7538 39.6936C19.7669 40.099 20.6327 40.7857 21.2419 41.6667C21.8511 42.5476 22.1763 43.5834 22.1763 44.6429C22.1773 45.3467 22.0346 46.0438 21.7564 46.6942C21.4781 47.3446 21.0698 47.9355 20.5547 48.4332C20.0397 48.9308 19.4282 49.3254 18.7551 49.5943C18.082 49.8632 17.3606 50.001 16.6322 50ZM60.9848 50C59.8882 50 58.8164 49.6859 57.9046 49.0972C56.9929 48.5086 56.2823 47.6719 55.8627 46.693C55.4431 45.7141 55.3333 44.637 55.5472 43.5978C55.7611 42.5586 56.2892 41.6041 57.0645 40.8549C57.8399 40.1056 58.8277 39.5954 59.9032 39.3887C60.9786 39.182 62.0933 39.2881 63.1064 39.6936C64.1194 40.099 64.9853 40.7857 65.5945 41.6667C66.2037 42.5476 66.5288 43.5834 66.5288 44.6429C66.5298 45.3467 66.3872 46.0438 66.1089 46.6942C65.8307 47.3446 65.4223 47.9355 64.9073 48.4332C64.3923 48.9308 63.7807 49.3254 63.1076 49.5943C62.4345 49.8632 61.7131 50.001 60.9848 50Z" fill="#FFC0C6"/>
</svg>
