<svg width="136" height="31" viewBox="0 0 136 31" fill="none" xmlns="http://www.w3.org/2000/svg">
<path d="M14.72 30.24C11.9467 30.24 9.44 29.6267 7.2 28.4C4.98667 27.1733 3.24 25.48 1.96 23.32C0.706667 21.1333 0.08 18.6933 0.08 16C0.08 13.3067 0.706667 10.88 1.96 8.72C3.24 6.53333 5 4.82667 7.24 3.6C9.48 2.37333 11.9867 1.76 14.76 1.76C16.84 1.76 18.76 2.10667 20.52 2.8C22.28 3.49333 23.7733 4.50667 25 5.84L23.12 7.72C20.9333 5.50666 18.1733 4.4 14.84 4.4C12.6267 4.4 10.6133 4.90666 8.8 5.92C6.98667 6.93333 5.56 8.32 4.52 10.08C3.50667 11.84 3 13.8133 3 16C3 18.1867 3.50667 20.16 4.52 21.92C5.56 23.68 6.98667 25.0667 8.8 26.08C10.6133 27.0933 12.6267 27.6 14.84 27.6C18.2 27.6 20.96 26.48 23.12 24.24L25 26.12C23.7733 27.4533 22.2667 28.48 20.48 29.2C18.72 29.8933 16.8 30.24 14.72 30.24ZM48.9725 8.96V30H46.2525V25.84C45.3992 27.2533 44.2658 28.3333 42.8525 29.08C41.4658 29.8267 39.8925 30.2 38.1325 30.2C36.1592 30.2 34.3725 29.7467 32.7725 28.84C31.1725 27.9333 29.9192 26.6667 29.0125 25.04C28.1058 23.4133 27.6525 21.56 27.6525 19.48C27.6525 17.4 28.1058 15.5467 29.0125 13.92C29.9192 12.2933 31.1725 11.04 32.7725 10.16C34.3725 9.25333 36.1592 8.8 38.1325 8.8C39.8392 8.8 41.3725 9.16 42.7325 9.88C44.1192 10.5733 45.2525 11.6 46.1325 12.96V8.96H48.9725ZM38.3725 27.68C39.8392 27.68 41.1592 27.3467 42.3325 26.68C43.5325 25.9867 44.4658 25.0133 45.1325 23.76C45.8258 22.5067 46.1725 21.08 46.1725 19.48C46.1725 17.88 45.8258 16.4533 45.1325 15.2C44.4658 13.9467 43.5325 12.9867 42.3325 12.32C41.1592 11.6267 39.8392 11.28 38.3725 11.28C36.8792 11.28 35.5325 11.6267 34.3325 12.32C33.1592 12.9867 32.2258 13.9467 31.5325 15.2C30.8658 16.4533 30.5325 17.88 30.5325 19.48C30.5325 21.08 30.8658 22.5067 31.5325 23.76C32.2258 25.0133 33.1592 25.9867 34.3325 26.68C35.5325 27.3467 36.8792 27.68 38.3725 27.68ZM59.6019 13.08C60.2685 11.6667 61.2552 10.6 62.5619 9.88C63.8952 9.16 65.5352 8.8 67.4819 8.8V11.56L66.8019 11.52C64.5885 11.52 62.8552 12.2 61.6019 13.56C60.3485 14.92 59.7219 16.8267 59.7219 19.28V30H56.8819V8.96H59.6019V13.08ZM72.6241 8.96H75.4641V30H72.6241V8.96ZM74.0641 4.36C73.4774 4.36 72.9841 4.16 72.5841 3.76C72.1841 3.36 71.9841 2.88 71.9841 2.32C71.9841 1.78667 72.1841 1.32 72.5841 0.919998C72.9841 0.519998 73.4774 0.319998 74.0641 0.319998C74.6507 0.319998 75.1441 0.519998 75.5441 0.919998C75.9441 1.29333 76.1441 1.74666 76.1441 2.28C76.1441 2.86667 75.9441 3.36 75.5441 3.76C75.1441 4.16 74.6507 4.36 74.0641 4.36Z" fill="#67AFD0"/>
<path d="M100.966 15.4H107.966V30H102.486V28.28C100.593 29.8 98.0863 30.56 94.9663 30.56C92.3529 30.56 89.9663 30 87.8063 28.88C85.6463 27.76 83.9263 26.1333 82.6463 24C81.3929 21.84 80.7663 19.2667 80.7663 16.28C80.7663 13.4 81.4329 10.84 82.7663 8.6C84.0996 6.33333 85.9529 4.57333 88.3263 3.32C90.6996 2.06666 93.3796 1.44 96.3663 1.44C98.9796 1.44 101.326 1.88 103.406 2.76C105.486 3.64 107.22 4.90667 108.606 6.56L103.566 11.12C101.673 9.04 99.4063 8 96.7663 8C94.3396 8 92.3929 8.74667 90.9263 10.24C89.4863 11.7067 88.7663 13.7067 88.7663 16.24C88.7663 18.8 89.4463 20.76 90.8063 22.12C92.1663 23.48 93.8863 24.16 95.9663 24.16C97.9663 24.16 99.6329 23.6267 100.966 22.56V15.4ZM123.508 30.36C121.188 30.36 119.094 29.88 117.228 28.92C115.361 27.96 113.894 26.6267 112.827 24.92C111.788 23.2133 111.268 21.28 111.268 19.12C111.268 16.9867 111.788 15.0667 112.827 13.36C113.894 11.6533 115.348 10.3333 117.188 9.4C119.054 8.44 121.161 7.96 123.508 7.96C125.854 7.96 127.961 8.44 129.828 9.4C131.694 10.3333 133.148 11.6533 134.188 13.36C135.228 15.04 135.748 16.96 135.748 19.12C135.748 21.28 135.228 23.2133 134.188 24.92C133.148 26.6267 131.694 27.96 129.828 28.92C127.961 29.88 125.854 30.36 123.508 30.36ZM123.508 24.32C124.841 24.32 125.934 23.8667 126.788 22.96C127.641 22.0267 128.068 20.7467 128.068 19.12C128.068 17.52 127.641 16.2667 126.788 15.36C125.934 14.4533 124.841 14 123.508 14C122.174 14 121.081 14.4533 120.228 15.36C119.374 16.2667 118.948 17.52 118.948 19.12C118.948 20.7467 119.374 22.0267 120.228 22.96C121.081 23.8667 122.174 24.32 123.508 24.32Z" fill="#CAAD16"/>
</svg>
