<svg width="52" height="52" viewBox="0 0 52 52" fill="none" xmlns="http://www.w3.org/2000/svg">
<path d="M46.8 11.5556V5.77778C46.8 2.59133 44.4678 0 41.6 0H7.8C3.4996 0 0 3.88844 0 8.66667V43.3333C0 49.6918 4.6644 52 7.8 52H46.8C49.6678 52 52 49.4087 52 46.2222V17.3333C52 14.1469 49.6678 11.5556 46.8 11.5556ZM7.8 5.77778H41.6V11.5556H7.8C7.13055 11.5223 6.49845 11.2034 6.03532 10.6653C5.57218 10.1271 5.3137 9.41124 5.3137 8.66667C5.3137 7.92209 5.57218 7.20621 6.03532 6.66808C6.49845 6.12995 7.13055 5.81105 7.8 5.77778ZM46.8 46.2222H7.8312C6.63 46.1876 5.2 45.6589 5.2 43.3333V16.7989C6.0164 17.1253 6.8822 17.3333 7.8 17.3333H46.8V46.2222Z" fill="#FFB8B8"/>
</svg>
