<svg width="79" height="93" viewBox="0 0 79 93" fill="none" xmlns="http://www.w3.org/2000/svg">
<path d="M39.5232 52.2147C53.83 52.2147 65.428 40.6167 65.428 26.3099C65.428 12.0031 53.83 0.40509 39.5232 0.40509C25.2163 0.40509 13.6183 12.0031 13.6183 26.3099C13.6183 40.6167 25.2163 52.2147 39.5232 52.2147Z" fill="#FFB8B8"/>
<path d="M63.241 48.8952C57.2672 55.1667 48.8476 59.084 39.5233 59.084C30.199 59.084 21.7794 55.1655 15.8055 48.8952C6.64044 52.5788 0.734192 58.3419 0.734192 64.8242C0.734192 75.945 18.1003 92.2279 39.5233 92.2279C60.9463 92.2279 78.3124 75.945 78.3124 64.8242C78.3124 58.3419 72.4061 52.5788 63.241 48.8952Z" fill="#FFB8B8"/>
</svg>
