<svg width="230" height="272" viewBox="0 0 230 272" fill="none" xmlns="http://www.w3.org/2000/svg">
<path d="M114.902 153.472C157.282 153.472 191.638 119.116 191.638 76.736C191.638 34.3559 157.282 0 114.902 0C72.5219 0 38.166 34.3559 38.166 76.736C38.166 119.116 72.5219 153.472 114.902 153.472Z" fill="#CAAD16"/>
<path d="M185.159 143.639C167.464 162.216 142.523 173.82 114.902 173.82C87.2815 173.82 62.3406 162.213 44.6448 143.639C17.4957 154.55 0 171.622 0 190.824C0 223.767 51.4422 272 114.902 272C178.362 272 229.804 223.767 229.804 190.824C229.804 171.622 212.309 154.55 185.159 143.639Z" fill="#CAAD16"/>
</svg>
