<svg width="384" height="384" viewBox="0 0 384 384" fill="none" xmlns="http://www.w3.org/2000/svg">
<path d="M72.8901 189.836V142.544C72.8901 108.763 98.5051 81.1244 129.813 81.1244C161.12 81.1244 186.733 108.763 186.733 137.63V189.834" stroke="#FF6584" stroke-width="25"/>
<path d="M129.812 301.984V253.471" stroke="#FF6584" stroke-width="25" stroke-linecap="round"/>
<path d="M246.625 307.092C246.625 342.198 217.901 370.923 182.794 370.923H76.8329C41.7246 370.923 13 342.198 13 307.092V248.366C13 213.258 41.7246 184.533 76.8329 184.533H182.794C217.901 184.533 246.625 213.258 246.625 248.366V307.092Z" stroke="#FF6584" stroke-width="25"/>
<path d="M278.716 16.7533C267.9 26.3046 261.988 38.1003 261.147 51.8116L261.007 54.0867L293.851 58.047L294.319 55.8977C296.173 47.3679 299.566 40.9795 304.402 36.9112C309.277 32.8074 315.21 30.8128 322.536 30.8128C330.028 30.8128 336.02 32.7607 340.344 36.6034C344.648 40.4285 346.739 44.8625 346.739 50.1634C346.739 53.9707 345.566 57.3703 343.156 60.5557C342.044 61.9897 338.384 65.5972 327.384 74.512C318.013 82.1056 311.903 88.8195 308.708 95.0356C305.537 101.202 303.931 109.105 303.931 118.524L304.078 128.301L306.459 128.291H336.913L336.871 125.832C336.695 115.786 337.808 111.27 338.775 109.25C339.748 107.215 342.532 103.441 350.279 97.0109C363.193 86.2883 371.423 77.9906 375.44 71.6456C379.515 65.2105 381.583 58.279 381.583 51.0399C381.583 38.0825 376.021 26.5994 365.051 16.9032C354.167 7.28909 339.395 2.41357 321.144 2.41357C303.764 2.41519 289.49 7.23915 278.716 16.7533Z" fill="#FF6584"/>
<path d="M321.14 0C303.156 0 288.346 5.02697 277.116 14.9424C265.803 24.9367 259.619 37.2914 258.737 51.665L258.455 56.2151L262.982 56.7597L291.38 60.1835L295.748 60.7104L296.682 56.4117C298.419 48.4168 301.54 42.4779 305.958 38.7609C310.381 35.039 315.802 33.2312 322.536 33.2312C329.517 33.2312 334.816 34.9246 338.738 38.4112C342.495 41.7497 344.324 45.594 344.324 50.1634C344.324 53.4197 343.314 56.3392 341.24 59.0863C340.336 60.2318 337.135 63.5042 325.864 72.6366C316.228 80.4445 309.913 87.4113 306.56 93.9319C303.214 100.443 301.517 108.716 301.517 118.525C301.517 119.529 301.556 122.242 301.629 125.968L301.717 130.711H306.461H334.455H339.374L339.289 125.794C339.112 115.714 340.257 111.757 340.955 110.294C341.666 108.808 344.023 105.347 351.821 98.8719C364.93 87.9882 373.323 79.5067 377.479 72.9427C381.807 66.116 384 58.7479 384 51.0431C384 37.3639 378.163 25.2702 366.651 15.097H366.649C355.309 5.07853 340 0 321.14 0ZM263.559 51.9615C264.365 38.8511 269.951 27.7209 280.314 18.566C290.682 9.41107 304.292 4.83363 321.14 4.83363C338.87 4.83363 352.971 9.46263 363.447 18.7174C373.924 27.9754 379.165 38.7496 379.165 51.0415C379.165 57.8456 377.243 64.284 373.397 70.3551C369.549 76.4277 361.332 84.6916 348.732 95.1516C342.212 100.565 338.166 104.917 336.592 108.209C335.155 111.219 334.433 116.399 334.433 123.746C334.433 124.437 334.439 125.147 334.454 125.876H306.459C306.382 121.854 306.349 119.402 306.349 118.524C306.349 109.454 307.849 101.993 310.858 96.1409C313.867 90.2873 319.88 83.7039 328.906 76.3907C337.931 69.0774 343.322 64.284 345.084 62.0155C347.796 58.4305 349.156 54.4814 349.156 50.1634C349.156 44.1842 346.752 39.0654 341.947 34.7973C337.148 30.5308 330.672 28.3976 322.534 28.3976C314.686 28.3976 308.125 30.6194 302.845 35.0615C297.563 39.5052 293.935 46.2804 291.956 55.3853L263.559 51.9615Z" fill="#FF6584"/>
<path d="M336.869 150.244H304.041V185.892H336.869V150.244Z" fill="#FF6584"/>
<path d="M339.286 147.828H334.452H306.457H301.624V152.662V183.477V188.31H306.457H334.452H339.286V183.477V152.662V147.828ZM306.457 152.662H334.452V183.477H306.457V152.662Z" fill="#FF6584"/>
</svg>
