<svg width="307" height="406" viewBox="0 0 307 406" fill="none" xmlns="http://www.w3.org/2000/svg">
<path d="M257.809 9.90009H0V391.087H257.809V9.90009Z" fill="#535461"/>
<path d="M187.55 400.95L0 391.086V9.89983L187.55 0.0365601V400.95Z" fill="#67AFD0"/>
<path d="M171.873 221.09C173.155 221.09 174.195 220.051 174.195 218.769C174.195 217.488 173.155 216.449 171.873 216.449C170.59 216.449 169.55 217.488 169.55 218.769C169.55 220.051 170.59 221.09 171.873 221.09Z" fill="#535461"/>
<path d="M171.873 219.115L173.483 221.902L175.092 224.688H171.873H168.653L170.262 221.902L171.873 219.115Z" fill="#535461"/>
<path d="M195.679 400.95L184.192 400.913L184.647 0.0365601H195.679V400.95Z" fill="#67AFD0"/>
<g opacity="0.1">
<path opacity="0.1" d="M195.805 400.913H184.192L184.773 0H195.805V400.913Z" fill="white"/>
</g>
<path opacity="0.1" d="M171.873 209.486C176.042 209.486 179.421 206.109 179.421 201.944C179.421 197.778 176.042 194.401 171.873 194.401C167.704 194.401 164.324 197.778 164.324 201.944C164.324 206.109 167.704 209.486 171.873 209.486Z" fill="black"/>
<path d="M171.873 208.326C176.042 208.326 179.421 204.949 179.421 200.783C179.421 196.618 176.042 193.241 171.873 193.241C167.704 193.241 164.324 196.618 164.324 200.783C164.324 204.949 167.704 208.326 171.873 208.326Z" fill="#535461"/>
<path opacity="0.1" d="M30.6697 9.34576V392.881" stroke="black" stroke-width="2" stroke-miterlimit="10"/>
<path opacity="0.1" d="M63.7667 7.02496V394.041" stroke="black" stroke-width="2" stroke-miterlimit="10"/>
<path opacity="0.1" d="M96.8638 5.28436V396.271" stroke="black" stroke-width="2" stroke-miterlimit="10"/>
<path opacity="0.1" d="M129.961 3.54382V398.683" stroke="black" stroke-width="2" stroke-miterlimit="10"/>
<path opacity="0.1" d="M163.058 1.80322V399.172" stroke="black" stroke-width="2" stroke-miterlimit="10"/>
<path d="M268.967 76.773C281.634 76.773 291.903 67.1619 291.903 55.3059C291.903 43.45 281.634 33.8388 268.967 33.8388C256.3 33.8388 246.032 43.45 246.032 55.3059C246.032 67.1619 256.3 76.773 268.967 76.773Z" fill="#2F2E41"/>
<path d="M202.192 189.04L196.386 197.163C196.386 197.163 168.515 202.965 178.966 211.668C189.418 220.371 204.515 203.545 204.515 203.545L212.644 193.102L202.192 189.04Z" fill="#FFB8B8"/>
<path d="M232.386 96.7897C232.386 96.7897 224.838 96.7897 223.096 107.233C221.354 117.677 219.612 152.488 219.612 152.488C219.612 152.488 195.225 184.399 199.289 188.46C203.354 192.521 207.999 200.064 210.902 198.904C213.806 197.743 238.774 163.512 238.774 163.512L232.386 96.7897Z" fill="#FF6584"/>
<path d="M255.612 67.1999C255.612 67.1999 255.032 89.8274 248.064 90.9878C241.096 92.1482 243.419 99.6907 243.419 99.6907C243.419 99.6907 266.064 113.035 281.161 99.6907L284.064 92.7284C284.064 92.7284 273.613 85.1859 278.258 74.7424L255.612 67.1999Z" fill="#FFB8B8"/>
<path d="M216.709 206.446C216.709 206.446 182.45 270.267 195.225 289.994C207.999 309.72 227.16 350.334 230.064 350.334C232.967 350.334 249.225 342.211 248.064 336.989C246.903 331.768 229.483 292.895 224.838 289.414C220.193 285.932 222.515 276.649 223.096 276.069C223.677 275.489 242.838 244.739 242.838 244.739C242.838 244.739 242.257 293.475 244.58 301.017C246.903 308.56 243.999 362.518 246.903 364.839C249.806 367.159 263.161 371.221 265.483 367.74C267.806 364.258 274.774 311.461 270.129 299.277L278.838 215.729L216.709 206.446Z" fill="#2F2E41"/>
<path d="M248.064 361.357L233.548 388.046C233.548 388.046 212.644 403.131 227.161 405.452C241.677 407.773 250.387 401.971 250.387 401.971L263.161 392.688V365.999L248.064 361.357Z" fill="#2F2E41"/>
<path d="M228.322 346.272L235.87 364.258C235.87 364.258 238.773 371.801 235.87 373.541C232.967 375.282 224.838 385.725 230.064 386.886C231.115 387.092 232.183 387.198 233.255 387.203C237.606 387.276 241.928 386.469 245.959 384.83C249.99 383.19 253.648 380.753 256.712 377.665L261.419 372.961C261.419 372.961 245.294 335.859 245.518 336.134C245.741 336.409 228.322 346.272 228.322 346.272Z" fill="#2F2E41"/>
<path d="M270.129 81.1245C281.032 81.1245 289.871 72.2926 289.871 61.3979C289.871 50.5033 281.032 41.6714 270.129 41.6714C259.225 41.6714 250.386 50.5033 250.386 61.3979C250.386 72.2926 259.225 81.1245 270.129 81.1245Z" fill="#FFB8B8"/>
<path d="M281.451 88.9571L275.354 95.0491C275.354 95.0491 256.774 102.011 248.064 95.0491C248.064 95.0491 251.257 88.3769 251.257 88.9571C251.257 89.5373 225.999 93.3085 223.677 103.752C221.354 114.195 225.418 132.181 225.418 132.181C225.418 132.181 209.16 208.767 215.547 210.507C221.935 212.248 281.742 226.753 281.161 215.729C280.58 204.705 285.806 159.45 285.806 159.45L306.129 120.578C306.129 120.578 303.226 107.813 296.258 103.752C289.29 99.6906 281.451 88.9571 281.451 88.9571Z" fill="#FF6584"/>
<path d="M255.612 202.385L248.064 207.026C248.064 207.026 219.031 226.753 234.128 230.234C249.225 233.715 257.935 216.309 257.935 216.309L263.742 209.347L255.612 202.385Z" fill="#FFB8B8"/>
<path opacity="0.1" d="M298.581 117.096L303.806 122.318C303.806 122.318 307.29 171.054 300.323 180.918C293.355 190.781 261.419 217.47 259.677 215.729C257.935 213.989 246.903 205.286 249.225 204.125C251.548 202.965 282.429 170.724 282.429 170.724L280 125.799L298.581 117.096Z" fill="black"/>
<path d="M300.903 115.356L306.129 120.578C306.129 120.578 309.613 169.314 302.645 179.177C295.677 189.04 263.741 215.729 262 213.989C260.258 212.248 249.225 203.545 251.548 202.385C253.87 201.224 284.751 168.983 284.751 168.983L282.322 124.059L300.903 115.356Z" fill="#FF6584"/>
<path d="M261.964 33.3776C261.964 33.3776 255.253 30.9392 246.102 36.1208L250.982 37.34C250.982 37.34 243.661 37.9496 242.746 47.7032H246.102C246.102 47.7032 243.966 56.2376 246.102 58.6759L247.474 56.0851L251.44 64.0099L252.355 60.0475L254.185 60.6571L255.405 54.2564C255.405 54.2564 258.456 58.8283 260.896 59.1331V55.1708C260.896 55.1708 267.607 62.7907 269.742 62.4859L266.692 58.2188L270.962 59.1331L269.132 56.0851L280.114 59.1331L277.673 56.0851L285.299 58.5235L288.96 60.0475C288.96 60.0475 294.146 48.1604 286.825 39.9308C279.504 31.7012 268.827 29.8724 261.964 33.3776Z" fill="#2F2E41"/>
<path opacity="0.1" d="M226.759 105.593C226.759 105.593 219.211 105.593 217.469 116.036C215.727 126.48 213.985 161.291 213.985 161.291C213.985 161.291 189.598 193.202 193.662 197.263C197.727 201.324 202.372 208.867 205.275 207.707C208.179 206.546 233.147 172.315 233.147 172.315L226.759 105.593Z" fill="black"/>
</svg>
